<svg width="195" height="16" viewBox="0 0 195 16" fill="none" xmlns="http://www.w3.org/2000/svg">
<path d="M189.817 9.42727V9.35909C189.825 8.6356 189.901 8.05984 190.045 7.63181C190.189 7.20378 190.393 6.85719 190.658 6.59204C190.924 6.32689 191.242 6.08257 191.613 5.85909C191.836 5.72272 192.037 5.56174 192.215 5.37613C192.393 5.18674 192.533 4.96894 192.636 4.72272C192.742 4.47651 192.795 4.20378 192.795 3.90454C192.795 3.53333 192.708 3.21136 192.533 2.93863C192.359 2.6659 192.126 2.45568 191.835 2.30795C191.543 2.16022 191.219 2.08636 190.863 2.08636C190.552 2.08636 190.253 2.15075 189.965 2.27954C189.677 2.40833 189.437 2.61098 189.244 2.8875C189.05 3.16401 188.939 3.52575 188.908 3.97272H187.477C187.507 3.32878 187.674 2.77765 187.977 2.31931C188.283 1.86098 188.687 1.5106 189.187 1.26818C189.691 1.02575 190.249 0.904541 190.863 0.904541C191.53 0.904541 192.109 1.03712 192.602 1.30227C193.098 1.56742 193.48 1.93106 193.749 2.39318C194.022 2.8553 194.158 3.38181 194.158 3.97272C194.158 4.38939 194.094 4.76628 193.965 5.1034C193.84 5.44053 193.658 5.74166 193.42 6.00681C193.185 6.27197 192.901 6.50681 192.567 6.71136C192.234 6.91969 191.967 7.13939 191.766 7.37045C191.566 7.59772 191.42 7.86856 191.329 8.18295C191.238 8.49734 191.189 8.88939 191.181 9.35909V9.42727H189.817ZM190.545 12.7909C190.264 12.7909 190.024 12.6905 189.823 12.4898C189.622 12.289 189.522 12.0485 189.522 11.7682C189.522 11.4879 189.622 11.2473 189.823 11.0466C190.024 10.8458 190.264 10.7455 190.545 10.7455C190.825 10.7455 191.066 10.8458 191.266 11.0466C191.467 11.2473 191.567 11.4879 191.567 11.7682C191.567 11.9538 191.52 12.1242 191.425 12.2795C191.335 12.4348 191.211 12.5598 191.056 12.6545C190.905 12.7455 190.734 12.7909 190.545 12.7909Z" fill="#6D6C80"/>
<path d="M186.05 3.97274V5.10911H181.527V3.97274H186.05ZM182.846 1.88184H184.186V10.2C184.186 10.5788 184.241 10.8629 184.351 11.0523C184.465 11.2379 184.609 11.3629 184.783 11.4273C184.961 11.4879 185.149 11.5182 185.346 11.5182C185.493 11.5182 185.614 11.5106 185.709 11.4955C185.804 11.4765 185.88 11.4614 185.936 11.45L186.209 12.6546C186.118 12.6887 185.991 12.7227 185.828 12.7568C185.666 12.7947 185.459 12.8137 185.209 12.8137C184.83 12.8137 184.459 12.7322 184.096 12.5693C183.736 12.4065 183.436 12.1584 183.198 11.825C182.963 11.4917 182.846 11.0712 182.846 10.5637V1.88184Z" fill="#6D6C80"/>
<path d="M174.235 7.45004V12.7H172.895V3.97277H174.19V5.3364H174.304C174.508 4.89322 174.819 4.53716 175.235 4.26822C175.652 3.99549 176.19 3.85913 176.849 3.85913C177.44 3.85913 177.957 3.98034 178.4 4.22277C178.843 4.4614 179.188 4.82504 179.434 5.31368C179.681 5.79852 179.804 6.41216 179.804 7.15459V12.7H178.463V7.24549C178.463 6.55989 178.285 6.0258 177.929 5.64322C177.573 5.25686 177.084 5.06368 176.463 5.06368C176.035 5.06368 175.652 5.15648 175.315 5.34208C174.982 5.52769 174.718 5.79852 174.525 6.15458C174.332 6.51065 174.235 6.94246 174.235 7.45004Z" fill="#6D6C80"/>
<path d="M169.098 9.13175V3.97266H170.439V12.6999H169.098V11.2227H169.007C168.802 11.6658 168.484 12.0427 168.052 12.3533C167.62 12.6602 167.075 12.8136 166.416 12.8136C165.87 12.8136 165.386 12.6942 164.961 12.4556C164.537 12.2132 164.204 11.8495 163.961 11.3647C163.719 10.8761 163.598 10.2605 163.598 9.51811V3.97266H164.939V9.4272C164.939 10.0636 165.117 10.5711 165.473 10.9499C165.833 11.3287 166.291 11.5181 166.848 11.5181C167.181 11.5181 167.52 11.4329 167.865 11.2624C168.213 11.092 168.505 10.8306 168.74 10.4783C168.978 10.1261 169.098 9.6772 169.098 9.13175Z" fill="#6D6C80"/>
<path d="M157.599 12.8819C156.811 12.8819 156.12 12.6944 155.525 12.3194C154.934 11.9444 154.472 11.4197 154.139 10.7455C153.809 10.0713 153.645 9.28337 153.645 8.38186C153.645 7.47277 153.809 6.67921 154.139 6.00118C154.472 5.32315 154.934 4.79663 155.525 4.42163C156.12 4.04663 156.811 3.85913 157.599 3.85913C158.387 3.85913 159.076 4.04663 159.667 4.42163C160.262 4.79663 160.724 5.32315 161.054 6.00118C161.387 6.67921 161.554 7.47277 161.554 8.38186C161.554 9.28337 161.387 10.0713 161.054 10.7455C160.724 11.4197 160.262 11.9444 159.667 12.3194C159.076 12.6944 158.387 12.8819 157.599 12.8819ZM157.599 11.6773C158.198 11.6773 158.69 11.5239 159.076 11.2171C159.463 10.9103 159.749 10.5069 159.934 10.0069C160.12 9.50686 160.213 8.96519 160.213 8.38186C160.213 7.79852 160.12 7.25496 159.934 6.75118C159.749 6.24739 159.463 5.84019 159.076 5.52958C158.69 5.21898 158.198 5.06368 157.599 5.06368C157.001 5.06368 156.508 5.21898 156.122 5.52958C155.735 5.84019 155.449 6.24739 155.264 6.75118C155.078 7.25496 154.985 7.79852 154.985 8.38186C154.985 8.96519 155.078 9.50686 155.264 10.0069C155.449 10.5069 155.735 10.9103 156.122 11.2171C156.508 11.5239 157.001 11.6773 157.599 11.6773Z" fill="#6D6C80"/>
<path d="M148.662 12.8819C147.843 12.8819 147.139 12.6887 146.548 12.3023C145.957 11.9159 145.502 11.3838 145.184 10.7057C144.866 10.0277 144.707 9.25307 144.707 8.38186C144.707 7.49549 144.87 6.7133 145.196 6.03527C145.525 5.35345 145.984 4.82125 146.571 4.43868C147.162 4.05231 147.851 3.85913 148.639 3.85913C149.252 3.85913 149.806 3.97277 150.298 4.20004C150.79 4.42731 151.194 4.74549 151.508 5.15458C151.823 5.56368 152.018 6.04095 152.093 6.5864H150.752C150.65 6.18868 150.423 5.8364 150.071 5.52958C149.722 5.21898 149.252 5.06368 148.662 5.06368C148.139 5.06368 147.681 5.20004 147.287 5.47277C146.896 5.74171 146.592 6.12239 146.372 6.61481C146.156 7.10345 146.048 7.67731 146.048 8.3364C146.048 9.01065 146.154 9.59777 146.366 10.0978C146.582 10.5978 146.885 10.986 147.275 11.2625C147.669 11.5391 148.131 11.6773 148.662 11.6773C149.01 11.6773 149.326 11.6167 149.61 11.4955C149.895 11.3743 150.135 11.2 150.332 10.9728C150.529 10.7455 150.669 10.4728 150.752 10.1546H152.093C152.018 10.6697 151.83 11.1338 151.531 11.5466C151.235 11.9557 150.843 12.2815 150.355 12.5239C149.87 12.7625 149.306 12.8819 148.662 12.8819Z" fill="#6D6C80"/>
<path d="M139.724 12.8819C138.906 12.8819 138.201 12.6887 137.61 12.3023C137.02 11.9159 136.565 11.3838 136.247 10.7057C135.929 10.0277 135.77 9.25307 135.77 8.38186C135.77 7.49549 135.932 6.7133 136.258 6.03527C136.588 5.35345 137.046 4.82125 137.633 4.43868C138.224 4.05231 138.913 3.85913 139.701 3.85913C140.315 3.85913 140.868 3.97277 141.36 4.20004C141.853 4.42731 142.256 4.74549 142.571 5.15458C142.885 5.56368 143.08 6.04095 143.156 6.5864H141.815C141.713 6.18868 141.485 5.8364 141.133 5.52958C140.785 5.21898 140.315 5.06368 139.724 5.06368C139.201 5.06368 138.743 5.20004 138.349 5.47277C137.959 5.74171 137.654 6.12239 137.434 6.61481C137.218 7.10345 137.11 7.67731 137.11 8.3364C137.11 9.01065 137.217 9.59777 137.429 10.0978C137.645 10.5978 137.948 10.986 138.338 11.2625C138.732 11.5391 139.194 11.6773 139.724 11.6773C140.073 11.6773 140.389 11.6167 140.673 11.4955C140.957 11.3743 141.198 11.2 141.395 10.9728C141.592 10.7455 141.732 10.4728 141.815 10.1546H143.156C143.08 10.6697 142.893 11.1338 142.593 11.5466C142.298 11.9557 141.906 12.2815 141.417 12.5239C140.932 12.7625 140.368 12.8819 139.724 12.8819Z" fill="#6D6C80"/>
<path d="M129.731 12.9046C129.178 12.9046 128.676 12.8004 128.225 12.5921C127.775 12.38 127.417 12.075 127.152 11.6773C126.886 11.2758 126.754 10.7909 126.754 10.2228C126.754 9.72277 126.852 9.31746 127.049 9.00686C127.246 8.69246 127.51 8.44625 127.839 8.26822C128.169 8.09019 128.532 7.95761 128.93 7.87049C129.332 7.77958 129.735 7.70762 130.14 7.65459C130.671 7.5864 131.101 7.53527 131.43 7.50118C131.763 7.4633 132.006 7.4008 132.157 7.31368C132.313 7.22655 132.39 7.07504 132.39 6.85913V6.81368C132.39 6.25307 132.237 5.81746 131.93 5.50686C131.627 5.19625 131.167 5.04095 130.549 5.04095C129.909 5.04095 129.407 5.1811 129.044 5.4614C128.68 5.74171 128.424 6.04095 128.277 6.35913L127.004 5.90458C127.231 5.37428 127.534 4.9614 127.913 4.66595C128.296 4.36671 128.712 4.15837 129.163 4.04095C129.618 3.91974 130.065 3.85913 130.504 3.85913C130.784 3.85913 131.106 3.89322 131.47 3.9614C131.837 4.0258 132.191 4.16027 132.532 4.36481C132.877 4.56936 133.163 4.87807 133.39 5.29095C133.618 5.70383 133.731 6.25686 133.731 6.95004V12.7H132.39V11.5182H132.322C132.231 11.7076 132.08 11.9103 131.868 12.1262C131.655 12.3421 131.373 12.5258 131.021 12.6773C130.669 12.8288 130.239 12.9046 129.731 12.9046ZM129.936 11.7C130.466 11.7 130.913 11.5959 131.277 11.3875C131.644 11.1792 131.921 10.9103 132.106 10.5807C132.296 10.2512 132.39 9.90458 132.39 9.54095V8.31368C132.333 8.38186 132.208 8.44436 132.015 8.50118C131.826 8.55421 131.606 8.60156 131.356 8.64322C131.11 8.6811 130.869 8.71519 130.635 8.74549C130.404 8.77201 130.216 8.79474 130.072 8.81368C129.724 8.85913 129.398 8.93299 129.095 9.03527C128.796 9.13375 128.553 9.28337 128.368 9.48413C128.186 9.6811 128.095 9.95004 128.095 10.2909C128.095 10.7569 128.267 11.1091 128.612 11.3478C128.96 11.5826 129.402 11.7 129.936 11.7Z" fill="#6D6C80"/>
<path d="M114.642 7.45004V12.7H113.301V3.97277H114.596V5.3364H114.71C114.914 4.89322 115.225 4.53716 115.642 4.26822C116.058 3.99549 116.596 3.85913 117.255 3.85913C117.846 3.85913 118.363 3.98034 118.806 4.22277C119.25 4.4614 119.594 4.82504 119.841 5.31368C120.087 5.79852 120.21 6.41216 120.21 7.15459V12.7H118.869V7.24549C118.869 6.55989 118.691 6.0258 118.335 5.64322C117.979 5.25686 117.49 5.06368 116.869 5.06368C116.441 5.06368 116.058 5.15648 115.721 5.34208C115.388 5.52769 115.125 5.79852 114.931 6.15458C114.738 6.51065 114.642 6.94246 114.642 7.45004Z" fill="#6D6C80"/>
<path d="M106.856 12.9046C106.303 12.9046 105.801 12.8004 105.35 12.5921C104.9 12.38 104.542 12.075 104.277 11.6773C104.011 11.2758 103.879 10.7909 103.879 10.2228C103.879 9.72277 103.977 9.31746 104.174 9.00686C104.371 8.69246 104.635 8.44625 104.964 8.26822C105.294 8.09019 105.657 7.95761 106.055 7.87049C106.457 7.77958 106.86 7.70762 107.265 7.65459C107.796 7.5864 108.225 7.53527 108.555 7.50118C108.888 7.4633 109.131 7.4008 109.282 7.31368C109.438 7.22655 109.515 7.07504 109.515 6.85913V6.81368C109.515 6.25307 109.362 5.81746 109.055 5.50686C108.752 5.19625 108.292 5.04095 107.674 5.04095C107.034 5.04095 106.532 5.1811 106.169 5.4614C105.805 5.74171 105.549 6.04095 105.402 6.35913L104.129 5.90458C104.356 5.37428 104.659 4.9614 105.038 4.66595C105.421 4.36671 105.837 4.15837 106.288 4.04095C106.743 3.91974 107.19 3.85913 107.629 3.85913C107.909 3.85913 108.231 3.89322 108.595 3.9614C108.962 4.0258 109.316 4.16027 109.657 4.36481C110.002 4.56936 110.288 4.87807 110.515 5.29095C110.743 5.70383 110.856 6.25686 110.856 6.95004V12.7H109.515V11.5182H109.447C109.356 11.7076 109.205 11.9103 108.993 12.1262C108.78 12.3421 108.498 12.5258 108.146 12.6773C107.794 12.8288 107.364 12.9046 106.856 12.9046ZM107.061 11.7C107.591 11.7 108.038 11.5959 108.402 11.3875C108.769 11.1792 109.046 10.9103 109.231 10.5807C109.421 10.2512 109.515 9.90458 109.515 9.54095V8.31368C109.458 8.38186 109.333 8.44436 109.14 8.50118C108.951 8.55421 108.731 8.60156 108.481 8.64322C108.235 8.6811 107.994 8.71519 107.76 8.74549C107.529 8.77201 107.341 8.79474 107.197 8.81368C106.849 8.85913 106.523 8.93299 106.22 9.03527C105.921 9.13375 105.678 9.28337 105.493 9.48413C105.311 9.6811 105.22 9.95004 105.22 10.2909C105.22 10.7569 105.392 11.1091 105.737 11.3478C106.085 11.5826 106.527 11.7 107.061 11.7Z" fill="#6D6C80"/>
<path d="M94.1346 12.8819C93.2937 12.8819 92.5683 12.6963 91.9585 12.325C91.3524 11.95 90.8846 11.4273 90.555 10.7569C90.2293 10.0826 90.0664 9.29853 90.0664 8.40459C90.0664 7.51065 90.2293 6.72277 90.555 6.04095C90.8846 5.35534 91.3429 4.82125 91.93 4.43868C92.5209 4.05231 93.2103 3.85913 93.9982 3.85913C94.4528 3.85913 94.9016 3.93489 95.3448 4.0864C95.788 4.23792 96.1914 4.48413 96.555 4.82504C96.9187 5.16216 97.2085 5.60913 97.4244 6.16595C97.6403 6.72277 97.7482 7.40837 97.7482 8.22277V8.79095H91.021V7.63186H96.3846C96.3846 7.13943 96.2861 6.70004 96.0891 6.31368C95.896 5.92731 95.6194 5.62239 95.2596 5.3989C94.9035 5.17542 94.4831 5.06368 93.9982 5.06368C93.4641 5.06368 93.002 5.19625 92.6119 5.4614C92.2255 5.72277 91.9281 6.06368 91.7198 6.48413C91.5115 6.90458 91.4073 7.35534 91.4073 7.8364V8.60913C91.4073 9.26822 91.5209 9.82693 91.7482 10.2853C91.9793 10.7398 92.2994 11.0864 92.7085 11.325C93.1175 11.5599 93.5929 11.6773 94.1346 11.6773C94.4869 11.6773 94.805 11.6281 95.0891 11.5296C95.377 11.4273 95.6251 11.2758 95.8335 11.075C96.0418 10.8705 96.2028 10.6167 96.3164 10.3137L97.6119 10.6773C97.4755 11.1167 97.2463 11.5031 96.9244 11.8364C96.6024 12.1659 96.2047 12.4235 95.7312 12.6091C95.2577 12.7909 94.7255 12.8819 94.1346 12.8819Z" fill="#6D6C80"/>
<path d="M89.0174 3.97266L85.7901 12.6999H84.4265L81.1992 3.97266H82.6538L85.0629 10.9272H85.1538L87.5629 3.97266H89.0174Z" fill="#6D6C80"/>
<path d="M75.7468 12.9046C75.1938 12.9046 74.6919 12.8004 74.2411 12.5921C73.7904 12.38 73.4324 12.075 73.1673 11.6773C72.9021 11.2758 72.7695 10.7909 72.7695 10.2228C72.7695 9.72277 72.868 9.31746 73.065 9.00686C73.262 8.69246 73.5252 8.44625 73.8548 8.26822C74.1843 8.09019 74.5479 7.95761 74.9457 7.87049C75.3472 7.77958 75.7506 7.70762 76.1559 7.65459C76.6862 7.5864 77.1161 7.53527 77.4457 7.50118C77.779 7.4633 78.0214 7.4008 78.1729 7.31368C78.3282 7.22655 78.4059 7.07504 78.4059 6.85913V6.81368C78.4059 6.25307 78.2525 5.81746 77.9457 5.50686C77.6426 5.19625 77.1824 5.04095 76.565 5.04095C75.9248 5.04095 75.4229 5.1811 75.0593 5.4614C74.6957 5.74171 74.44 6.04095 74.2923 6.35913L73.0195 5.90458C73.2468 5.37428 73.5498 4.9614 73.9286 4.66595C74.3112 4.36671 74.7279 4.15837 75.1786 4.04095C75.6332 3.91974 76.0801 3.85913 76.5195 3.85913C76.7998 3.85913 77.1218 3.89322 77.4854 3.9614C77.8529 4.0258 78.207 4.16027 78.5479 4.36481C78.8926 4.56936 79.1786 4.87807 79.4059 5.29095C79.6332 5.70383 79.7468 6.25686 79.7468 6.95004V12.7H78.4059V11.5182H78.3377C78.2468 11.7076 78.0953 11.9103 77.8832 12.1262C77.671 12.3421 77.3888 12.5258 77.0366 12.6773C76.6843 12.8288 76.2544 12.9046 75.7468 12.9046ZM75.9513 11.7C76.4817 11.7 76.9286 11.5959 77.2923 11.3875C77.6597 11.1792 77.9362 10.9103 78.1218 10.5807C78.3112 10.2512 78.4059 9.90458 78.4059 9.54095V8.31368C78.3491 8.38186 78.2241 8.44436 78.0309 8.50118C77.8415 8.55421 77.6218 8.60156 77.3718 8.64322C77.1256 8.6811 76.8851 8.71519 76.6502 8.74549C76.4192 8.77201 76.2317 8.79474 76.0877 8.81368C75.7392 8.85913 75.4135 8.93299 75.1104 9.03527C74.8112 9.13375 74.5688 9.28337 74.3832 9.48413C74.2013 9.6811 74.1104 9.95004 74.1104 10.2909C74.1104 10.7569 74.2828 11.1091 74.6275 11.3478C74.976 11.5826 75.4173 11.7 75.9513 11.7Z" fill="#6D6C80"/>
<path d="M65.0636 7.45008V12.7001H63.7227V1.06372H65.0636V5.33645H65.1772C65.3817 4.88569 65.6886 4.52774 66.0977 4.26258C66.5105 3.99365 67.0598 3.85918 67.7454 3.85918C68.3401 3.85918 68.8609 3.97849 69.3079 4.21713C69.7549 4.45198 70.1014 4.81372 70.3477 5.30236C70.5977 5.78721 70.7227 6.40463 70.7227 7.15463V12.7001H69.3818V7.24554C69.3818 6.55236 69.2018 6.01637 68.842 5.63758C68.4859 5.25501 67.9916 5.06372 67.359 5.06372C66.9196 5.06372 66.5257 5.15652 66.1772 5.34213C65.8325 5.52774 65.5598 5.79857 65.359 6.15463C65.1621 6.51069 65.0636 6.94251 65.0636 7.45008Z" fill="#6D6C80"/>
<path d="M51.1822 15.9727C50.9549 15.9727 50.7522 15.9537 50.5742 15.9158C50.3962 15.8817 50.2731 15.8477 50.2049 15.8136L50.5458 14.6317C50.8716 14.7151 51.1594 14.7454 51.4094 14.7227C51.6594 14.6999 51.881 14.5882 52.0742 14.3874C52.2712 14.1905 52.4511 13.8704 52.614 13.4272L52.864 12.7454L49.6367 3.97266H51.0913L53.5004 10.9272H53.5913L56.0004 3.97266H57.4549L53.7504 13.9727C53.5837 14.4234 53.3772 14.7965 53.131 15.092C52.8848 15.3912 52.5988 15.6128 52.2731 15.7567C51.9511 15.9007 51.5875 15.9727 51.1822 15.9727Z" fill="#6D6C80"/>
<path d="M43.6772 12.8819C42.9499 12.8819 42.3079 12.6982 41.7511 12.3308C41.1942 11.9596 40.7586 11.4368 40.4442 10.7626C40.1299 10.0846 39.9727 9.28342 39.9727 8.35918C39.9727 7.44251 40.1299 6.64705 40.4442 5.97281C40.7586 5.29857 41.1961 4.77774 41.7567 4.41031C42.3174 4.04289 42.9651 3.85918 43.6999 3.85918C44.2681 3.85918 44.717 3.95387 45.0465 4.14327C45.3799 4.32887 45.6336 4.54099 45.8079 4.77963C45.9859 5.01448 46.1242 5.20766 46.2227 5.35917H46.3363V1.06372H47.6772V12.7001H46.3817V11.3592H46.2227C46.1242 11.5183 45.984 11.719 45.8022 11.9614C45.6204 12.2001 45.3609 12.4141 45.0238 12.6035C44.6867 12.7891 44.2378 12.8819 43.6772 12.8819ZM43.859 11.6774C44.3969 11.6774 44.8514 11.5372 45.2227 11.2569C45.5939 10.9728 45.8761 10.5808 46.0692 10.0808C46.2624 9.57698 46.359 8.99554 46.359 8.33645C46.359 7.68493 46.2643 7.11486 46.0749 6.62622C45.8855 6.1338 45.6052 5.75122 45.234 5.47849C44.8628 5.20198 44.4045 5.06372 43.859 5.06372C43.2908 5.06372 42.8174 5.20955 42.4386 5.50122C42.0636 5.7891 41.7814 6.18114 41.592 6.67736C41.4064 7.16978 41.3136 7.72281 41.3136 8.33645C41.3136 8.95766 41.4083 9.52205 41.5977 10.0296C41.7908 10.5334 42.0749 10.9349 42.4499 11.2342C42.8287 11.5296 43.2984 11.6774 43.859 11.6774Z" fill="#6D6C80"/>
<path d="M33.9343 12.9046C33.3813 12.9046 32.8794 12.8004 32.4286 12.5921C31.9779 12.38 31.6199 12.075 31.3548 11.6773C31.0896 11.2758 30.957 10.7909 30.957 10.2228C30.957 9.72277 31.0555 9.31746 31.2525 9.00686C31.4495 8.69246 31.7127 8.44625 32.0423 8.26822C32.3718 8.09019 32.7354 7.95761 33.1332 7.87049C33.5347 7.77958 33.9381 7.70762 34.3434 7.65459C34.8737 7.5864 35.3036 7.53527 35.6332 7.50118C35.9665 7.4633 36.2089 7.4008 36.3604 7.31368C36.5157 7.22655 36.5934 7.07504 36.5934 6.85913V6.81368C36.5934 6.25307 36.44 5.81746 36.1332 5.50686C35.8301 5.19625 35.3699 5.04095 34.7525 5.04095C34.1123 5.04095 33.6104 5.1811 33.2468 5.4614C32.8832 5.74171 32.6275 6.04095 32.4798 6.35913L31.207 5.90458C31.4343 5.37428 31.7373 4.9614 32.1161 4.66595C32.4987 4.36671 32.9154 4.15837 33.3661 4.04095C33.8207 3.91974 34.2676 3.85913 34.707 3.85913C34.9873 3.85913 35.3093 3.89322 35.6729 3.9614C36.0404 4.0258 36.3945 4.16027 36.7354 4.36481C37.0801 4.56936 37.3661 4.87807 37.5934 5.29095C37.8207 5.70383 37.9343 6.25686 37.9343 6.95004V12.7H36.5934V11.5182H36.5252C36.4343 11.7076 36.2828 11.9103 36.0707 12.1262C35.8585 12.3421 35.5763 12.5258 35.2241 12.6773C34.8718 12.8288 34.4419 12.9046 33.9343 12.9046ZM34.1388 11.7C34.6692 11.7 35.1161 11.5959 35.4798 11.3875C35.8472 11.1792 36.1237 10.9103 36.3093 10.5807C36.4987 10.2512 36.5934 9.90458 36.5934 9.54095V8.31368C36.5366 8.38186 36.4116 8.44436 36.2184 8.50118C36.029 8.55421 35.8093 8.60156 35.5593 8.64322C35.3131 8.6811 35.0726 8.71519 34.8377 8.74549C34.6067 8.77201 34.4192 8.79474 34.2752 8.81368C33.9267 8.85913 33.601 8.93299 33.2979 9.03527C32.9987 9.13375 32.7563 9.28337 32.5707 9.48413C32.3889 9.6811 32.2979 9.95004 32.2979 10.2909C32.2979 10.7569 32.4703 11.1091 32.815 11.3478C33.1635 11.5826 33.6048 11.7 34.1388 11.7Z" fill="#6D6C80"/>
<path d="M25.7127 12.8819C24.8718 12.8819 24.1464 12.6963 23.5366 12.325C22.9305 11.95 22.4627 11.4273 22.1332 10.7569C21.8074 10.0826 21.6445 9.29853 21.6445 8.40459C21.6445 7.51065 21.8074 6.72277 22.1332 6.04095C22.4627 5.35534 22.921 4.82125 23.5082 4.43868C24.0991 4.05231 24.7885 3.85913 25.5763 3.85913C26.0309 3.85913 26.4798 3.93489 26.9229 4.0864C27.3661 4.23792 27.7695 4.48413 28.1332 4.82504C28.4968 5.16216 28.7866 5.60913 29.0025 6.16595C29.2184 6.72277 29.3263 7.40837 29.3263 8.22277V8.79095H22.5991V7.63186H27.9627C27.9627 7.13943 27.8642 6.70004 27.6673 6.31368C27.4741 5.92731 27.1976 5.62239 26.8377 5.3989C26.4817 5.17542 26.0612 5.06368 25.5763 5.06368C25.0423 5.06368 24.5801 5.19625 24.19 5.4614C23.8036 5.72277 23.5063 6.06368 23.2979 6.48413C23.0896 6.90458 22.9854 7.35534 22.9854 7.8364V8.60913C22.9854 9.26822 23.0991 9.82693 23.3263 10.2853C23.5574 10.7398 23.8775 11.0864 24.2866 11.325C24.6957 11.5599 25.171 11.6773 25.7127 11.6773C26.065 11.6773 26.3832 11.6281 26.6673 11.5296C26.9551 11.4273 27.2032 11.2758 27.4116 11.075C27.6199 10.8705 27.7809 10.6167 27.8945 10.3137L29.19 10.6773C29.0536 11.1167 28.8245 11.5031 28.5025 11.8364C28.1805 12.1659 27.7828 12.4235 27.3093 12.6091C26.8358 12.7909 26.3036 12.8819 25.7127 12.8819Z" fill="#6D6C80"/>
<path d="M16.3633 12.7001V3.97279H17.6587V5.29097H17.7496C17.9087 4.85915 18.1966 4.50877 18.6133 4.23983C19.0299 3.9709 19.4996 3.83643 20.0224 3.83643C20.1209 3.83643 20.244 3.83832 20.3917 3.84211C20.5394 3.8459 20.6512 3.85158 20.7269 3.85915V5.22279C20.6815 5.21143 20.5773 5.19438 20.4144 5.17165C20.2553 5.14514 20.0868 5.13188 19.9087 5.13188C19.4845 5.13188 19.1057 5.2209 18.7724 5.39893C18.4428 5.57317 18.1815 5.81559 17.9883 6.1262C17.7989 6.43302 17.7042 6.7834 17.7042 7.17733V12.7001H16.3633Z" fill="#6D6C80"/>
<path d="M13.9073 1.06372V12.7001H12.5664V1.06372H13.9073Z" fill="#6D6C80"/>
<path d="M2.41477 12.7001H0.9375L5.21023 1.06372H6.66477L10.9375 12.7001H9.46023L5.98295 2.90463H5.89205L2.41477 12.7001ZM2.96023 8.15463H8.91477V9.40463H2.96023V8.15463Z" fill="#6D6C80"/>
</svg>
