<svg width="160" height="17" viewBox="0 0 160 17" fill="none" xmlns="http://www.w3.org/2000/svg">
<path d="M156.103 12.9818C155.262 12.9818 154.537 12.7962 153.927 12.425C153.321 12.05 152.853 11.5273 152.524 10.8568C152.198 10.1826 152.035 9.3985 152.035 8.50456C152.035 7.61062 152.198 6.82274 152.524 6.14092C152.853 5.45532 153.312 4.92123 153.899 4.53865C154.49 4.15229 155.179 3.95911 155.967 3.95911C156.422 3.95911 156.87 4.03486 157.314 4.18638C157.757 4.33789 158.16 4.58411 158.524 4.92502C158.887 5.26214 159.177 5.70911 159.393 6.26592C159.609 6.82274 159.717 7.50835 159.717 8.32274V8.89092H152.99V7.73183H158.353C158.353 7.23941 158.255 6.80002 158.058 6.41365C157.865 6.02729 157.588 5.72236 157.228 5.49888C156.872 5.27539 156.452 5.16365 155.967 5.16365C155.433 5.16365 154.971 5.29623 154.581 5.56138C154.194 5.82274 153.897 6.16365 153.689 6.58411C153.48 7.00456 153.376 7.45532 153.376 7.93638V8.70911C153.376 9.3682 153.49 9.92691 153.717 10.3852C153.948 10.8398 154.268 11.1864 154.677 11.425C155.086 11.6599 155.562 11.7773 156.103 11.7773C156.456 11.7773 156.774 11.728 157.058 11.6296C157.346 11.5273 157.594 11.3758 157.802 11.175C158.011 10.9705 158.172 10.7167 158.285 10.4137L159.581 10.7773C159.444 11.2167 159.215 11.603 158.893 11.9364C158.571 12.2659 158.173 12.5235 157.7 12.7091C157.226 12.8909 156.694 12.9818 156.103 12.9818Z" fill="#1C1A4A"/>
<path d="M149.989 1.1637V12.8001H148.648V1.1637H149.989Z" fill="#1C1A4A"/>
<path d="M142.42 16.2546C141.772 16.2546 141.216 16.1712 140.75 16.0046C140.284 15.8417 139.895 15.6258 139.585 15.3568C139.278 15.0917 139.034 14.8076 138.852 14.5046L139.92 13.7546C140.041 13.9137 140.195 14.0955 140.38 14.3C140.566 14.5083 140.82 14.6883 141.142 14.8398C141.467 14.9951 141.894 15.0727 142.42 15.0727C143.125 15.0727 143.706 14.9023 144.164 14.5614C144.623 14.2205 144.852 13.6864 144.852 12.9591V11.1864H144.738C144.64 11.3455 144.5 11.5424 144.318 11.7773C144.14 12.0083 143.882 12.2148 143.545 12.3966C143.212 12.5746 142.761 12.6637 142.193 12.6637C141.488 12.6637 140.856 12.497 140.295 12.1637C139.738 11.8303 139.297 11.3455 138.971 10.7091C138.649 10.0727 138.488 9.30002 138.488 8.39092C138.488 7.49699 138.645 6.71858 138.96 6.0557C139.274 5.38903 139.712 4.87388 140.272 4.51024C140.833 4.14282 141.481 3.95911 142.216 3.95911C142.784 3.95911 143.234 4.0538 143.568 4.2432C143.905 4.4288 144.163 4.64092 144.341 4.87956C144.522 5.11441 144.663 5.30759 144.761 5.45911H144.897V4.07274H146.193V13.05C146.193 13.8 146.022 14.4099 145.681 14.8796C145.344 15.353 144.89 15.6996 144.318 15.9193C143.75 16.1428 143.117 16.2546 142.42 16.2546ZM142.375 11.4591C142.913 11.4591 143.367 11.336 143.738 11.0898C144.109 10.8436 144.392 10.4894 144.585 10.0273C144.778 9.56517 144.875 9.01214 144.875 8.3682C144.875 7.73941 144.78 7.18449 144.591 6.70342C144.401 6.22236 144.121 5.84547 143.75 5.57274C143.378 5.30002 142.92 5.16365 142.375 5.16365C141.806 5.16365 141.333 5.30759 140.954 5.59547C140.579 5.88335 140.297 6.26971 140.108 6.75456C139.922 7.23941 139.829 7.77729 139.829 8.3682C139.829 8.97426 139.924 9.51024 140.113 9.97615C140.306 10.4383 140.591 10.8019 140.966 11.0671C141.344 11.3284 141.814 11.4591 142.375 11.4591Z" fill="#1C1A4A"/>
<path d="M132.896 12.9818C132.108 12.9818 131.417 12.7943 130.822 12.4193C130.231 12.0443 129.769 11.5197 129.436 10.8455C129.106 10.1712 128.941 9.38335 128.941 8.48183C128.941 7.57274 129.106 6.77918 129.436 6.10115C129.769 5.42312 130.231 4.89661 130.822 4.52161C131.417 4.14661 132.108 3.95911 132.896 3.95911C133.684 3.95911 134.373 4.14661 134.964 4.52161C135.559 4.89661 136.021 5.42312 136.351 6.10115C136.684 6.77918 136.851 7.57274 136.851 8.48183C136.851 9.38335 136.684 10.1712 136.351 10.8455C136.021 11.5197 135.559 12.0443 134.964 12.4193C134.373 12.7943 133.684 12.9818 132.896 12.9818ZM132.896 11.7773C133.494 11.7773 133.987 11.6239 134.373 11.3171C134.76 11.0102 135.046 10.6068 135.231 10.1068C135.417 9.60683 135.51 9.06517 135.51 8.48183C135.51 7.8985 135.417 7.35494 135.231 6.85115C135.046 6.34736 134.76 5.94017 134.373 5.62956C133.987 5.31895 133.494 5.16365 132.896 5.16365C132.297 5.16365 131.805 5.31895 131.419 5.62956C131.032 5.94017 130.746 6.34736 130.561 6.85115C130.375 7.35494 130.282 7.8985 130.282 8.48183C130.282 9.06517 130.375 9.60683 130.561 10.1068C130.746 10.6068 131.032 11.0102 131.419 11.3171C131.805 11.6239 132.297 11.7773 132.896 11.7773Z" fill="#1C1A4A"/>
<path d="M123.349 12.9818C122.561 12.9818 121.87 12.7943 121.275 12.4193C120.684 12.0443 120.222 11.5197 119.889 10.8455C119.559 10.1712 119.395 9.38335 119.395 8.48183C119.395 7.57274 119.559 6.77918 119.889 6.10115C120.222 5.42312 120.684 4.89661 121.275 4.52161C121.87 4.14661 122.561 3.95911 123.349 3.95911C124.137 3.95911 124.826 4.14661 125.417 4.52161C126.012 4.89661 126.474 5.42312 126.804 6.10115C127.137 6.77918 127.304 7.57274 127.304 8.48183C127.304 9.38335 127.137 10.1712 126.804 10.8455C126.474 11.5197 126.012 12.0443 125.417 12.4193C124.826 12.7943 124.137 12.9818 123.349 12.9818ZM123.349 11.7773C123.948 11.7773 124.44 11.6239 124.826 11.3171C125.213 11.0102 125.499 10.6068 125.684 10.1068C125.87 9.60683 125.963 9.06517 125.963 8.48183C125.963 7.8985 125.87 7.35494 125.684 6.85115C125.499 6.34736 125.213 5.94017 124.826 5.62956C124.44 5.31895 123.948 5.16365 123.349 5.16365C122.751 5.16365 122.258 5.31895 121.872 5.62956C121.485 5.94017 121.199 6.34736 121.014 6.85115C120.828 7.35494 120.735 7.8985 120.735 8.48183C120.735 9.06517 120.828 9.60683 121.014 10.1068C121.199 10.6068 121.485 11.0102 121.872 11.3171C122.258 11.6239 122.751 11.7773 123.349 11.7773Z" fill="#1C1A4A"/>
<path d="M113.576 16.2546C112.929 16.2546 112.372 16.1712 111.906 16.0046C111.44 15.8417 111.052 15.6258 110.741 15.3568C110.434 15.0917 110.19 14.8076 110.008 14.5046L111.076 13.7546C111.198 13.9137 111.351 14.0955 111.537 14.3C111.722 14.5083 111.976 14.6883 112.298 14.8398C112.624 14.9951 113.05 15.0727 113.576 15.0727C114.281 15.0727 114.862 14.9023 115.321 14.5614C115.779 14.2205 116.008 13.6864 116.008 12.9591V11.1864H115.895C115.796 11.3455 115.656 11.5424 115.474 11.7773C115.296 12.0083 115.038 12.2148 114.701 12.3966C114.368 12.5746 113.917 12.6637 113.349 12.6637C112.645 12.6637 112.012 12.497 111.451 12.1637C110.895 11.8303 110.453 11.3455 110.127 10.7091C109.806 10.0727 109.645 9.30002 109.645 8.39092C109.645 7.49699 109.802 6.71858 110.116 6.0557C110.431 5.38903 110.868 4.87388 111.429 4.51024C111.989 4.14282 112.637 3.95911 113.372 3.95911C113.94 3.95911 114.391 4.0538 114.724 4.2432C115.061 4.4288 115.319 4.64092 115.497 4.87956C115.679 5.11441 115.819 5.30759 115.917 5.45911H116.054V4.07274H117.349V13.05C117.349 13.8 117.179 14.4099 116.838 14.8796C116.501 15.353 116.046 15.6996 115.474 15.9193C114.906 16.1428 114.273 16.2546 113.576 16.2546ZM113.531 11.4591C114.069 11.4591 114.523 11.336 114.895 11.0898C115.266 10.8436 115.548 10.4894 115.741 10.0273C115.934 9.56517 116.031 9.01214 116.031 8.3682C116.031 7.73941 115.936 7.18449 115.747 6.70342C115.557 6.22236 115.277 5.84547 114.906 5.57274C114.535 5.30002 114.076 5.16365 113.531 5.16365C112.963 5.16365 112.489 5.30759 112.11 5.59547C111.735 5.88335 111.453 6.26971 111.264 6.75456C111.078 7.23941 110.985 7.77729 110.985 8.3682C110.985 8.97426 111.08 9.51024 111.27 9.97615C111.463 10.4383 111.747 10.8019 112.122 11.0671C112.501 11.3284 112.97 11.4591 113.531 11.4591Z" fill="#1C1A4A"/>
<path d="M97.4425 7.55006V12.8001H96.1016V1.1637H97.4425V5.43642H97.5561C97.7607 4.98567 98.0675 4.62771 98.4766 4.36256C98.8894 4.09362 99.4387 3.95915 100.124 3.95915C100.719 3.95915 101.24 4.07847 101.687 4.31711C102.134 4.55195 102.48 4.9137 102.727 5.40233C102.977 5.88718 103.102 6.50461 103.102 7.25461V12.8001H101.761V7.34551C101.761 6.65233 101.581 6.11635 101.221 5.73756C100.865 5.35498 100.371 5.1637 99.7379 5.1637C99.2985 5.1637 98.9046 5.2565 98.5561 5.44211C98.2114 5.62771 97.9387 5.89854 97.7379 6.25461C97.541 6.61067 97.4425 7.04248 97.4425 7.55006Z" fill="#1C1A4A"/>
<path d="M93.8977 4.07272V5.20908H89.375V4.07272H93.8977ZM90.6932 1.98181H92.0341V10.3C92.0341 10.6788 92.089 10.9629 92.1989 11.1523C92.3125 11.3379 92.4564 11.4629 92.6307 11.5273C92.8087 11.5879 92.9962 11.6182 93.1932 11.6182C93.3409 11.6182 93.4621 11.6106 93.5568 11.5954C93.6515 11.5765 93.7273 11.5614 93.7841 11.55L94.0568 12.7545C93.9659 12.7886 93.839 12.8227 93.6761 12.8568C93.5133 12.8947 93.3068 12.9136 93.0568 12.9136C92.678 12.9136 92.3068 12.8322 91.9432 12.6693C91.5833 12.5064 91.2841 12.2583 91.0455 11.925C90.8106 11.5917 90.6932 11.1712 90.6932 10.6636V1.98181Z" fill="#1C1A4A"/>
<path d="M86.304 12.8V4.07278H87.6449V12.8H86.304ZM86.9858 2.61823C86.7244 2.61823 86.4991 2.52922 86.3097 2.35118C86.1241 2.17315 86.0312 1.95914 86.0312 1.70914C86.0312 1.45914 86.1241 1.24512 86.3097 1.06709C86.4991 0.889064 86.7244 0.800049 86.9858 0.800049C87.2472 0.800049 87.4706 0.889064 87.6562 1.06709C87.8456 1.24512 87.9403 1.45914 87.9403 1.70914C87.9403 1.95914 87.8456 2.17315 87.6562 2.35118C87.4706 2.52922 87.2472 2.61823 86.9858 2.61823Z" fill="#1C1A4A"/>
<path d="M75.2802 12.8L72.6211 4.07275H74.0302L75.9165 10.7546H76.0075L77.8711 4.07275H79.3029L81.1438 10.7318H81.2347L83.1211 4.07275H84.5302L81.8711 12.8H80.5529L78.6438 6.09548H78.5075L76.5984 12.8H75.2802Z" fill="#1C1A4A"/>
<path d="M63.1502 12.9818C62.3093 12.9818 61.5839 12.7962 60.9741 12.425C60.368 12.05 59.9002 11.5273 59.5707 10.8568C59.2449 10.1826 59.082 9.3985 59.082 8.50456C59.082 7.61062 59.2449 6.82274 59.5707 6.14092C59.9002 5.45532 60.3585 4.92123 60.9457 4.53865C61.5366 4.15229 62.226 3.95911 63.0139 3.95911C63.4684 3.95911 63.9173 4.03486 64.3604 4.18638C64.8036 4.33789 65.207 4.58411 65.5707 4.92502C65.9343 5.26214 66.2241 5.70911 66.44 6.26592C66.6559 6.82274 66.7639 7.50835 66.7639 8.32274V8.89092H60.0366V7.73183H65.4002C65.4002 7.23941 65.3017 6.80002 65.1048 6.41365C64.9116 6.02729 64.6351 5.72236 64.2752 5.49888C63.9192 5.27539 63.4987 5.16365 63.0139 5.16365C62.4798 5.16365 62.0176 5.29623 61.6275 5.56138C61.2411 5.82274 60.9438 6.16365 60.7354 6.58411C60.5271 7.00456 60.4229 7.45532 60.4229 7.93638V8.70911C60.4229 9.3682 60.5366 9.92691 60.7639 10.3852C60.9949 10.8398 61.315 11.1864 61.7241 11.425C62.1332 11.6599 62.6085 11.7773 63.1502 11.7773C63.5025 11.7773 63.8207 11.728 64.1048 11.6296C64.3926 11.5273 64.6407 11.3758 64.8491 11.175C65.0574 10.9705 65.2184 10.7167 65.332 10.4137L66.6275 10.7773C66.4911 11.2167 66.262 11.603 65.94 11.9364C65.618 12.2659 65.2203 12.5235 64.7468 12.7091C64.2733 12.8909 63.7411 12.9818 63.1502 12.9818Z" fill="#1C1A4A"/>
<path d="M55.6953 9.23184V4.07275H57.0362V12.8H55.6953V11.3228H55.6044C55.3999 11.7659 55.0817 12.1428 54.6499 12.4534C54.218 12.7603 53.6726 12.9137 53.0135 12.9137C52.468 12.9137 51.9832 12.7943 51.5589 12.5557C51.1347 12.3133 50.8014 11.9496 50.5589 11.4648C50.3165 10.9762 50.1953 10.3606 50.1953 9.61821V4.07275H51.5362V9.5273C51.5362 10.1637 51.7143 10.6712 52.0703 11.05C52.4302 11.4288 52.8885 11.6182 53.4453 11.6182C53.7786 11.6182 54.1177 11.533 54.4624 11.3625C54.8108 11.1921 55.1025 10.9307 55.3374 10.5784C55.576 10.2262 55.6953 9.7773 55.6953 9.23184Z" fill="#1C1A4A"/>
<path d="M42.1768 7.55002V12.8H40.8359V4.07274H42.1314V5.43638H42.245C42.4496 4.9932 42.7602 4.63714 43.1768 4.3682C43.5935 4.09547 44.1314 3.95911 44.7905 3.95911C45.3814 3.95911 45.8984 4.08032 46.3416 4.32274C46.7848 4.56138 47.1295 4.92502 47.3757 5.41365C47.6219 5.8985 47.745 6.51214 47.745 7.25456V12.8H46.4041V7.34547C46.4041 6.65986 46.2261 6.12577 45.87 5.7432C45.514 5.35683 45.0253 5.16365 44.4041 5.16365C43.9761 5.16365 43.5935 5.25645 43.2564 5.44206C42.9231 5.62767 42.6598 5.8985 42.4666 6.25456C42.2734 6.61062 42.1768 7.04244 42.1768 7.55002Z" fill="#1C1A4A"/>
<path d="M37.0384 12.8V4.07278H38.3793V12.8H37.0384ZM37.7202 2.61823C37.4588 2.61823 37.2334 2.52922 37.044 2.35118C36.8584 2.17315 36.7656 1.95914 36.7656 1.70914C36.7656 1.45914 36.8584 1.24512 37.044 1.06709C37.2334 0.889064 37.4588 0.800049 37.7202 0.800049C37.9815 0.800049 38.205 0.889064 38.3906 1.06709C38.58 1.24512 38.6747 1.45914 38.6747 1.70914C38.6747 1.95914 38.58 2.17315 38.3906 2.35118C38.205 2.52922 37.9815 2.61823 37.7202 2.61823Z" fill="#1C1A4A"/>
<path d="M35.0227 4.07272V5.20908H30.5V4.07272H35.0227ZM31.8182 1.98181H33.1591V10.3C33.1591 10.6788 33.214 10.9629 33.3239 11.1523C33.4375 11.3379 33.5814 11.4629 33.7557 11.5273C33.9337 11.5879 34.1212 11.6182 34.3182 11.6182C34.4659 11.6182 34.5871 11.6106 34.6818 11.5954C34.7765 11.5765 34.8523 11.5614 34.9091 11.55L35.1818 12.7545C35.0909 12.7886 34.964 12.8227 34.8011 12.8568C34.6383 12.8947 34.4318 12.9136 34.1818 12.9136C33.803 12.9136 33.4318 12.8322 33.0682 12.6693C32.7083 12.5064 32.4091 12.2583 32.1705 11.925C31.9356 11.5917 31.8182 11.1712 31.8182 10.6636V1.98181Z" fill="#1C1A4A"/>
<path d="M23.2081 7.55002V12.8H21.8672V4.07274H23.1626V5.43638H23.2763C23.4808 4.9932 23.7914 4.63714 24.2081 4.3682C24.6248 4.09547 25.1626 3.95911 25.8217 3.95911C26.4126 3.95911 26.9297 4.08032 27.3729 4.32274C27.8161 4.56138 28.1607 4.92502 28.407 5.41365C28.6532 5.8985 28.7763 6.51214 28.7763 7.25456V12.8H27.4354V7.34547C27.4354 6.65986 27.2573 6.12577 26.9013 5.7432C26.5452 5.35683 26.0566 5.16365 25.4354 5.16365C25.0073 5.16365 24.6248 5.25645 24.2876 5.44206C23.9543 5.62767 23.6911 5.8985 23.4979 6.25456C23.3047 6.61062 23.2081 7.04244 23.2081 7.55002Z" fill="#1C1A4A"/>
<path d="M15.8647 12.9818C15.0768 12.9818 14.3855 12.7943 13.7908 12.4193C13.1999 12.0443 12.7378 11.5197 12.4045 10.8455C12.0749 10.1712 11.9102 9.38335 11.9102 8.48183C11.9102 7.57274 12.0749 6.77918 12.4045 6.10115C12.7378 5.42312 13.1999 4.89661 13.7908 4.52161C14.3855 4.14661 15.0768 3.95911 15.8647 3.95911C16.6526 3.95911 17.342 4.14661 17.9329 4.52161C18.5276 4.89661 18.9897 5.42312 19.3192 6.10115C19.6526 6.77918 19.8192 7.57274 19.8192 8.48183C19.8192 9.38335 19.6526 10.1712 19.3192 10.8455C18.9897 11.5197 18.5276 12.0443 17.9329 12.4193C17.342 12.7943 16.6526 12.9818 15.8647 12.9818ZM15.8647 11.7773C16.4632 11.7773 16.9556 11.6239 17.342 11.3171C17.7283 11.0102 18.0143 10.6068 18.1999 10.1068C18.3855 9.60683 18.4783 9.06517 18.4783 8.48183C18.4783 7.8985 18.3855 7.35494 18.1999 6.85115C18.0143 6.34736 17.7283 5.94017 17.342 5.62956C16.9556 5.31895 16.4632 5.16365 15.8647 5.16365C15.2662 5.16365 14.7738 5.31895 14.3874 5.62956C14.0011 5.94017 13.7151 6.34736 13.5295 6.85115C13.3439 7.35494 13.2511 7.8985 13.2511 8.48183C13.2511 9.06517 13.3439 9.60683 13.5295 10.1068C13.7151 10.6068 14.0011 11.0102 14.3874 11.3171C14.7738 11.6239 15.2662 11.7773 15.8647 11.7773Z" fill="#1C1A4A"/>
<path d="M10.2244 4.80009H8.81534C8.73201 4.39479 8.58617 4.03873 8.37784 3.73191C8.1733 3.42509 7.9233 3.16752 7.62784 2.95918C7.33617 2.74706 7.01231 2.58797 6.65625 2.48191C6.30019 2.37585 5.92898 2.32282 5.54261 2.32282C4.83807 2.32282 4.19981 2.50085 3.62784 2.85691C3.05966 3.21297 2.60701 3.73759 2.26989 4.43078C1.93655 5.12396 1.76989 5.97434 1.76989 6.98191C1.76989 7.98949 1.93655 8.83987 2.26989 9.53305C2.60701 10.2262 3.05966 10.7509 3.62784 11.1069C4.19981 11.463 4.83807 11.641 5.54261 11.641C5.92898 11.641 6.30019 11.588 6.65625 11.4819C7.01231 11.3759 7.33617 11.2187 7.62784 11.0103C7.9233 10.7982 8.1733 10.5387 8.37784 10.2319C8.58617 9.92131 8.73201 9.56524 8.81534 9.16373H10.2244C10.1184 9.75843 9.92519 10.2906 9.64489 10.7603C9.36458 11.23 9.0161 11.6296 8.59943 11.9592C8.18277 12.2849 7.71496 12.533 7.19602 12.7035C6.68087 12.874 6.12973 12.9592 5.54261 12.9592C4.55019 12.9592 3.66761 12.7168 2.89489 12.2319C2.12216 11.7471 1.5142 11.0577 1.07102 10.1637C0.627841 9.26979 0.40625 8.20918 0.40625 6.98191C0.40625 5.75464 0.627841 4.69403 1.07102 3.80009C1.5142 2.90615 2.12216 2.21676 2.89489 1.73191C3.66761 1.24706 4.55019 1.00464 5.54261 1.00464C6.12973 1.00464 6.68087 1.08987 7.19602 1.26032C7.71496 1.43078 8.18277 1.68078 8.59943 2.01032C9.0161 2.33608 9.36458 2.73381 9.64489 3.2035C9.92519 3.66941 10.1184 4.20161 10.2244 4.80009Z" fill="#1C1A4A"/>
</svg>
