<svg width="284" height="51" viewBox="0 0 284 51" fill="none" xmlns="http://www.w3.org/2000/svg">
<rect x="0.5" y="1.30005" width="283" height="49" rx="4.5" fill="white"/>
<rect x="0.5" y="1.30005" width="283" height="49" rx="4.5" stroke="#E1E1E1"/>
<g opacity="0.8">
<path d="M98.6697 31.9818C97.8288 31.9818 97.1035 31.7962 96.4936 31.425C95.8875 31.05 95.4197 30.5273 95.0902 29.8568C94.7644 29.1826 94.6016 28.3985 94.6016 27.5046C94.6016 26.6106 94.7644 25.8227 95.0902 25.1409C95.4197 24.4553 95.8781 23.9212 96.4652 23.5387C97.0561 23.1523 97.7455 22.9591 98.5334 22.9591C98.9879 22.9591 99.4368 23.0349 99.88 23.1864C100.323 23.3379 100.727 23.5841 101.09 23.925C101.454 24.2621 101.744 24.7091 101.96 25.2659C102.175 25.8227 102.283 26.5083 102.283 27.3227V27.8909H95.5561V26.7318H100.92C100.92 26.2394 100.821 25.8 100.624 25.4137C100.431 25.0273 100.155 24.7224 99.7947 24.4989C99.4387 24.2754 99.0182 24.1637 98.5334 24.1637C97.9993 24.1637 97.5372 24.2962 97.147 24.5614C96.7607 24.8227 96.4633 25.1637 96.255 25.5841C96.0466 26.0046 95.9425 26.4553 95.9425 26.9364V27.7091C95.9425 28.3682 96.0561 28.9269 96.2834 29.3852C96.5144 29.8398 96.8345 30.1864 97.2436 30.425C97.6527 30.6599 98.1281 30.7773 98.6697 30.7773C99.022 30.7773 99.3402 30.728 99.6243 30.6296C99.9122 30.5273 100.16 30.3758 100.369 30.175C100.577 29.9705 100.738 29.7167 100.852 29.4137L102.147 29.7773C102.011 30.2167 101.781 30.603 101.46 30.9364C101.138 31.2659 100.74 31.5235 100.266 31.7091C99.7929 31.8909 99.2607 31.9818 98.6697 31.9818Z" fill="#6D6C80"/>
<path d="M81.1016 31.8V23.0727H82.397V24.4364H82.5107C82.6925 23.9705 82.986 23.6087 83.3913 23.3512C83.7966 23.0898 84.2834 22.9591 84.8516 22.9591C85.4273 22.9591 85.9065 23.0898 86.2891 23.3512C86.6754 23.6087 86.9766 23.9705 87.1925 24.4364H87.2834C87.5069 23.9856 87.8421 23.6277 88.2891 23.3625C88.736 23.0936 89.272 22.9591 89.897 22.9591C90.6773 22.9591 91.3156 23.2034 91.8118 23.6921C92.308 24.1769 92.5561 24.9326 92.5561 25.9591V31.8H91.2152V25.9591C91.2152 25.3152 91.0391 24.8549 90.6868 24.5784C90.3345 24.3019 89.9197 24.1637 89.4425 24.1637C88.8288 24.1637 88.3535 24.3493 88.0163 24.7205C87.6792 25.0879 87.5107 25.5538 87.5107 26.1182V31.8H86.147V25.8227C86.147 25.3265 85.986 24.9269 85.6641 24.6239C85.3421 24.3171 84.9273 24.1637 84.4197 24.1637C84.0713 24.1637 83.7455 24.2565 83.4425 24.4421C83.1432 24.6277 82.9008 24.8852 82.7152 25.2148C82.5334 25.5405 82.4425 25.9174 82.4425 26.3455V31.8H81.1016Z" fill="#6D6C80"/>
<path d="M74.657 32.0046C74.1039 32.0046 73.602 31.9004 73.1513 31.6921C72.7005 31.4799 72.3426 31.175 72.0774 30.7773C71.8123 30.3758 71.6797 29.8909 71.6797 29.3227C71.6797 28.8227 71.7782 28.4174 71.9751 28.1068C72.1721 27.7924 72.4354 27.5462 72.7649 27.3682C73.0945 27.1902 73.4581 27.0576 73.8558 26.9705C74.2573 26.8796 74.6607 26.8076 75.0661 26.7546C75.5964 26.6864 76.0263 26.6352 76.3558 26.6012C76.6892 26.5633 76.9316 26.5008 77.0831 26.4137C77.2384 26.3265 77.3161 26.175 77.3161 25.9591V25.9137C77.3161 25.353 77.1626 24.9174 76.8558 24.6068C76.5528 24.2962 76.0926 24.1409 75.4751 24.1409C74.835 24.1409 74.3331 24.2811 73.9695 24.5614C73.6058 24.8417 73.3501 25.1409 73.2024 25.4591L71.9297 25.0046C72.157 24.4743 72.46 24.0614 72.8388 23.7659C73.2214 23.4667 73.638 23.2583 74.0888 23.1409C74.5433 23.0197 74.9903 22.9591 75.4297 22.9591C75.71 22.9591 76.032 22.9932 76.3956 23.0614C76.763 23.1258 77.1172 23.2602 77.4581 23.4648C77.8028 23.6693 78.0888 23.978 78.3161 24.3909C78.5433 24.8038 78.657 25.3568 78.657 26.05V31.8H77.3161V30.6182H77.2479C77.157 30.8076 77.0054 31.0102 76.7933 31.2262C76.5812 31.4421 76.299 31.6258 75.9467 31.7773C75.5945 31.9288 75.1645 32.0046 74.657 32.0046ZM74.8615 30.8C75.3918 30.8 75.8388 30.6958 76.2024 30.4875C76.5698 30.2792 76.8464 30.0102 77.032 29.6807C77.2214 29.3512 77.3161 29.0046 77.3161 28.6409V27.4137C77.2592 27.4818 77.1342 27.5443 76.9411 27.6012C76.7517 27.6542 76.532 27.7015 76.282 27.7432C76.0358 27.7811 75.7952 27.8152 75.5604 27.8455C75.3293 27.872 75.1418 27.8947 74.9979 27.9137C74.6494 27.9591 74.3236 28.033 74.0206 28.1352C73.7214 28.2337 73.4789 28.3833 73.2933 28.5841C73.1115 28.7811 73.0206 29.05 73.0206 29.3909C73.0206 29.8568 73.1929 30.2091 73.5376 30.4477C73.8861 30.6826 74.3274 30.8 74.8615 30.8Z" fill="#6D6C80"/>
<path d="M69.4499 20.1637V31.8001H68.0863L61.7454 22.6637H61.6317V31.8001H60.2227V20.1637H61.5863L67.9499 29.3228H68.0636V20.1637H69.4499Z" fill="#6D6C80"/>
<path d="M53.5227 23.0727V24.2091H49V23.0727H53.5227ZM50.3182 20.9818H51.6591V29.3C51.6591 29.6788 51.714 29.9629 51.8239 30.1523C51.9375 30.3379 52.0814 30.4629 52.2557 30.5273C52.4337 30.5879 52.6212 30.6182 52.8182 30.6182C52.9659 30.6182 53.0871 30.6106 53.1818 30.5954C53.2765 30.5765 53.3523 30.5614 53.4091 30.55L53.6818 31.7545C53.5909 31.7886 53.464 31.8227 53.3011 31.8568C53.1383 31.8947 52.9318 31.9136 52.6818 31.9136C52.303 31.9136 51.9318 31.8322 51.5682 31.6693C51.2083 31.5064 50.9091 31.2583 50.6705 30.925C50.4356 30.5917 50.3182 30.1712 50.3182 29.6636V20.9818Z" fill="#6D6C80"/>
<path d="M47.5526 25.0273L46.348 25.3682C46.2723 25.1674 46.1605 24.9724 46.0128 24.783C45.8688 24.5898 45.6719 24.4307 45.4219 24.3057C45.1719 24.1807 44.8518 24.1182 44.4616 24.1182C43.9276 24.1182 43.4825 24.2413 43.1264 24.4875C42.7741 24.7299 42.598 25.0387 42.598 25.4137C42.598 25.747 42.7192 26.0102 42.9616 26.2034C43.2041 26.3966 43.5829 26.5576 44.098 26.6864L45.3935 27.0046C46.1738 27.194 46.7552 27.4837 47.1378 27.8739C47.5204 28.2602 47.7116 28.7583 47.7116 29.3682C47.7116 29.8682 47.5677 30.3152 47.2798 30.7091C46.9957 31.103 46.598 31.4137 46.0866 31.6409C45.5753 31.8682 44.9806 31.9818 44.3026 31.9818C43.4124 31.9818 42.6757 31.7887 42.0923 31.4023C41.509 31.0159 41.1397 30.4515 40.9844 29.7091L42.2571 29.3909C42.3783 29.8606 42.6075 30.2129 42.9446 30.4477C43.2855 30.6826 43.7306 30.8 44.2798 30.8C44.9048 30.8 45.401 30.6674 45.7685 30.4023C46.1397 30.1333 46.3253 29.8114 46.3253 29.4364C46.3253 29.1333 46.2192 28.8796 46.0071 28.675C45.795 28.4667 45.4692 28.3114 45.0298 28.2091L43.5753 27.8682C42.776 27.6788 42.1889 27.3852 41.8139 26.9875C41.4427 26.586 41.2571 26.0841 41.2571 25.4818C41.2571 24.9894 41.3954 24.5538 41.6719 24.175C41.9522 23.7962 42.3329 23.4989 42.8139 23.283C43.2988 23.0671 43.848 22.9591 44.4616 22.9591C45.3253 22.9591 46.0033 23.1485 46.4957 23.5273C46.9919 23.9061 47.3442 24.4061 47.5526 25.0273Z" fill="#6D6C80"/>
<path d="M35.4141 31.8V23.0728H36.7095V24.3909H36.8004C36.9595 23.9591 37.2474 23.6088 37.6641 23.3398C38.0807 23.0709 38.5504 22.9364 39.0732 22.9364C39.1716 22.9364 39.2947 22.9383 39.4425 22.9421C39.5902 22.9459 39.7019 22.9516 39.7777 22.9591V24.3228C39.7322 24.3114 39.6281 24.2944 39.4652 24.2716C39.3061 24.2451 39.1375 24.2319 38.9595 24.2319C38.5353 24.2319 38.1565 24.3209 37.8232 24.4989C37.4936 24.6731 37.2322 24.9156 37.0391 25.2262C36.8497 25.533 36.755 25.8834 36.755 26.2773V31.8H35.4141Z" fill="#6D6C80"/>
<path d="M31.6204 31.8V23.0728H32.9613V31.8H31.6204ZM32.3022 21.6182C32.0408 21.6182 31.8155 21.5292 31.6261 21.3512C31.4405 21.1732 31.3477 20.9591 31.3477 20.7091C31.3477 20.4591 31.4405 20.2451 31.6261 20.0671C31.8155 19.8891 32.0408 19.8 32.3022 19.8C32.5636 19.8 32.7871 19.8891 32.9727 20.0671C33.1621 20.2451 33.2567 20.4591 33.2567 20.7091C33.2567 20.9591 33.1621 21.1732 32.9727 21.3512C32.7871 21.5292 32.5636 21.6182 32.3022 21.6182Z" fill="#6D6C80"/>
<path d="M22.4102 31.8001V20.1637H29.3874V21.4137H23.8192V25.3455H28.8647V26.5955H23.8192V31.8001H22.4102Z" fill="#6D6C80"/>
</g>
</svg>
