<svg width="89" height="14" viewBox="0 0 89 14" fill="none" xmlns="http://www.w3.org/2000/svg">
<path d="M83.7099 13.9918C82.7255 13.9918 81.8754 13.7872 81.1594 13.3782C80.4478 12.9648 79.9002 12.381 79.5167 11.6267C79.1332 10.8682 78.9414 9.97545 78.9414 8.94846C78.9414 7.93852 79.1332 7.05216 79.5167 6.28937C79.9045 5.52233 80.4457 4.92574 81.1403 4.4996C81.8349 4.0692 82.6509 3.854 83.5884 3.854C84.1935 3.854 84.7646 3.95202 85.3015 4.14804C85.8427 4.3398 86.32 4.63809 86.7333 5.04292C87.1509 5.44775 87.4791 5.96338 87.7177 6.5898C87.9563 7.21196 88.0756 7.95343 88.0756 8.81423V9.52375H80.0281V7.96409H85.8576C85.8533 7.52091 85.7575 7.12673 85.57 6.78156C85.3825 6.43213 85.1204 6.15727 84.7837 5.95699C84.4514 5.7567 84.0636 5.65656 83.6204 5.65656C83.1474 5.65656 82.7319 5.77162 82.3739 6.00173C82.016 6.22758 81.7369 6.52588 81.5366 6.89662C81.3406 7.26309 81.2404 7.66579 81.2362 8.10471V9.46622C81.2362 10.0372 81.3406 10.5273 81.5494 10.9364C81.7582 11.3412 82.0501 11.6523 82.4251 11.8696C82.8001 12.0827 83.239 12.1892 83.7418 12.1892C84.0785 12.1892 84.3832 12.1424 84.6559 12.0486C84.9286 11.9506 85.1651 11.8078 85.3654 11.6203C85.5657 11.4328 85.717 11.2006 85.8193 10.9236L87.9798 11.1665C87.8434 11.7375 87.5835 12.2361 87.1999 12.6622C86.8207 13.0841 86.3349 13.4122 85.7425 13.6466C85.1502 13.8767 84.4727 13.9918 83.7099 13.9918Z" fill="#161439"/>
<path d="M63.207 13.8V3.98184H65.4187V5.65017H65.5337C65.7383 5.08767 66.0771 4.64875 66.5501 4.33341C67.0231 4.0138 67.5877 3.854 68.244 3.854C68.9087 3.854 69.4691 4.01594 69.9251 4.3398C70.3853 4.6594 70.7092 5.09619 70.8967 5.65017H70.9989C71.2163 5.10471 71.5827 4.67005 72.0984 4.34619C72.6183 4.01807 73.234 3.854 73.9457 3.854C74.8491 3.854 75.5863 4.13952 76.1573 4.71054C76.7283 5.28156 77.0139 6.11466 77.0139 7.20983V13.8H74.6935V7.56778C74.6935 6.95841 74.5316 6.51309 74.2077 6.23184C73.8839 5.94633 73.4876 5.80358 73.0188 5.80358C72.4606 5.80358 72.0238 5.97829 71.7085 6.32772C71.3974 6.6729 71.2418 7.12247 71.2418 7.67645V13.8H68.9727V7.4719C68.9727 6.9648 68.8192 6.55997 68.5124 6.25741C68.2099 5.95486 67.8136 5.80358 67.3235 5.80358C66.9911 5.80358 66.6886 5.8888 66.4158 6.05926C66.1431 6.22545 65.9258 6.46196 65.7638 6.76878C65.6019 7.07133 65.521 7.42503 65.521 7.82986V13.8H63.207Z" fill="#161439"/>
<path d="M55.6996 13.9982C55.0774 13.9982 54.517 13.8874 54.0185 13.6658C53.5241 13.4399 53.1321 13.1076 52.8423 12.6686C52.5568 12.2297 52.4141 11.6885 52.4141 11.0451C52.4141 10.4911 52.5163 10.033 52.7209 9.67076C52.9254 9.30855 53.2045 9.01878 53.5582 8.80145C53.9119 8.58412 54.3104 8.42005 54.7535 8.30926C55.201 8.1942 55.6634 8.11111 56.1406 8.05997C56.7159 8.00031 57.1825 7.94704 57.5405 7.90017C57.8984 7.84903 58.1584 7.77233 58.3203 7.67005C58.4865 7.56352 58.5696 7.39946 58.5696 7.17787V7.13952C58.5696 6.65798 58.4268 6.28511 58.1413 6.02091C57.8558 5.7567 57.4446 5.6246 56.9077 5.6246C56.3409 5.6246 55.8913 5.74818 55.5589 5.99534C55.2308 6.2425 55.0092 6.5344 54.8942 6.87105L52.7337 6.56423C52.9041 5.96764 53.1854 5.46906 53.5774 5.06849C53.9695 4.66366 54.4489 4.36111 55.0156 4.16082C55.5824 3.95628 56.2088 3.854 56.8949 3.854C57.3679 3.854 57.8388 3.9094 58.3075 4.0202C58.7763 4.13099 59.2045 4.31423 59.5923 4.56991C59.9801 4.82133 60.2912 5.16437 60.5256 5.59903C60.7642 6.03369 60.8835 6.57701 60.8835 7.229V13.8H58.6591V12.4513H58.5824C58.4418 12.724 58.2436 12.9797 57.9879 13.2183C57.7365 13.4527 57.419 13.6424 57.0355 13.7872C56.6562 13.9279 56.2109 13.9982 55.6996 13.9982ZM56.3004 12.2979C56.7649 12.2979 57.1676 12.2063 57.5085 12.023C57.8494 11.8355 58.1115 11.5884 58.2947 11.2816C58.4822 10.9747 58.576 10.6402 58.576 10.278V9.12105C58.5035 9.18071 58.38 9.23611 58.2053 9.28724C58.0348 9.33838 57.843 9.38312 57.63 9.42147C57.4169 9.45983 57.206 9.49392 56.9972 9.52375C56.7884 9.55358 56.6072 9.57915 56.4538 9.60045C56.1087 9.64733 55.7997 9.72403 55.527 9.83057C55.2543 9.9371 55.0391 10.0862 54.8814 10.278C54.7237 10.4655 54.6449 10.7084 54.6449 11.0067C54.6449 11.4328 54.8004 11.7546 55.1115 11.9719C55.4226 12.1892 55.8189 12.2979 56.3004 12.2979Z" fill="#161439"/>
<path d="M44.2163 8.04719V13.8H41.9023V3.98184H44.114V5.65017H44.229C44.4549 5.10045 44.815 4.66366 45.3093 4.3398C45.8079 4.01594 46.4237 3.854 47.1566 3.854C47.8342 3.854 48.4244 3.99889 48.9272 4.28866C49.4343 4.57844 49.8264 4.99818 50.1033 5.5479C50.3846 6.09761 50.5231 6.76451 50.5188 7.54861V13.8H48.2049V7.90656C48.2049 7.25031 48.0344 6.73682 47.6935 6.36608C47.3569 5.99534 46.8903 5.80997 46.2937 5.80997C45.8889 5.80997 45.5288 5.89946 45.2134 6.07844C44.9023 6.25315 44.6573 6.5067 44.4783 6.83909C44.3036 7.17147 44.2163 7.57417 44.2163 8.04719Z" fill="#161439"/>
<path d="M35.5036 3.98191V5.77168H29.8594V3.98191H35.5036ZM31.2528 1.62964H33.5668V10.847C33.5668 11.158 33.6136 11.3967 33.7074 11.5629C33.8054 11.7248 33.9332 11.8356 34.0909 11.8953C34.2486 11.9549 34.4233 11.9848 34.6151 11.9848C34.7599 11.9848 34.892 11.9741 35.0114 11.9528C35.1349 11.9315 35.2287 11.9123 35.2926 11.8953L35.6825 13.7042C35.5589 13.7468 35.3821 13.7937 35.152 13.8448C34.9261 13.896 34.6491 13.9258 34.321 13.9343C33.7415 13.9514 33.2195 13.864 32.755 13.6723C32.2905 13.4762 31.9219 13.1737 31.6491 12.7646C31.3807 12.3555 31.2486 11.8441 31.2528 11.2305V1.62964Z" fill="#161439"/>
<path d="M28.4837 6.57702L26.3743 6.80713C26.3146 6.59406 26.2102 6.39378 26.0611 6.20628C25.9162 6.01878 25.7202 5.8675 25.473 5.75244C25.2259 5.63738 24.9233 5.57986 24.5653 5.57986C24.0838 5.57986 23.679 5.68426 23.3509 5.89307C23.027 6.10187 22.8672 6.37247 22.8714 6.70486C22.8672 6.99037 22.9716 7.22261 23.1847 7.40159C23.402 7.58057 23.7599 7.72758 24.2585 7.84264L25.9332 8.20059C26.8622 8.40088 27.5526 8.71835 28.0043 9.15301C28.4602 9.58767 28.6903 10.1566 28.6946 10.8597C28.6903 11.4776 28.5092 12.023 28.1513 12.496C27.7976 12.9648 27.3054 13.3313 26.6747 13.5955C26.044 13.8597 25.3196 13.9918 24.5014 13.9918C23.2997 13.9918 22.3324 13.7404 21.5994 13.2375C20.8665 12.7304 20.4297 12.0252 20.2891 11.1218L22.5455 10.9044C22.6477 11.3476 22.8651 11.6821 23.1974 11.908C23.5298 12.1338 23.9624 12.2468 24.495 12.2468C25.0447 12.2468 25.4858 12.1338 25.8182 11.908C26.1548 11.6821 26.3232 11.403 26.3232 11.0706C26.3232 10.7894 26.2145 10.5571 25.9972 10.3739C25.7841 10.1907 25.4517 10.05 25 9.95201L23.3253 9.60045C22.3835 9.40443 21.6868 9.07417 21.2351 8.60969C20.7834 8.14094 20.5597 7.54861 20.5639 6.8327C20.5597 6.22758 20.7237 5.70344 21.0561 5.26025C21.3928 4.81281 21.8594 4.46764 22.456 4.22474C23.0568 3.97758 23.7493 3.854 24.5334 3.854C25.6839 3.854 26.5895 4.09903 27.25 4.58909C27.9148 5.07915 28.326 5.74179 28.4837 6.57702Z" fill="#161439"/>
<path d="M13.2113 13.9982C12.5891 13.9982 12.0288 13.8874 11.5302 13.6658C11.0359 13.4399 10.6438 13.1076 10.354 12.6686C10.0685 12.2297 9.92578 11.6885 9.92578 11.0451C9.92578 10.4911 10.0281 10.033 10.2326 9.67076C10.4371 9.30855 10.7163 9.01878 11.07 8.80145C11.4237 8.58412 11.8221 8.42005 12.2653 8.30926C12.7127 8.1942 13.1751 8.11111 13.6523 8.05997C14.2276 8.00031 14.6942 7.94704 15.0522 7.90017C15.4102 7.84903 15.6701 7.77233 15.832 7.67005C15.9982 7.56352 16.0813 7.39946 16.0813 7.17787V7.13952C16.0813 6.65798 15.9386 6.28511 15.6531 6.02091C15.3675 5.7567 14.9563 5.6246 14.4194 5.6246C13.8526 5.6246 13.4031 5.74818 13.0707 5.99534C12.7425 6.2425 12.521 6.5344 12.4059 6.87105L10.2454 6.56423C10.4158 5.96764 10.6971 5.46906 11.0891 5.06849C11.4812 4.66366 11.9606 4.36111 12.5273 4.16082C13.0941 3.95628 13.7205 3.854 14.4066 3.854C14.8796 3.854 15.3505 3.9094 15.8192 4.0202C16.288 4.13099 16.7163 4.31423 17.104 4.56991C17.4918 4.82133 17.8029 5.16437 18.0373 5.59903C18.2759 6.03369 18.3952 6.57701 18.3952 7.229V13.8H16.1708V12.4513H16.0941C15.9535 12.724 15.7553 12.9797 15.4996 13.2183C15.2482 13.4527 14.9308 13.6424 14.5472 13.7872C14.168 13.9279 13.7227 13.9982 13.2113 13.9982ZM13.8121 12.2979C14.2766 12.2979 14.6793 12.2063 15.0202 12.023C15.3612 11.8355 15.6232 11.5884 15.8065 11.2816C15.994 10.9747 16.0877 10.6402 16.0877 10.278V9.12105C16.0153 9.18071 15.8917 9.23611 15.717 9.28724C15.5465 9.33838 15.3548 9.38312 15.1417 9.42147C14.9286 9.45983 14.7177 9.49392 14.5089 9.52375C14.3001 9.55358 14.119 9.57915 13.9656 9.60045C13.6204 9.64733 13.3114 9.72403 13.0387 9.83057C12.766 9.9371 12.5508 10.0862 12.3931 10.278C12.2354 10.4655 12.1566 10.7084 12.1566 11.0067C12.1566 11.4328 12.3121 11.7546 12.6232 11.9719C12.9343 12.1892 13.3306 12.2979 13.8121 12.2979Z" fill="#161439"/>
<path d="M0.292969 13.8V0.709106H2.66442V11.8121H8.43004V13.8H0.292969Z" fill="#161439"/>
</svg>
