<svg width="284" height="51" viewBox="0 0 284 51" fill="none" xmlns="http://www.w3.org/2000/svg">
<rect x="0.5" y="1.30005" width="283" height="49" rx="4.5" fill="white"/>
<rect x="0.5" y="1.30005" width="283" height="49" rx="4.5" stroke="#E1E1E1"/>
<g opacity="0.8">
<path d="M97.5447 31.9818C96.7038 31.9818 95.9785 31.7962 95.3686 31.425C94.7625 31.05 94.2947 30.5273 93.9652 29.8568C93.6394 29.1826 93.4766 28.3985 93.4766 27.5046C93.4766 26.6106 93.6394 25.8227 93.9652 25.1409C94.2947 24.4553 94.7531 23.9212 95.3402 23.5387C95.9311 23.1523 96.6205 22.9591 97.4084 22.9591C97.8629 22.9591 98.3118 23.0349 98.755 23.1864C99.1981 23.3379 99.6016 23.5841 99.9652 23.925C100.329 24.2621 100.619 24.7091 100.835 25.2659C101.05 25.8227 101.158 26.5083 101.158 27.3227V27.8909H94.4311V26.7318H99.7947C99.7947 26.2394 99.6963 25.8 99.4993 25.4137C99.3061 25.0273 99.0296 24.7224 98.6697 24.4989C98.3137 24.2754 97.8932 24.1637 97.4084 24.1637C96.8743 24.1637 96.4122 24.2962 96.022 24.5614C95.6357 24.8227 95.3383 25.1637 95.13 25.5841C94.9216 26.0046 94.8175 26.4553 94.8175 26.9364V27.7091C94.8175 28.3682 94.9311 28.9269 95.1584 29.3852C95.3894 29.8398 95.7095 30.1864 96.1186 30.425C96.5277 30.6599 97.0031 30.7773 97.5447 30.7773C97.897 30.7773 98.2152 30.728 98.4993 30.6296C98.7872 30.5273 99.0353 30.3758 99.2436 30.175C99.4519 29.9705 99.6129 29.7167 99.7266 29.4137L101.022 29.7773C100.886 30.2167 100.656 30.603 100.335 30.9364C100.013 31.2659 99.6148 31.5235 99.1413 31.7091C98.6679 31.8909 98.1357 31.9818 97.5447 31.9818Z" fill="#6D6C80"/>
<path d="M79.9766 31.8V23.0727H81.272V24.4364H81.3857C81.5675 23.9705 81.861 23.6087 82.2663 23.3512C82.6716 23.0898 83.1584 22.9591 83.7266 22.9591C84.3023 22.9591 84.7815 23.0898 85.1641 23.3512C85.5504 23.6087 85.8516 23.9705 86.0675 24.4364H86.1584C86.3819 23.9856 86.7171 23.6277 87.1641 23.3625C87.611 23.0936 88.147 22.9591 88.772 22.9591C89.5523 22.9591 90.1906 23.2034 90.6868 23.6921C91.183 24.1769 91.4311 24.9326 91.4311 25.9591V31.8H90.0902V25.9591C90.0902 25.3152 89.9141 24.8549 89.5618 24.5784C89.2095 24.3019 88.7947 24.1637 88.3175 24.1637C87.7038 24.1637 87.2285 24.3493 86.8913 24.7205C86.5542 25.0879 86.3857 25.5538 86.3857 26.1182V31.8H85.022V25.8227C85.022 25.3265 84.861 24.9269 84.5391 24.6239C84.2171 24.3171 83.8023 24.1637 83.2947 24.1637C82.9463 24.1637 82.6205 24.2565 82.3175 24.4421C82.0182 24.6277 81.7758 24.8852 81.5902 25.2148C81.4084 25.5405 81.3175 25.9174 81.3175 26.3455V31.8H79.9766Z" fill="#6D6C80"/>
<path d="M73.532 32.0046C72.9789 32.0046 72.477 31.9004 72.0263 31.6921C71.5755 31.4799 71.2176 31.175 70.9524 30.7773C70.6873 30.3758 70.5547 29.8909 70.5547 29.3227C70.5547 28.8227 70.6532 28.4174 70.8501 28.1068C71.0471 27.7924 71.3104 27.5462 71.6399 27.3682C71.9695 27.1902 72.3331 27.0576 72.7308 26.9705C73.1323 26.8796 73.5357 26.8076 73.9411 26.7546C74.4714 26.6864 74.9013 26.6352 75.2308 26.6012C75.5642 26.5633 75.8066 26.5008 75.9581 26.4137C76.1134 26.3265 76.1911 26.175 76.1911 25.9591V25.9137C76.1911 25.353 76.0376 24.9174 75.7308 24.6068C75.4278 24.2962 74.9676 24.1409 74.3501 24.1409C73.71 24.1409 73.2081 24.2811 72.8445 24.5614C72.4808 24.8417 72.2251 25.1409 72.0774 25.4591L70.8047 25.0046C71.032 24.4743 71.335 24.0614 71.7138 23.7659C72.0964 23.4667 72.513 23.2583 72.9638 23.1409C73.4183 23.0197 73.8653 22.9591 74.3047 22.9591C74.585 22.9591 74.907 22.9932 75.2706 23.0614C75.638 23.1258 75.9922 23.2602 76.3331 23.4648C76.6778 23.6693 76.9638 23.978 77.1911 24.3909C77.4183 24.8038 77.532 25.3568 77.532 26.05V31.8H76.1911V30.6182H76.1229C76.032 30.8076 75.8804 31.0102 75.6683 31.2262C75.4562 31.4421 75.174 31.6258 74.8217 31.7773C74.4695 31.9288 74.0395 32.0046 73.532 32.0046ZM73.7365 30.8C74.2668 30.8 74.7138 30.6958 75.0774 30.4875C75.4448 30.2792 75.7214 30.0102 75.907 29.6807C76.0964 29.3512 76.1911 29.0046 76.1911 28.6409V27.4137C76.1342 27.4818 76.0092 27.5443 75.8161 27.6012C75.6267 27.6542 75.407 27.7015 75.157 27.7432C74.9108 27.7811 74.6702 27.8152 74.4354 27.8455C74.2043 27.872 74.0168 27.8947 73.8729 27.9137C73.5244 27.9591 73.1986 28.033 72.8956 28.1352C72.5964 28.2337 72.3539 28.3833 72.1683 28.5841C71.9865 28.7811 71.8956 29.05 71.8956 29.3909C71.8956 29.8568 72.0679 30.2091 72.4126 30.4477C72.7611 30.6826 73.2024 30.8 73.7365 30.8Z" fill="#6D6C80"/>
<path d="M68.3249 20.1637V31.8001H66.9613L60.6204 22.6637H60.5067V31.8001H59.0977V20.1637H60.4613L66.8249 29.3228H66.9386V20.1637H68.3249Z" fill="#6D6C80"/>
<path d="M52.3977 23.0728V24.2092H47.875V23.0728H52.3977ZM49.1932 20.9819H50.5341V29.3001C50.5341 29.6789 50.589 29.963 50.6989 30.1524C50.8125 30.338 50.9564 30.463 51.1307 30.5274C51.3087 30.588 51.4962 30.6183 51.6932 30.6183C51.8409 30.6183 51.9621 30.6107 52.0568 30.5956C52.1515 30.5766 52.2273 30.5615 52.2841 30.5501L52.5568 31.7547C52.4659 31.7888 52.339 31.8228 52.1761 31.8569C52.0133 31.8948 51.8068 31.9138 51.5568 31.9138C51.178 31.9138 50.8068 31.8323 50.4432 31.6694C50.0833 31.5066 49.7841 31.2584 49.5455 30.9251C49.3106 30.5918 49.1932 30.1713 49.1932 29.6638V20.9819Z" fill="#6D6C80"/>
<path d="M46.4276 25.0273L45.223 25.3682C45.1473 25.1674 45.0355 24.9724 44.8878 24.783C44.7438 24.5898 44.5469 24.4307 44.2969 24.3057C44.0469 24.1807 43.7268 24.1182 43.3366 24.1182C42.8026 24.1182 42.3575 24.2413 42.0014 24.4875C41.6491 24.7299 41.473 25.0387 41.473 25.4137C41.473 25.747 41.5942 26.0102 41.8366 26.2034C42.0791 26.3966 42.4579 26.5576 42.973 26.6864L44.2685 27.0046C45.0488 27.194 45.6302 27.4837 46.0128 27.8739C46.3954 28.2602 46.5866 28.7583 46.5866 29.3682C46.5866 29.8682 46.4427 30.3152 46.1548 30.7091C45.8707 31.103 45.473 31.4137 44.9616 31.6409C44.4503 31.8682 43.8556 31.9818 43.1776 31.9818C42.2874 31.9818 41.5507 31.7887 40.9673 31.4023C40.384 31.0159 40.0147 30.4515 39.8594 29.7091L41.1321 29.3909C41.2533 29.8606 41.4825 30.2129 41.8196 30.4477C42.1605 30.6826 42.6056 30.8 43.1548 30.8C43.7798 30.8 44.276 30.6674 44.6435 30.4023C45.0147 30.1333 45.2003 29.8114 45.2003 29.4364C45.2003 29.1333 45.0942 28.8796 44.8821 28.675C44.67 28.4667 44.3442 28.3114 43.9048 28.2091L42.4503 27.8682C41.651 27.6788 41.0639 27.3852 40.6889 26.9875C40.3177 26.586 40.1321 26.0841 40.1321 25.4818C40.1321 24.9894 40.2704 24.5538 40.5469 24.175C40.8272 23.7962 41.2079 23.4989 41.6889 23.283C42.1738 23.0671 42.723 22.9591 43.3366 22.9591C44.2003 22.9591 44.8783 23.1485 45.3707 23.5273C45.8669 23.9061 46.2192 24.4061 46.4276 25.0273Z" fill="#6D6C80"/>
<path d="M33.7976 32.0046C33.2446 32.0046 32.7427 31.9004 32.2919 31.6921C31.8411 31.4799 31.4832 31.175 31.218 30.7773C30.9529 30.3758 30.8203 29.8909 30.8203 29.3227C30.8203 28.8227 30.9188 28.4174 31.1158 28.1068C31.3127 27.7924 31.576 27.5462 31.9055 27.3682C32.2351 27.1902 32.5987 27.0576 32.9964 26.9705C33.398 26.8796 33.8014 26.8076 34.2067 26.7546C34.737 26.6864 35.1669 26.6352 35.4964 26.6012C35.8298 26.5633 36.0722 26.5008 36.2237 26.4137C36.379 26.3265 36.4567 26.175 36.4567 25.9591V25.9137C36.4567 25.353 36.3033 24.9174 35.9964 24.6068C35.6934 24.2962 35.2332 24.1409 34.6158 24.1409C33.9756 24.1409 33.4737 24.2811 33.1101 24.5614C32.7464 24.8417 32.4908 25.1409 32.343 25.4591L31.0703 25.0046C31.2976 24.4743 31.6006 24.0614 31.9794 23.7659C32.362 23.4667 32.7786 23.2583 33.2294 23.1409C33.6839 23.0197 34.1309 22.9591 34.5703 22.9591C34.8506 22.9591 35.1726 22.9932 35.5362 23.0614C35.9036 23.1258 36.2578 23.2602 36.5987 23.4648C36.9434 23.6693 37.2294 23.978 37.4567 24.3909C37.6839 24.8038 37.7976 25.3568 37.7976 26.05V31.8H36.4567V30.6182H36.3885C36.2976 30.8076 36.1461 31.0102 35.9339 31.2262C35.7218 31.4421 35.4396 31.6258 35.0874 31.7773C34.7351 31.9288 34.3052 32.0046 33.7976 32.0046ZM34.0021 30.8C34.5324 30.8 34.9794 30.6958 35.343 30.4875C35.7105 30.2792 35.987 30.0102 36.1726 29.6807C36.362 29.3512 36.4567 29.0046 36.4567 28.6409V27.4137C36.3999 27.4818 36.2749 27.5443 36.0817 27.6012C35.8923 27.6542 35.6726 27.7015 35.4226 27.7432C35.1764 27.7811 34.9358 27.8152 34.701 27.8455C34.4699 27.872 34.2824 27.8947 34.1385 27.9137C33.79 27.9591 33.4643 28.033 33.1612 28.1352C32.862 28.2337 32.6196 28.3833 32.4339 28.5841C32.2521 28.7811 32.1612 29.05 32.1612 29.3909C32.1612 29.8568 32.3336 30.2091 32.6783 30.4477C33.0268 30.6826 33.468 30.8 34.0021 30.8Z" fill="#6D6C80"/>
<path d="M22.4102 31.8001V20.1637H23.8192V30.5501H29.2283V31.8001H22.4102Z" fill="#6D6C80"/>
</g>
</svg>
