<svg width="84" height="14" viewBox="0 0 84 14" fill="none" xmlns="http://www.w3.org/2000/svg">
<path d="M77.804 13.9726C77.0327 13.9726 76.3423 13.7744 75.7329 13.3781C75.1236 12.9818 74.642 12.4065 74.2884 11.6523C73.9347 10.898 73.7578 9.98183 73.7578 8.90371C73.7578 7.8128 73.9368 6.89234 74.2947 6.14234C74.657 5.38808 75.1449 4.81919 75.7585 4.43567C76.3722 4.04789 77.0561 3.85399 77.8104 3.85399C78.3856 3.85399 78.8587 3.952 79.2294 4.14803C79.6001 4.33979 79.8942 4.57203 80.1115 4.84476C80.3288 5.11323 80.4972 5.36678 80.6165 5.60541H80.7124V0.709106H83.0327V13.8H80.7571V12.2531H80.6165C80.4972 12.4918 80.3246 12.7453 80.0987 13.0138C79.8729 13.278 79.5746 13.5039 79.2038 13.6914C78.8331 13.8789 78.3665 13.9726 77.804 13.9726ZM78.4496 12.0742C78.9396 12.0742 79.3572 11.9421 79.7024 11.6779C80.0476 11.4094 80.3097 11.0365 80.4886 10.5592C80.6676 10.082 80.7571 9.52587 80.7571 8.89092C80.7571 8.25598 80.6676 7.70414 80.4886 7.23539C80.3139 6.76664 80.054 6.40229 79.7088 6.14234C79.3679 5.8824 78.9481 5.75243 78.4496 5.75243C77.9339 5.75243 77.5035 5.88666 77.1584 6.15513C76.8132 6.4236 76.5533 6.79433 76.3785 7.26734C76.2038 7.74036 76.1165 8.28155 76.1165 8.89092C76.1165 9.50456 76.2038 10.0521 76.3785 10.5337C76.5575 11.011 76.8196 11.3881 77.1648 11.6651C77.5142 11.9378 77.9425 12.0742 78.4496 12.0742Z" fill="#161439"/>
<path d="M67.4258 13.8V3.98181H69.6694V5.61818H69.7717C69.9506 5.05141 70.2575 4.61462 70.6921 4.30781C71.131 3.99673 71.6318 3.84119 72.1943 3.84119C72.3221 3.84119 72.4648 3.84758 72.6225 3.86036C72.7844 3.86889 72.9187 3.8838 73.0252 3.90511V6.03366C72.9272 5.99957 72.7717 5.96974 72.5586 5.94417C72.3498 5.91434 72.1474 5.89943 71.9513 5.89943C71.5295 5.89943 71.1502 5.99104 70.8136 6.17428C70.4812 6.35326 70.2191 6.60255 70.0273 6.92215C69.8356 7.24176 69.7397 7.61036 69.7397 8.02798V13.8H67.4258Z" fill="#161439"/>
<path d="M60.7592 13.9918C59.8004 13.9918 58.9695 13.7808 58.2663 13.359C57.5632 12.9371 57.0178 12.3469 56.63 11.5884C56.2465 10.8299 56.0547 9.94349 56.0547 8.92929C56.0547 7.91508 56.2465 7.02659 56.63 6.2638C57.0178 5.50102 57.5632 4.90869 58.2663 4.48682C58.9695 4.06494 59.8004 3.854 60.7592 3.854C61.718 3.854 62.549 4.06494 63.2521 4.48682C63.9553 4.90869 64.4986 5.50102 64.8821 6.2638C65.2699 7.02659 65.4638 7.91508 65.4638 8.92929C65.4638 9.94349 65.2699 10.8299 64.8821 11.5884C64.4986 12.3469 63.9553 12.9371 63.2521 13.359C62.549 13.7808 61.718 13.9918 60.7592 13.9918ZM60.772 12.1381C61.2919 12.1381 61.7266 11.9953 62.076 11.7098C62.4254 11.4201 62.6854 11.0323 62.8558 10.5465C63.0305 10.0607 63.1179 9.51949 63.1179 8.9229C63.1179 8.32204 63.0305 7.77872 62.8558 7.29292C62.6854 6.80287 62.4254 6.41295 62.076 6.12318C61.7266 5.83341 61.2919 5.68852 60.772 5.68852C60.2393 5.68852 59.7962 5.83341 59.4425 6.12318C59.093 6.41295 58.831 6.80287 58.6562 7.29292C58.4858 7.77872 58.4006 8.32204 58.4006 8.9229C58.4006 9.51949 58.4858 10.0607 58.6562 10.5465C58.831 11.0323 59.093 11.4201 59.4425 11.7098C59.7962 11.9953 60.2393 12.1381 60.772 12.1381Z" fill="#161439"/>
<path d="M43.7195 13.8L40.9453 3.98181H43.304L45.0298 10.8852H45.1193L46.8835 3.98181H49.2166L50.9808 10.8469H51.0767L52.777 3.98181H55.142L52.3615 13.8H49.9517L48.1108 7.16505H47.9766L46.1357 13.8H43.7195Z" fill="#161439"/>
<path d="M39.5735 6.57702L37.4641 6.80713C37.4045 6.59406 37.3001 6.39378 37.1509 6.20628C37.006 6.01878 36.81 5.8675 36.5629 5.75244C36.3157 5.63738 36.0131 5.57986 35.6552 5.57986C35.1737 5.57986 34.7688 5.68426 34.4407 5.89307C34.1168 6.10187 33.957 6.37247 33.9613 6.70486C33.957 6.99037 34.0614 7.22261 34.2745 7.40159C34.4918 7.58057 34.8498 7.72758 35.3484 7.84264L37.0231 8.20059C37.9521 8.40088 38.6424 8.71835 39.0941 9.15301C39.5501 9.58767 39.7802 10.1566 39.7844 10.8597C39.7802 11.4776 39.5991 12.023 39.2411 12.496C38.8874 12.9648 38.3952 13.3313 37.7646 13.5955C37.1339 13.8597 36.4094 13.9918 35.5913 13.9918C34.3896 13.9918 33.4222 13.7404 32.6893 13.2375C31.9563 12.7304 31.5195 12.0252 31.3789 11.1218L33.6353 10.9044C33.7376 11.3476 33.9549 11.6821 34.2873 11.908C34.6197 12.1338 35.0522 12.2468 35.5849 12.2468C36.1346 12.2468 36.5756 12.1338 36.908 11.908C37.2447 11.6821 37.413 11.403 37.413 11.0706C37.413 10.7894 37.3043 10.5571 37.087 10.3739C36.8739 10.1907 36.5415 10.05 36.0898 9.95201L34.4151 9.60045C33.4734 9.40443 32.7766 9.07417 32.3249 8.60969C31.8732 8.14094 31.6495 7.54861 31.6538 6.8327C31.6495 6.22758 31.8136 5.70344 32.146 5.26025C32.4826 4.81281 32.9492 4.46764 33.5458 4.22474C34.1467 3.97758 34.8391 3.854 35.6232 3.854C36.7738 3.854 37.6793 4.09903 38.3398 4.58909C39.0046 5.07915 39.4158 5.74179 39.5735 6.57702Z" fill="#161439"/>
<path d="M29.6946 6.57702L27.5852 6.80713C27.5256 6.59406 27.4212 6.39378 27.272 6.20628C27.1271 6.01878 26.9311 5.8675 26.684 5.75244C26.4368 5.63738 26.1342 5.57986 25.7763 5.57986C25.2947 5.57986 24.8899 5.68426 24.5618 5.89307C24.2379 6.10187 24.0781 6.37247 24.0824 6.70486C24.0781 6.99037 24.1825 7.22261 24.3956 7.40159C24.6129 7.58057 24.9709 7.72758 25.4695 7.84264L27.1442 8.20059C28.0732 8.40088 28.7635 8.71835 29.2152 9.15301C29.6712 9.58767 29.9013 10.1566 29.9055 10.8597C29.9013 11.4776 29.7202 12.023 29.3622 12.496C29.0085 12.9648 28.5163 13.3313 27.8857 13.5955C27.255 13.8597 26.5305 13.9918 25.7124 13.9918C24.5107 13.9918 23.5433 13.7404 22.8104 13.2375C22.0774 12.7304 21.6406 12.0252 21.5 11.1218L23.7564 10.9044C23.8587 11.3476 24.076 11.6821 24.4084 11.908C24.7408 12.1338 25.1733 12.2468 25.706 12.2468C26.2557 12.2468 26.6967 12.1338 27.0291 11.908C27.3658 11.6821 27.5341 11.403 27.5341 11.0706C27.5341 10.7894 27.4254 10.5571 27.2081 10.3739C26.995 10.1907 26.6626 10.05 26.2109 9.95201L24.5362 9.60045C23.5945 9.40443 22.8977 9.07417 22.446 8.60969C21.9943 8.14094 21.7706 7.54861 21.7749 6.8327C21.7706 6.22758 21.9347 5.70344 22.267 5.26025C22.6037 4.81281 23.0703 4.46764 23.6669 4.22474C24.2678 3.97758 24.9602 3.854 25.7443 3.854C26.8949 3.854 27.8004 4.09903 28.4609 4.58909C29.1257 5.07915 29.5369 5.74179 29.6946 6.57702Z" fill="#161439"/>
<path d="M14.4222 13.9982C13.8001 13.9982 13.2397 13.8874 12.7411 13.6658C12.2468 13.4399 11.8548 13.1076 11.565 12.6686C11.2795 12.2297 11.1367 11.6885 11.1367 11.0451C11.1367 10.4911 11.239 10.033 11.4435 9.67076C11.6481 9.30855 11.9272 9.01878 12.2809 8.80145C12.6346 8.58412 13.033 8.42005 13.4762 8.30926C13.9237 8.1942 14.386 8.11111 14.8633 8.05997C15.4386 8.00031 15.9052 7.94704 16.2631 7.90017C16.6211 7.84903 16.881 7.77233 17.043 7.67005C17.2092 7.56352 17.2923 7.39946 17.2923 7.17787V7.13952C17.2923 6.65798 17.1495 6.28511 16.864 6.02091C16.5785 5.7567 16.1673 5.6246 15.6303 5.6246C15.0636 5.6246 14.614 5.74818 14.2816 5.99534C13.9535 6.2425 13.7319 6.5344 13.6168 6.87105L11.4563 6.56423C11.6268 5.96764 11.908 5.46906 12.3001 5.06849C12.6921 4.66366 13.1715 4.36111 13.7383 4.16082C14.305 3.95628 14.9315 3.854 15.6175 3.854C16.0906 3.854 16.5614 3.9094 17.0302 4.0202C17.4989 4.13099 17.9272 4.31423 18.315 4.56991C18.7028 4.82133 19.0138 5.16437 19.2482 5.59903C19.4869 6.03369 19.6062 6.57701 19.6062 7.229V13.8H17.3817V12.4513H17.305C17.1644 12.724 16.9663 12.9797 16.7106 13.2183C16.4592 13.4527 16.1417 13.6424 15.7582 13.7872C15.3789 13.9279 14.9336 13.9982 14.4222 13.9982ZM15.0231 12.2979C15.4876 12.2979 15.8903 12.2063 16.2312 12.023C16.5721 11.8355 16.8342 11.5884 17.0174 11.2816C17.2049 10.9747 17.2987 10.6402 17.2987 10.278V9.12105C17.2262 9.18071 17.1026 9.23611 16.9279 9.28724C16.7575 9.33838 16.5657 9.38312 16.3526 9.42147C16.1396 9.45983 15.9286 9.49392 15.7198 9.52375C15.511 9.55358 15.3299 9.57915 15.1765 9.60045C14.8313 9.64733 14.5224 9.72403 14.2496 9.83057C13.9769 9.9371 13.7617 10.0862 13.604 10.278C13.4464 10.4655 13.3675 10.7084 13.3675 11.0067C13.3675 11.4328 13.5231 11.7546 13.8342 11.9719C14.1452 12.1892 14.5415 12.2979 15.0231 12.2979Z" fill="#161439"/>
<path d="M0.292969 13.8V0.709106H5.20206C6.20774 0.709106 7.05149 0.896606 7.73331 1.27161C8.41939 1.64661 8.93715 2.16223 9.28658 2.81848C9.64027 3.47047 9.81712 4.21195 9.81712 5.04291C9.81712 5.8824 9.64027 6.62814 9.28658 7.28013C8.93288 7.93212 8.41087 8.44561 7.72053 8.82061C7.03018 9.19135 6.18004 9.37672 5.1701 9.37672H1.91655V7.42715H4.8505C5.43857 7.42715 5.9201 7.32487 6.2951 7.12033C6.6701 6.91578 6.94709 6.63453 7.12607 6.27658C7.3093 5.91862 7.40092 5.5074 7.40092 5.04291C7.40092 4.57842 7.3093 4.16933 7.12607 3.81564C6.94709 3.46195 6.66797 3.18709 6.28871 2.99107C5.91371 2.79078 5.43004 2.69064 4.83771 2.69064H2.66442V13.8H0.292969Z" fill="#161439"/>
</svg>
