<svg width="588" height="51" viewBox="0 0 588 51" fill="none" xmlns="http://www.w3.org/2000/svg">
<rect x="0.5" y="1.30005" width="587" height="49" rx="4.5" fill="white"/>
<rect x="0.5" y="1.30005" width="587" height="49" rx="4.5" stroke="#E1E1E1"/>
<g opacity="0.8">
<path d="M153.818 31.9819C153.091 31.9819 152.449 31.7982 151.892 31.4307C151.335 31.0595 150.899 30.5368 150.585 29.8626C150.27 29.1845 150.113 28.3834 150.113 27.4592C150.113 26.5425 150.27 25.747 150.585 25.0728C150.899 24.3985 151.337 23.8777 151.897 23.5103C152.458 23.1429 153.106 22.9592 153.841 22.9592C154.409 22.9592 154.858 23.0538 155.187 23.2432C155.52 23.4288 155.774 23.641 155.949 23.8796C156.127 24.1145 156.265 24.3076 156.363 24.4592H156.477V20.1637H157.818V31.8001H156.522V30.4592H156.363C156.265 30.6182 156.125 30.819 155.943 31.0614C155.761 31.3001 155.502 31.5141 155.164 31.7035C154.827 31.8891 154.378 31.9819 153.818 31.9819ZM154 30.7773C154.538 30.7773 154.992 30.6372 155.363 30.3569C155.734 30.0728 156.017 29.6807 156.21 29.1807C156.403 28.677 156.5 28.0955 156.5 27.4364C156.5 26.7849 156.405 26.2148 156.216 25.7262C156.026 25.2338 155.746 24.8512 155.375 24.5785C155.003 24.302 154.545 24.1637 154 24.1637C153.431 24.1637 152.958 24.3095 152.579 24.6012C152.204 24.8891 151.922 25.2811 151.733 25.7773C151.547 26.2698 151.454 26.8228 151.454 27.4364C151.454 28.0576 151.549 28.622 151.738 29.1296C151.931 29.6334 152.216 30.0349 152.591 30.3342C152.969 30.6296 153.439 30.7773 154 30.7773Z" fill="#6D6C80"/>
<path d="M144.836 31.8002V23.0729H146.131V24.3911H146.222C146.381 23.9593 146.669 23.6089 147.086 23.3399C147.503 23.071 147.972 22.9365 148.495 22.9365C148.594 22.9365 148.717 22.9384 148.864 22.9422C149.012 22.946 149.124 22.9517 149.2 22.9593V24.3229C149.154 24.3115 149.05 24.2945 148.887 24.2718C148.728 24.2452 148.559 24.232 148.381 24.232C147.957 24.232 147.578 24.321 147.245 24.499C146.915 24.6733 146.654 24.9157 146.461 25.2263C146.272 25.5331 146.177 25.8835 146.177 26.2774V31.8002H144.836Z" fill="#6D6C80"/>
<path d="M138.833 31.982C138.046 31.982 137.354 31.7945 136.76 31.4195C136.169 31.0445 135.707 30.5198 135.373 29.8456C135.044 29.1713 134.879 28.3835 134.879 27.482C134.879 26.5729 135.044 25.7793 135.373 25.1013C135.707 24.4232 136.169 23.8967 136.76 23.5217C137.354 23.1467 138.046 22.9592 138.833 22.9592C139.621 22.9592 140.311 23.1467 140.902 23.5217C141.496 23.8967 141.958 24.4232 142.288 25.1013C142.621 25.7793 142.788 26.5729 142.788 27.482C142.788 28.3835 142.621 29.1713 142.288 29.8456C141.958 30.5198 141.496 31.0445 140.902 31.4195C140.311 31.7945 139.621 31.982 138.833 31.982ZM138.833 30.7774C139.432 30.7774 139.924 30.624 140.311 30.3172C140.697 30.0104 140.983 29.607 141.169 29.107C141.354 28.607 141.447 28.0653 141.447 27.482C141.447 26.8986 141.354 26.3551 141.169 25.8513C140.983 25.3475 140.697 24.9403 140.311 24.6297C139.924 24.3191 139.432 24.1638 138.833 24.1638C138.235 24.1638 137.743 24.3191 137.356 24.6297C136.97 24.9403 136.684 25.3475 136.498 25.8513C136.313 26.3551 136.22 26.8986 136.22 27.482C136.22 28.0653 136.313 28.607 136.498 29.107C136.684 29.607 136.97 30.0104 137.356 30.3172C137.743 30.624 138.235 30.7774 138.833 30.7774Z" fill="#6D6C80"/>
<path d="M124.561 31.8001L121.902 23.0729H123.311L125.198 29.7547H125.289L127.152 23.0729H128.584L130.425 29.732H130.516L132.402 23.0729H133.811L131.152 31.8001H129.834L127.925 25.0956H127.789L125.88 31.8001H124.561Z" fill="#6D6C80"/>
<path d="M120.408 25.0274L119.203 25.3683C119.128 25.1676 119.016 24.9725 118.868 24.7831C118.724 24.5899 118.527 24.4308 118.277 24.3058C118.027 24.1808 117.707 24.1183 117.317 24.1183C116.783 24.1183 116.338 24.2414 115.982 24.4876C115.63 24.7301 115.453 25.0388 115.453 25.4138C115.453 25.7471 115.575 26.0104 115.817 26.2035C116.06 26.3967 116.438 26.5577 116.953 26.6865L118.249 27.0047C119.029 27.1941 119.611 27.4839 119.993 27.874C120.376 28.2604 120.567 28.7585 120.567 29.3683C120.567 29.8683 120.423 30.3153 120.135 30.7092C119.851 31.1032 119.453 31.4138 118.942 31.641C118.431 31.8683 117.836 31.982 117.158 31.982C116.268 31.982 115.531 31.7888 114.948 31.4024C114.364 31.016 113.995 30.4517 113.84 29.7092L115.113 29.391C115.234 29.8607 115.463 30.213 115.8 30.4479C116.141 30.6827 116.586 30.8001 117.135 30.8001C117.76 30.8001 118.257 30.6676 118.624 30.4024C118.995 30.1335 119.181 29.8115 119.181 29.4365C119.181 29.1335 119.075 28.8797 118.863 28.6751C118.65 28.4668 118.325 28.3115 117.885 28.2092L116.431 27.8683C115.632 27.6789 115.044 27.3854 114.669 26.9876C114.298 26.5861 114.113 26.0842 114.113 25.482C114.113 24.9895 114.251 24.5539 114.527 24.1751C114.808 23.7963 115.188 23.499 115.669 23.2831C116.154 23.0672 116.703 22.9592 117.317 22.9592C118.181 22.9592 118.859 23.1486 119.351 23.5274C119.847 23.9062 120.2 24.4062 120.408 25.0274Z" fill="#6D6C80"/>
<path d="M112.049 25.0274L110.844 25.3683C110.768 25.1676 110.657 24.9725 110.509 24.7831C110.365 24.5899 110.168 24.4308 109.918 24.3058C109.668 24.1808 109.348 24.1183 108.958 24.1183C108.424 24.1183 107.979 24.2414 107.623 24.4876C107.27 24.7301 107.094 25.0388 107.094 25.4138C107.094 25.7471 107.215 26.0104 107.458 26.2035C107.7 26.3967 108.079 26.5577 108.594 26.6865L109.89 27.0047C110.67 27.1941 111.251 27.4839 111.634 27.874C112.016 28.2604 112.208 28.7585 112.208 29.3683C112.208 29.8683 112.064 30.3153 111.776 30.7092C111.492 31.1032 111.094 31.4138 110.583 31.641C110.071 31.8683 109.477 31.982 108.799 31.982C107.908 31.982 107.172 31.7888 106.588 31.4024C106.005 31.016 105.636 30.4517 105.48 29.7092L106.753 29.391C106.874 29.8607 107.104 30.213 107.441 30.4479C107.782 30.6827 108.227 30.8001 108.776 30.8001C109.401 30.8001 109.897 30.6676 110.265 30.4024C110.636 30.1335 110.821 29.8115 110.821 29.4365C110.821 29.1335 110.715 28.8797 110.503 28.6751C110.291 28.4668 109.965 28.3115 109.526 28.2092L108.071 27.8683C107.272 27.6789 106.685 27.3854 106.31 26.9876C105.939 26.5861 105.753 26.0842 105.753 25.482C105.753 24.9895 105.891 24.5539 106.168 24.1751C106.448 23.7963 106.829 23.499 107.31 23.2831C107.795 23.0672 108.344 22.9592 108.958 22.9592C109.821 22.9592 110.499 23.1486 110.992 23.5274C111.488 23.9062 111.84 24.4062 112.049 25.0274Z" fill="#6D6C80"/>
<path d="M99.4187 32.0047C98.8656 32.0047 98.3638 31.9005 97.913 31.6922C97.4622 31.4801 97.1043 31.1751 96.8391 30.7774C96.574 30.3759 96.4414 29.891 96.4414 29.3229C96.4414 28.8229 96.5399 28.4176 96.7369 28.107C96.9338 27.7926 97.1971 27.5464 97.5266 27.3683C97.8562 27.1903 98.2198 27.0577 98.6175 26.9706C99.0191 26.8797 99.4225 26.8077 99.8278 26.7547C100.358 26.6865 100.788 26.6354 101.118 26.6013C101.451 26.5634 101.693 26.5009 101.845 26.4138C102 26.3267 102.078 26.1751 102.078 25.9592V25.9138C102.078 25.3532 101.924 24.9176 101.618 24.607C101.315 24.2963 100.854 24.141 100.237 24.141C99.5967 24.141 99.0948 24.2812 98.7312 24.5615C98.3675 24.8418 98.1119 25.141 97.9641 25.4592L96.6914 25.0047C96.9187 24.4744 97.2217 24.0615 97.6005 23.766C97.9831 23.4668 98.3997 23.2585 98.8505 23.141C99.305 23.0198 99.752 22.9592 100.191 22.9592C100.472 22.9592 100.794 22.9933 101.157 23.0615C101.525 23.1259 101.879 23.2604 102.22 23.4649C102.565 23.6695 102.85 23.9782 103.078 24.391C103.305 24.8039 103.419 25.357 103.419 26.0501V31.8001H102.078V30.6183H102.01C101.919 30.8077 101.767 31.0104 101.555 31.2263C101.343 31.4422 101.061 31.6259 100.708 31.7774C100.356 31.9289 99.9263 32.0047 99.4187 32.0047ZM99.6232 30.8001C100.154 30.8001 100.6 30.696 100.964 30.4876C101.332 30.2793 101.608 30.0104 101.794 29.6808C101.983 29.3513 102.078 29.0047 102.078 28.641V27.4138C102.021 27.482 101.896 27.5445 101.703 27.6013C101.513 27.6543 101.294 27.7017 101.044 27.7433C100.797 27.7812 100.557 27.8153 100.322 27.8456C100.091 27.8721 99.9035 27.8948 99.7596 27.9138C99.4111 27.9592 99.0853 28.0331 98.7823 28.1354C98.4831 28.2338 98.2406 28.3835 98.055 28.5842C97.8732 28.7812 97.7823 29.0501 97.7823 29.391C97.7823 29.857 97.9547 30.2092 98.2994 30.4479C98.6478 30.6827 99.0891 30.8001 99.6232 30.8001Z" fill="#6D6C80"/>
<path d="M86.875 31.8001V20.1637H90.8068C91.7197 20.1637 92.4659 20.3285 93.0455 20.658C93.6288 20.9838 94.0606 21.4251 94.3409 21.9819C94.6212 22.5387 94.7614 23.1599 94.7614 23.8455C94.7614 24.5311 94.6212 25.1542 94.3409 25.7148C94.0644 26.2754 93.6364 26.7224 93.0568 27.0557C92.4773 27.3853 91.7349 27.5501 90.8296 27.5501H88.0114V26.3001H90.7841C91.4091 26.3001 91.911 26.1921 92.2898 25.9762C92.6686 25.7603 92.9432 25.4686 93.1136 25.1012C93.2879 24.73 93.375 24.3114 93.375 23.8455C93.375 23.3796 93.2879 22.9629 93.1136 22.5955C92.9432 22.2281 92.6667 21.9402 92.2841 21.7319C91.9015 21.5198 91.3939 21.4137 90.7614 21.4137H88.2841V31.8001H86.875Z" fill="#6D6C80"/>
<path d="M68.2891 31.8001V23.0729H69.5845V24.4365H69.6982C69.88 23.9706 70.1735 23.6088 70.5788 23.3513C70.9841 23.0899 71.4709 22.9592 72.0391 22.9592C72.6148 22.9592 73.094 23.0899 73.4766 23.3513C73.8629 23.6088 74.1641 23.9706 74.38 24.4365H74.4709C74.6944 23.9857 75.0296 23.6278 75.4766 23.3626C75.9235 23.0937 76.4595 22.9592 77.0845 22.9592C77.8648 22.9592 78.5031 23.2035 78.9993 23.6922C79.4955 24.177 79.7436 24.9327 79.7436 25.9592V31.8001H78.4027V25.9592C78.4027 25.3153 78.2266 24.8551 77.8743 24.5785C77.522 24.302 77.1072 24.1638 76.63 24.1638C76.0163 24.1638 75.541 24.3494 75.2038 24.7206C74.8667 25.088 74.6982 25.5539 74.6982 26.1183V31.8001H73.3345V25.8229C73.3345 25.3267 73.1735 24.927 72.8516 24.624C72.5296 24.3172 72.1148 24.1638 71.6072 24.1638C71.2588 24.1638 70.933 24.2566 70.63 24.4422C70.3307 24.6278 70.0883 24.8854 69.9027 25.2149C69.7209 25.5407 69.63 25.9176 69.63 26.3456V31.8001H68.2891Z" fill="#6D6C80"/>
<path d="M62.3359 31.8002V23.0729H63.6314V24.3911H63.7223C63.8814 23.9593 64.1693 23.6089 64.5859 23.3399C65.0026 23.071 65.4723 22.9365 65.995 22.9365C66.0935 22.9365 66.2166 22.9384 66.3643 22.9422C66.5121 22.946 66.6238 22.9517 66.6996 22.9593V24.3229C66.6541 24.3115 66.55 24.2945 66.3871 24.2718C66.228 24.2452 66.0594 24.232 65.8814 24.232C65.4572 24.232 65.0784 24.321 64.745 24.499C64.4155 24.6733 64.1541 24.9157 63.9609 25.2263C63.7715 25.5331 63.6768 25.8835 63.6768 26.2774V31.8002H62.3359Z" fill="#6D6C80"/>
<path d="M58.5384 31.8V23.0728H59.8793V31.8H58.5384ZM59.2202 21.6182C58.9588 21.6182 58.7334 21.5292 58.544 21.3512C58.3584 21.1732 58.2656 20.9591 58.2656 20.7091C58.2656 20.4591 58.3584 20.2451 58.544 20.0671C58.7334 19.8891 58.9588 19.8 59.2202 19.8C59.4815 19.8 59.705 19.8891 59.8906 20.0671C60.08 20.2451 60.1747 20.4591 60.1747 20.7091C60.1747 20.9591 60.08 21.1732 59.8906 21.3512C59.705 21.5292 59.4815 21.6182 59.2202 21.6182Z" fill="#6D6C80"/>
<path d="M56.6577 23.0728V24.2092H51.9531V23.0728H56.6577ZM53.3622 31.8001V21.8683C53.3622 21.3683 53.4796 20.9516 53.7145 20.6183C53.9493 20.285 54.2543 20.035 54.6293 19.8683C55.0043 19.7016 55.4001 19.6183 55.8168 19.6183C56.1463 19.6183 56.4152 19.6448 56.6236 19.6978C56.8319 19.7509 56.9872 19.8001 57.0895 19.8456L56.7031 21.0047C56.6349 20.9819 56.5402 20.9535 56.419 20.9194C56.3016 20.8853 56.1463 20.8683 55.9531 20.8683C55.5099 20.8683 55.1899 20.98 54.9929 21.2035C54.7997 21.427 54.7031 21.7547 54.7031 22.1865V31.8001H53.3622Z" fill="#6D6C80"/>
<path d="M44.755 26.5501V31.8001H43.4141V23.0729H44.7095V24.4365H44.8232C45.0277 23.9933 45.3383 23.6373 45.755 23.3683C46.1716 23.0956 46.7095 22.9592 47.3686 22.9592C47.9595 22.9592 48.4766 23.0804 48.9197 23.3229C49.3629 23.5615 49.7076 23.9251 49.9538 24.4138C50.2 24.8986 50.3232 25.5123 50.3232 26.2547V31.8001H48.9822V26.3456C48.9822 25.66 48.8042 25.1259 48.4482 24.7433C48.0921 24.357 47.6035 24.1638 46.9822 24.1638C46.5542 24.1638 46.1716 24.2566 45.8345 24.4422C45.5012 24.6278 45.2379 24.8986 45.0447 25.2547C44.8516 25.6107 44.755 26.0426 44.755 26.5501Z" fill="#6D6C80"/>
<path d="M37.4116 31.982C36.6237 31.982 35.9324 31.7945 35.3377 31.4195C34.7468 31.0445 34.2847 30.5198 33.9513 29.8456C33.6218 29.1713 33.457 28.3835 33.457 27.482C33.457 26.5729 33.6218 25.7793 33.9513 25.1013C34.2847 24.4232 34.7468 23.8967 35.3377 23.5217C35.9324 23.1467 36.6237 22.9592 37.4116 22.9592C38.1995 22.9592 38.8888 23.1467 39.4798 23.5217C40.0745 23.8967 40.5366 24.4232 40.8661 25.1013C41.1995 25.7793 41.3661 26.5729 41.3661 27.482C41.3661 28.3835 41.1995 29.1713 40.8661 29.8456C40.5366 30.5198 40.0745 31.0445 39.4798 31.4195C38.8888 31.7945 38.1995 31.982 37.4116 31.982ZM37.4116 30.7774C38.0101 30.7774 38.5025 30.624 38.8888 30.3172C39.2752 30.0104 39.5612 29.607 39.7468 29.107C39.9324 28.607 40.0252 28.0653 40.0252 27.482C40.0252 26.8986 39.9324 26.3551 39.7468 25.8513C39.5612 25.3475 39.2752 24.9403 38.8888 24.6297C38.5025 24.3191 38.0101 24.1638 37.4116 24.1638C36.8131 24.1638 36.3207 24.3191 35.9343 24.6297C35.5479 24.9403 35.262 25.3475 35.0763 25.8513C34.8907 26.3551 34.7979 26.8986 34.7979 27.482C34.7979 28.0653 34.8907 28.607 35.0763 29.107C35.262 29.607 35.5479 30.0104 35.9343 30.3172C36.3207 30.624 36.8131 30.7774 37.4116 30.7774Z" fill="#6D6C80"/>
<path d="M31.7713 23.8001H30.3622C30.2789 23.3948 30.133 23.0387 29.9247 22.7319C29.7202 22.4251 29.4702 22.1675 29.1747 21.9592C28.883 21.7471 28.5592 21.588 28.2031 21.4819C27.8471 21.3759 27.4759 21.3228 27.0895 21.3228C26.3849 21.3228 25.7467 21.5009 25.1747 21.8569C24.6065 22.213 24.1539 22.7376 23.8168 23.4308C23.4834 24.124 23.3168 24.9743 23.3168 25.9819C23.3168 26.9895 23.4834 27.8399 23.8168 28.533C24.1539 29.2262 24.6065 29.7509 25.1747 30.1069C25.7467 30.463 26.3849 30.641 27.0895 30.641C27.4759 30.641 27.8471 30.588 28.2031 30.4819C28.5592 30.3759 28.883 30.2187 29.1747 30.0103C29.4702 29.7982 29.7202 29.5387 29.9247 29.2319C30.133 28.9213 30.2789 28.5652 30.3622 28.1637H31.7713C31.6652 28.7584 31.4721 29.2906 31.1918 29.7603C30.9115 30.23 30.563 30.6296 30.1463 30.9592C29.7296 31.2849 29.2618 31.533 28.7429 31.7035C28.2277 31.874 27.6766 31.9592 27.0895 31.9592C26.0971 31.9592 25.2145 31.7168 24.4418 31.2319C23.669 30.7471 23.0611 30.0577 22.6179 29.1637C22.1747 28.2698 21.9531 27.2092 21.9531 25.9819C21.9531 24.7546 22.1747 23.694 22.6179 22.8001C23.0611 21.9062 23.669 21.2168 24.4418 20.7319C25.2145 20.2471 26.0971 20.0046 27.0895 20.0046C27.6766 20.0046 28.2277 20.0899 28.7429 20.2603C29.2618 20.4308 29.7296 20.6808 30.1463 21.0103C30.563 21.3361 30.9115 21.7338 31.1918 22.2035C31.4721 22.6694 31.6652 23.2016 31.7713 23.8001Z" fill="#6D6C80"/>
</g>
</svg>
