<svg width="588" height="51" viewBox="0 0 588 51" fill="none" xmlns="http://www.w3.org/2000/svg">
<rect x="0.5" y="1.30005" width="587" height="49" rx="4.5" fill="white"/>
<rect x="0.5" y="1.30005" width="587" height="49" rx="4.5" stroke="#E1E1E1"/>
<g opacity="0.8">
<path d="M89.353 31.9819C88.6257 31.9819 87.9837 31.7982 87.4268 31.4307C86.87 31.0595 86.4344 30.5368 86.12 29.8626C85.8056 29.1845 85.6484 28.3834 85.6484 27.4592C85.6484 26.5425 85.8056 25.747 86.12 25.0728C86.4344 24.3985 86.8719 23.8777 87.4325 23.5103C87.9931 23.1429 88.6409 22.9592 89.3757 22.9592C89.9439 22.9592 90.3928 23.0538 90.7223 23.2432C91.0556 23.4288 91.3094 23.641 91.4837 23.8796C91.6617 24.1145 91.8 24.3076 91.8984 24.4592H92.0121V20.1637H93.353V31.8001H92.0575V30.4592H91.8984C91.8 30.6182 91.6598 30.819 91.478 31.0614C91.2962 31.3001 91.0367 31.5141 90.6996 31.7035C90.3624 31.8891 89.9136 31.9819 89.353 31.9819ZM89.5348 30.7773C90.0727 30.7773 90.5272 30.6372 90.8984 30.3569C91.2696 30.0728 91.5518 29.6807 91.745 29.1807C91.9382 28.677 92.0348 28.0955 92.0348 27.4364C92.0348 26.7849 91.9401 26.2148 91.7507 25.7262C91.5613 25.2338 91.281 24.8512 90.9098 24.5785C90.5386 24.302 90.0803 24.1637 89.5348 24.1637C88.9666 24.1637 88.4931 24.3095 88.1143 24.6012C87.7393 24.8891 87.4571 25.2811 87.2678 25.7773C87.0821 26.2698 86.9893 26.8228 86.9893 27.4364C86.9893 28.0576 87.084 28.622 87.2734 29.1296C87.4666 29.6334 87.7507 30.0349 88.1257 30.3342C88.5045 30.6296 88.9742 30.7773 89.5348 30.7773Z" fill="#6D6C80"/>
<path d="M80.3672 31.8V23.0728H81.6626V24.3909H81.7536C81.9126 23.9591 82.2005 23.6088 82.6172 23.3398C83.0339 23.0709 83.5036 22.9364 84.0263 22.9364C84.1248 22.9364 84.2479 22.9383 84.3956 22.9421C84.5433 22.9459 84.6551 22.9516 84.7308 22.9591V24.3228C84.6854 24.3114 84.5812 24.2944 84.4183 24.2716C84.2592 24.2451 84.0907 24.2319 83.9126 24.2319C83.4884 24.2319 83.1096 24.3209 82.7763 24.4989C82.4467 24.6731 82.1854 24.9156 81.9922 25.2262C81.8028 25.533 81.7081 25.8834 81.7081 26.2773V31.8H80.3672Z" fill="#6D6C80"/>
<path d="M74.3686 31.9818C73.5807 31.9818 72.8894 31.7943 72.2947 31.4193C71.7038 31.0443 71.2417 30.5197 70.9084 29.8455C70.5788 29.1712 70.4141 28.3833 70.4141 27.4818C70.4141 26.5727 70.5788 25.7792 70.9084 25.1012C71.2417 24.4231 71.7038 23.8966 72.2947 23.5216C72.8894 23.1466 73.5807 22.9591 74.3686 22.9591C75.1565 22.9591 75.8459 23.1466 76.4368 23.5216C77.0315 23.8966 77.4936 24.4231 77.8232 25.1012C78.1565 25.7792 78.3232 26.5727 78.3232 27.4818C78.3232 28.3833 78.1565 29.1712 77.8232 29.8455C77.4936 30.5197 77.0315 31.0443 76.4368 31.4193C75.8459 31.7943 75.1565 31.9818 74.3686 31.9818ZM74.3686 30.7773C74.9671 30.7773 75.4595 30.6239 75.8459 30.3171C76.2322 30.0102 76.5182 29.6068 76.7038 29.1068C76.8894 28.6068 76.9822 28.0652 76.9822 27.4818C76.9822 26.8985 76.8894 26.3549 76.7038 25.8512C76.5182 25.3474 76.2322 24.9402 75.8459 24.6296C75.4595 24.319 74.9671 24.1637 74.3686 24.1637C73.7701 24.1637 73.2777 24.319 72.8913 24.6296C72.505 24.9402 72.219 25.3474 72.0334 25.8512C71.8478 26.3549 71.755 26.8985 71.755 27.4818C71.755 28.0652 71.8478 28.6068 72.0334 29.1068C72.219 29.6068 72.505 30.0102 72.8913 30.3171C73.2777 30.6239 73.7701 30.7773 74.3686 30.7773Z" fill="#6D6C80"/>
<path d="M60.0966 31.8L57.4375 23.0728H58.8466L60.733 29.7546H60.8239L62.6875 23.0728H64.1193L65.9602 29.7318H66.0511L67.9375 23.0728H69.3466L66.6875 31.8H65.3693L63.4602 25.0955H63.3239L61.4148 31.8H60.0966Z" fill="#6D6C80"/>
<path d="M55.9432 25.0273L54.7386 25.3682C54.6629 25.1674 54.5511 24.9724 54.4034 24.783C54.2595 24.5898 54.0625 24.4307 53.8125 24.3057C53.5625 24.1807 53.2424 24.1182 52.8523 24.1182C52.3182 24.1182 51.8731 24.2413 51.517 24.4875C51.1648 24.7299 50.9886 25.0387 50.9886 25.4137C50.9886 25.747 51.1098 26.0102 51.3523 26.2034C51.5947 26.3966 51.9735 26.5576 52.4886 26.6864L53.7841 27.0046C54.5644 27.194 55.1458 27.4837 55.5284 27.8739C55.911 28.2602 56.1023 28.7583 56.1023 29.3682C56.1023 29.8682 55.9583 30.3152 55.6705 30.7091C55.3864 31.103 54.9886 31.4137 54.4773 31.6409C53.9659 31.8682 53.3712 31.9818 52.6932 31.9818C51.803 31.9818 51.0663 31.7887 50.483 31.4023C49.8996 31.0159 49.5303 30.4515 49.375 29.7091L50.6477 29.3909C50.7689 29.8606 50.9981 30.2129 51.3352 30.4477C51.6761 30.6826 52.1212 30.8 52.6705 30.8C53.2955 30.8 53.7917 30.6674 54.1591 30.4023C54.5303 30.1333 54.7159 29.8114 54.7159 29.4364C54.7159 29.1333 54.6098 28.8796 54.3977 28.675C54.1856 28.4667 53.8598 28.3114 53.4205 28.2091L51.9659 27.8682C51.1667 27.6788 50.5795 27.3852 50.2045 26.9875C49.8333 26.586 49.6477 26.0841 49.6477 25.4818C49.6477 24.9894 49.786 24.5538 50.0625 24.175C50.3428 23.7962 50.7235 23.4989 51.2045 23.283C51.6894 23.0671 52.2386 22.9591 52.8523 22.9591C53.7159 22.9591 54.3939 23.1485 54.8864 23.5273C55.3826 23.9061 55.7348 24.4061 55.9432 25.0273Z" fill="#6D6C80"/>
<path d="M47.5838 25.0273L46.3793 25.3682C46.3035 25.1674 46.1918 24.9724 46.044 24.783C45.9001 24.5898 45.7031 24.4307 45.4531 24.3057C45.2031 24.1807 44.883 24.1182 44.4929 24.1182C43.9588 24.1182 43.5137 24.2413 43.1577 24.4875C42.8054 24.7299 42.6293 25.0387 42.6293 25.4137C42.6293 25.747 42.7505 26.0102 42.9929 26.2034C43.2353 26.3966 43.6141 26.5576 44.1293 26.6864L45.4247 27.0046C46.205 27.194 46.7865 27.4837 47.169 27.8739C47.5516 28.2602 47.7429 28.7583 47.7429 29.3682C47.7429 29.8682 47.599 30.3152 47.3111 30.7091C47.027 31.103 46.6293 31.4137 46.1179 31.6409C45.6065 31.8682 45.0118 31.9818 44.3338 31.9818C43.4437 31.9818 42.7069 31.7887 42.1236 31.4023C41.5402 31.0159 41.1709 30.4515 41.0156 29.7091L42.2884 29.3909C42.4096 29.8606 42.6387 30.2129 42.9759 30.4477C43.3168 30.6826 43.7618 30.8 44.3111 30.8C44.9361 30.8 45.4323 30.6674 45.7997 30.4023C46.1709 30.1333 46.3565 29.8114 46.3565 29.4364C46.3565 29.1333 46.2505 28.8796 46.0384 28.675C45.8262 28.4667 45.5005 28.3114 45.0611 28.2091L43.6065 27.8682C42.8073 27.6788 42.2202 27.3852 41.8452 26.9875C41.474 26.586 41.2884 26.0841 41.2884 25.4818C41.2884 24.9894 41.4266 24.5538 41.7031 24.175C41.9834 23.7962 42.3641 23.4989 42.8452 23.283C43.33 23.0671 43.8793 22.9591 44.4929 22.9591C45.3565 22.9591 46.0346 23.1485 46.527 23.5273C47.0232 23.9061 47.3755 24.4061 47.5838 25.0273Z" fill="#6D6C80"/>
<path d="M34.9538 32.0046C34.4008 32.0046 33.8989 31.9004 33.4482 31.6921C32.9974 31.4799 32.6394 31.175 32.3743 30.7773C32.1091 30.3758 31.9766 29.8909 31.9766 29.3227C31.9766 28.8227 32.075 28.4174 32.272 28.1068C32.469 27.7924 32.7322 27.5462 33.0618 27.3682C33.3913 27.1902 33.755 27.0576 34.1527 26.9705C34.5542 26.8796 34.9576 26.8076 35.3629 26.7546C35.8932 26.6864 36.3232 26.6352 36.6527 26.6012C36.986 26.5633 37.2285 26.5008 37.38 26.4137C37.5353 26.3265 37.6129 26.175 37.6129 25.9591V25.9137C37.6129 25.353 37.4595 24.9174 37.1527 24.6068C36.8497 24.2962 36.3894 24.1409 35.772 24.1409C35.1319 24.1409 34.63 24.2811 34.2663 24.5614C33.9027 24.8417 33.647 25.1409 33.4993 25.4591L32.2266 25.0046C32.4538 24.4743 32.7569 24.0614 33.1357 23.7659C33.5182 23.4667 33.9349 23.2583 34.3857 23.1409C34.8402 23.0197 35.2872 22.9591 35.7266 22.9591C36.0069 22.9591 36.3288 22.9932 36.6925 23.0614C37.0599 23.1258 37.4141 23.2602 37.755 23.4648C38.0997 23.6693 38.3857 23.978 38.6129 24.3909C38.8402 24.8038 38.9538 25.3568 38.9538 26.05V31.8H37.6129V30.6182H37.5447C37.4538 30.8076 37.3023 31.0102 37.0902 31.2262C36.8781 31.4421 36.5959 31.6258 36.2436 31.7773C35.8913 31.9288 35.4614 32.0046 34.9538 32.0046ZM35.1584 30.8C35.6887 30.8 36.1357 30.6958 36.4993 30.4875C36.8667 30.2792 37.1432 30.0102 37.3288 29.6807C37.5182 29.3512 37.6129 29.0046 37.6129 28.6409V27.4137C37.5561 27.4818 37.4311 27.5443 37.2379 27.6012C37.0485 27.6542 36.8288 27.7015 36.5788 27.7432C36.3326 27.7811 36.0921 27.8152 35.8572 27.8455C35.6262 27.872 35.4387 27.8947 35.2947 27.9137C34.9463 27.9591 34.6205 28.033 34.3175 28.1352C34.0182 28.2337 33.7758 28.3833 33.5902 28.5841C33.4084 28.7811 33.3175 29.05 33.3175 29.3909C33.3175 29.8568 33.4898 30.2091 33.8345 30.4477C34.183 30.6826 34.6243 30.8 35.1584 30.8Z" fill="#6D6C80"/>
<path d="M22.4102 31.8001V20.1637H26.342C27.2549 20.1637 28.0011 20.3285 28.5806 20.658C29.1639 20.9838 29.5958 21.4251 29.8761 21.9819C30.1564 22.5387 30.2965 23.1599 30.2965 23.8455C30.2965 24.5311 30.1564 25.1542 29.8761 25.7148C29.5996 26.2754 29.1715 26.7224 28.592 27.0557C28.0124 27.3853 27.27 27.5501 26.3647 27.5501H23.5465V26.3001H26.3192C26.9442 26.3001 27.4461 26.1921 27.8249 25.9762C28.2037 25.7603 28.4783 25.4686 28.6488 25.1012C28.823 24.73 28.9102 24.3114 28.9102 23.8455C28.9102 23.3796 28.823 22.9629 28.6488 22.5955C28.4783 22.2281 28.2018 21.9402 27.8192 21.7319C27.4367 21.5198 26.9291 21.4137 26.2965 21.4137H23.8192V31.8001H22.4102Z" fill="#6D6C80"/>
</g>
</svg>
