<svg width="588" height="51" viewBox="0 0 588 51" fill="none" xmlns="http://www.w3.org/2000/svg">
<rect x="0.5" y="1.30005" width="587" height="49" rx="4.5" fill="white"/>
<rect x="0.5" y="1.30005" width="587" height="49" rx="4.5" stroke="#E1E1E1"/>
<g opacity="0.8">
<path d="M59.8487 20.1637V31.8001H58.5078V20.1637H59.8487Z" fill="#6D6C80"/>
<path d="M54.7141 31.8V23.0728H56.055V31.8H54.7141ZM55.396 21.6182C55.1346 21.6182 54.9092 21.5292 54.7198 21.3512C54.5342 21.1732 54.4414 20.9591 54.4414 20.7091C54.4414 20.4591 54.5342 20.2451 54.7198 20.0671C54.9092 19.8891 55.1346 19.8 55.396 19.8C55.6573 19.8 55.8808 19.8891 56.0664 20.0671C56.2558 20.2451 56.3505 20.4591 56.3505 20.7091C56.3505 20.9591 56.2558 21.1732 56.0664 21.3512C55.8808 21.5292 55.6573 21.6182 55.396 21.6182Z" fill="#6D6C80"/>
<path d="M48.2663 32.0046C47.7133 32.0046 47.2114 31.9004 46.7607 31.6921C46.3099 31.4799 45.9519 31.175 45.6868 30.7773C45.4216 30.3758 45.2891 29.8909 45.2891 29.3227C45.2891 28.8227 45.3875 28.4174 45.5845 28.1068C45.7815 27.7924 46.0447 27.5462 46.3743 27.3682C46.7038 27.1902 47.0675 27.0576 47.4652 26.9705C47.8667 26.8796 48.2701 26.8076 48.6754 26.7546C49.2057 26.6864 49.6357 26.6352 49.9652 26.6012C50.2985 26.5633 50.541 26.5008 50.6925 26.4137C50.8478 26.3265 50.9254 26.175 50.9254 25.9591V25.9137C50.9254 25.353 50.772 24.9174 50.4652 24.6068C50.1622 24.2962 49.7019 24.1409 49.0845 24.1409C48.4444 24.1409 47.9425 24.2811 47.5788 24.5614C47.2152 24.8417 46.9595 25.1409 46.8118 25.4591L45.5391 25.0046C45.7663 24.4743 46.0694 24.0614 46.4482 23.7659C46.8307 23.4667 47.2474 23.2583 47.6982 23.1409C48.1527 23.0197 48.5997 22.9591 49.0391 22.9591C49.3194 22.9591 49.6413 22.9932 50.005 23.0614C50.3724 23.1258 50.7266 23.2602 51.0675 23.4648C51.4122 23.6693 51.6982 23.978 51.9254 24.3909C52.1527 24.8038 52.2663 25.3568 52.2663 26.05V31.8H50.9254V30.6182H50.8572C50.7663 30.8076 50.6148 31.0102 50.4027 31.2262C50.1906 31.4421 49.9084 31.6258 49.5561 31.7773C49.2038 31.9288 48.7739 32.0046 48.2663 32.0046ZM48.4709 30.8C49.0012 30.8 49.4482 30.6958 49.8118 30.4875C50.1792 30.2792 50.4557 30.0102 50.6413 29.6807C50.8307 29.3512 50.9254 29.0046 50.9254 28.6409V27.4137C50.8686 27.4818 50.7436 27.5443 50.5504 27.6012C50.361 27.6542 50.1413 27.7015 49.8913 27.7432C49.6451 27.7811 49.4046 27.8152 49.1697 27.8455C48.9387 27.872 48.7512 27.8947 48.6072 27.9137C48.2588 27.9591 47.933 28.033 47.63 28.1352C47.3307 28.2337 47.0883 28.3833 46.9027 28.5841C46.7209 28.7811 46.63 29.05 46.63 29.3909C46.63 29.8568 46.8023 30.2091 47.147 30.4477C47.4955 30.6826 47.9368 30.8 48.4709 30.8Z" fill="#6D6C80"/>
<path d="M31.7891 31.8V23.0727H33.0845V24.4364H33.1982C33.38 23.9705 33.6735 23.6087 34.0788 23.3512C34.4841 23.0898 34.9709 22.9591 35.5391 22.9591C36.1148 22.9591 36.594 23.0898 36.9766 23.3512C37.3629 23.6087 37.6641 23.9705 37.88 24.4364H37.9709C38.1944 23.9856 38.5296 23.6277 38.9766 23.3625C39.4235 23.0936 39.9595 22.9591 40.5845 22.9591C41.3648 22.9591 42.0031 23.2034 42.4993 23.6921C42.9955 24.1769 43.2436 24.9326 43.2436 25.9591V31.8H41.9027V25.9591C41.9027 25.3152 41.7266 24.8549 41.3743 24.5784C41.022 24.3019 40.6072 24.1637 40.13 24.1637C39.5163 24.1637 39.041 24.3493 38.7038 24.7205C38.3667 25.0879 38.1982 25.5538 38.1982 26.1182V31.8H36.8345V25.8227C36.8345 25.3265 36.6735 24.9269 36.3516 24.6239C36.0296 24.3171 35.6148 24.1637 35.1072 24.1637C34.7588 24.1637 34.433 24.2565 34.13 24.4421C33.8307 24.6277 33.5883 24.8852 33.4027 25.2148C33.2209 25.5405 33.13 25.9174 33.13 26.3455V31.8H31.7891Z" fill="#6D6C80"/>
<path d="M22.4102 31.8001V20.1637H29.4329V21.4137H23.8192V25.3455H29.0692V26.5955H23.8192V30.5501H29.5238V31.8001H22.4102Z" fill="#6D6C80"/>
</g>
</svg>
