<svg width="159" height="14" viewBox="0 0 159 14" fill="none" xmlns="http://www.w3.org/2000/svg">
<path d="M153.331 13.9726C152.56 13.9726 151.87 13.7744 151.26 13.3781C150.651 12.9818 150.169 12.4065 149.816 11.6523C149.462 10.898 149.285 9.98183 149.285 8.90371C149.285 7.8128 149.464 6.89234 149.822 6.14234C150.184 5.38808 150.672 4.81919 151.286 4.43567C151.899 4.04789 152.583 3.85399 153.338 3.85399C153.913 3.85399 154.386 3.952 154.757 4.14803C155.127 4.33979 155.422 4.57203 155.639 4.84476C155.856 5.11323 156.024 5.36678 156.144 5.60541H156.24V0.709106H158.56V13.8H156.284V12.2531H156.144C156.024 12.4918 155.852 12.7453 155.626 13.0138C155.4 13.278 155.102 13.5039 154.731 13.6914C154.36 13.8789 153.894 13.9726 153.331 13.9726ZM153.977 12.0742C154.467 12.0742 154.885 11.9421 155.23 11.6779C155.575 11.4094 155.837 11.0365 156.016 10.5592C156.195 10.082 156.284 9.52587 156.284 8.89092C156.284 8.25598 156.195 7.70414 156.016 7.23539C155.841 6.76664 155.581 6.40229 155.236 6.14234C154.895 5.8824 154.475 5.75243 153.977 5.75243C153.461 5.75243 153.031 5.88666 152.686 6.15513C152.341 6.4236 152.081 6.79433 151.906 7.26734C151.731 7.74036 151.644 8.28155 151.644 8.89092C151.644 9.50456 151.731 10.0521 151.906 10.5337C152.085 11.011 152.347 11.3881 152.692 11.6651C153.042 11.9378 153.47 12.0742 153.977 12.0742Z" fill="#161439"/>
<path d="M142.953 13.8V3.98181H145.197V5.61818H145.299C145.478 5.05141 145.785 4.61462 146.219 4.30781C146.658 3.99673 147.159 3.84119 147.722 3.84119C147.849 3.84119 147.992 3.84758 148.15 3.86036C148.312 3.86889 148.446 3.8838 148.553 3.90511V6.03366C148.455 5.99957 148.299 5.96974 148.086 5.94417C147.877 5.91434 147.675 5.89943 147.479 5.89943C147.057 5.89943 146.678 5.99104 146.341 6.17428C146.009 6.35326 145.746 6.60255 145.555 6.92215C145.363 7.24176 145.267 7.61036 145.267 8.02798V13.8H142.953Z" fill="#161439"/>
<path d="M136.287 13.9918C135.328 13.9918 134.497 13.7808 133.794 13.359C133.091 12.9371 132.545 12.3469 132.157 11.5884C131.774 10.8299 131.582 9.94349 131.582 8.92929C131.582 7.91508 131.774 7.02659 132.157 6.2638C132.545 5.50102 133.091 4.90869 133.794 4.48682C134.497 4.06494 135.328 3.854 136.287 3.854C137.245 3.854 138.076 4.06494 138.779 4.48682C139.483 4.90869 140.026 5.50102 140.409 6.2638C140.797 7.02659 140.991 7.91508 140.991 8.92929C140.991 9.94349 140.797 10.8299 140.409 11.5884C140.026 12.3469 139.483 12.9371 138.779 13.359C138.076 13.7808 137.245 13.9918 136.287 13.9918ZM136.299 12.1381C136.819 12.1381 137.254 11.9953 137.603 11.7098C137.953 11.4201 138.213 11.0323 138.383 10.5465C138.558 10.0607 138.645 9.51949 138.645 8.9229C138.645 8.32204 138.558 7.77872 138.383 7.29292C138.213 6.80287 137.953 6.41295 137.603 6.12318C137.254 5.83341 136.819 5.68852 136.299 5.68852C135.767 5.68852 135.324 5.83341 134.97 6.12318C134.62 6.41295 134.358 6.80287 134.184 7.29292C134.013 7.77872 133.928 8.32204 133.928 8.9229C133.928 9.51949 134.013 10.0607 134.184 10.5465C134.358 11.0323 134.62 11.4201 134.97 11.7098C135.324 11.9953 135.767 12.1381 136.299 12.1381Z" fill="#161439"/>
<path d="M119.247 13.8L116.473 3.98181H118.831L120.557 10.8852H120.647L122.411 3.98181H124.744L126.508 10.8469H126.604L128.304 3.98181H130.669L127.889 13.8H125.479L123.638 7.16505H123.504L121.663 13.8H119.247Z" fill="#161439"/>
<path d="M115.101 6.57702L112.991 6.80713C112.932 6.59406 112.827 6.39378 112.678 6.20628C112.533 6.01878 112.337 5.8675 112.09 5.75244C111.843 5.63738 111.54 5.57986 111.183 5.57986C110.701 5.57986 110.296 5.68426 109.968 5.89307C109.644 6.10187 109.484 6.37247 109.489 6.70486C109.484 6.99037 109.589 7.22261 109.802 7.40159C110.019 7.58057 110.377 7.72758 110.876 7.84264L112.55 8.20059C113.479 8.40088 114.17 8.71835 114.621 9.15301C115.077 9.58767 115.308 10.1566 115.312 10.8597C115.308 11.4776 115.126 12.023 114.768 12.496C114.415 12.9648 113.923 13.3313 113.292 13.5955C112.661 13.8597 111.937 13.9918 111.119 13.9918C109.917 13.9918 108.95 13.7404 108.217 13.2375C107.484 12.7304 107.047 12.0252 106.906 11.1218L109.163 10.9044C109.265 11.3476 109.482 11.6821 109.815 11.908C110.147 12.1338 110.58 12.2468 111.112 12.2468C111.662 12.2468 112.103 12.1338 112.435 11.908C112.772 11.6821 112.94 11.403 112.94 11.0706C112.94 10.7894 112.832 10.5571 112.614 10.3739C112.401 10.1907 112.069 10.05 111.617 9.95201L109.942 9.60045C109.001 9.40443 108.304 9.07417 107.852 8.60969C107.401 8.14094 107.177 7.54861 107.181 6.8327C107.177 6.22758 107.341 5.70344 107.673 5.26025C108.01 4.81281 108.477 4.46764 109.073 4.22474C109.674 3.97758 110.366 3.854 111.151 3.854C112.301 3.854 113.207 4.09903 113.867 4.58909C114.532 5.07915 114.943 5.74179 115.101 6.57702Z" fill="#161439"/>
<path d="M105.222 6.57702L103.113 6.80713C103.053 6.59406 102.949 6.39378 102.799 6.20628C102.654 6.01878 102.458 5.8675 102.211 5.75244C101.964 5.63738 101.662 5.57986 101.304 5.57986C100.822 5.57986 100.417 5.68426 100.089 5.89307C99.7653 6.10187 99.6055 6.37247 99.6097 6.70486C99.6055 6.99037 99.7099 7.22261 99.9229 7.40159C100.14 7.58057 100.498 7.72758 100.997 7.84264L102.672 8.20059C103.6 8.40088 104.291 8.71835 104.743 9.15301C105.199 9.58767 105.429 10.1566 105.433 10.8597C105.429 11.4776 105.248 12.023 104.89 12.496C104.536 12.9648 104.044 13.3313 103.413 13.5955C102.782 13.8597 102.058 13.9918 101.24 13.9918C100.038 13.9918 99.0707 13.7404 98.3377 13.2375C97.6048 12.7304 97.168 12.0252 97.0273 11.1218L99.2837 10.9044C99.386 11.3476 99.6033 11.6821 99.9357 11.908C100.268 12.1338 100.701 12.2468 101.233 12.2468C101.783 12.2468 102.224 12.1338 102.556 11.908C102.893 11.6821 103.061 11.403 103.061 11.0706C103.061 10.7894 102.953 10.5571 102.735 10.3739C102.522 10.1907 102.19 10.05 101.738 9.95201L100.064 9.60045C99.1218 9.40443 98.4251 9.07417 97.9734 8.60969C97.5217 8.14094 97.2979 7.54861 97.3022 6.8327C97.2979 6.22758 97.462 5.70344 97.7944 5.26025C98.131 4.81281 98.5977 4.46764 99.1942 4.22474C99.7951 3.97758 100.488 3.854 101.272 3.854C102.422 3.854 103.328 4.09903 103.988 4.58909C104.653 5.07915 105.064 5.74179 105.222 6.57702Z" fill="#161439"/>
<path d="M89.9535 13.9982C89.3313 13.9982 88.771 13.8874 88.2724 13.6658C87.7781 13.4399 87.386 13.1076 87.0962 12.6686C86.8107 12.2297 86.668 11.6885 86.668 11.0451C86.668 10.4911 86.7702 10.033 86.9748 9.67076C87.1793 9.30855 87.4585 9.01878 87.8121 8.80145C88.1658 8.58412 88.5643 8.42005 89.0075 8.30926C89.4549 8.1942 89.9173 8.11111 90.3945 8.05997C90.9698 8.00031 91.4364 7.94704 91.7944 7.90017C92.1523 7.84903 92.4123 7.77233 92.5742 7.67005C92.7404 7.56352 92.8235 7.39946 92.8235 7.17787V7.13952C92.8235 6.65798 92.6808 6.28511 92.3952 6.02091C92.1097 5.7567 91.6985 5.6246 91.1616 5.6246C90.5948 5.6246 90.1452 5.74818 89.8129 5.99534C89.4847 6.2425 89.2631 6.5344 89.1481 6.87105L86.9876 6.56423C87.158 5.96764 87.4393 5.46906 87.8313 5.06849C88.2234 4.66366 88.7028 4.36111 89.2695 4.16082C89.8363 3.95628 90.4627 3.854 91.1488 3.854C91.6218 3.854 92.0927 3.9094 92.5614 4.0202C93.0302 4.13099 93.4585 4.31423 93.8462 4.56991C94.234 4.82133 94.5451 5.16437 94.7795 5.59903C95.0181 6.03369 95.1374 6.57701 95.1374 7.229V13.8H92.913V12.4513H92.8363C92.6957 12.724 92.4975 12.9797 92.2418 13.2183C91.9904 13.4527 91.6729 13.6424 91.2894 13.7872C90.9102 13.9279 90.4648 13.9982 89.9535 13.9982ZM90.5543 12.2979C91.0188 12.2979 91.4215 12.2063 91.7624 12.023C92.1033 11.8355 92.3654 11.5884 92.5487 11.2816C92.7362 10.9747 92.8299 10.6402 92.8299 10.278V9.12105C92.7575 9.18071 92.6339 9.23611 92.4592 9.28724C92.2887 9.33838 92.0969 9.38312 91.8839 9.42147C91.6708 9.45983 91.4599 9.49392 91.2511 9.52375C91.0423 9.55358 90.8611 9.57915 90.7077 9.60045C90.3626 9.64733 90.0536 9.72403 89.7809 9.83057C89.5082 9.9371 89.293 10.0862 89.1353 10.278C88.9776 10.4655 88.8988 10.7084 88.8988 11.0067C88.8988 11.4328 89.0543 11.7546 89.3654 11.9719C89.6765 12.1892 90.0728 12.2979 90.5543 12.2979Z" fill="#161439"/>
<path d="M75.8203 13.8V0.709106H80.7294C81.7351 0.709106 82.5788 0.896606 83.2607 1.27161C83.9467 1.64661 84.4645 2.16223 84.8139 2.81848C85.1676 3.47047 85.3445 4.21195 85.3445 5.04291C85.3445 5.8824 85.1676 6.62814 84.8139 7.28013C84.4602 7.93212 83.9382 8.44561 83.2479 8.82061C82.5575 9.19135 81.7074 9.37672 80.6974 9.37672H77.4439V7.42715H80.3778C80.9659 7.42715 81.4474 7.32487 81.8224 7.12033C82.1974 6.91578 82.4744 6.63453 82.6534 6.27658C82.8367 5.91862 82.9283 5.5074 82.9283 5.04291C82.9283 4.57842 82.8367 4.16933 82.6534 3.81564C82.4744 3.46195 82.1953 3.18709 81.8161 2.99107C81.4411 2.79078 80.9574 2.69064 80.3651 2.69064H78.1918V13.8H75.8203Z" fill="#161439"/>
<path d="M55.0977 13.8V3.98184H57.3093V5.65017H57.4244C57.6289 5.08767 57.9677 4.64875 58.4407 4.33341C58.9137 4.0138 59.4783 3.854 60.1346 3.854C60.7994 3.854 61.3597 4.01594 61.8157 4.3398C62.2759 4.6594 62.5998 5.09619 62.7873 5.65017H62.8896C63.1069 5.10471 63.4734 4.67005 63.989 4.34619C64.5089 4.01807 65.1246 3.854 65.8363 3.854C66.7397 3.854 67.4769 4.13952 68.0479 4.71054C68.619 5.28156 68.9045 6.11466 68.9045 7.20983V13.8H66.5842V7.56778C66.5842 6.95841 66.4222 6.51309 66.0984 6.23184C65.7745 5.94633 65.3782 5.80358 64.9094 5.80358C64.3512 5.80358 63.9144 5.97829 63.5991 6.32772C63.288 6.6729 63.1325 7.12247 63.1325 7.67645V13.8H60.8633V7.4719C60.8633 6.9648 60.7099 6.55997 60.4031 6.25741C60.1005 5.95486 59.7042 5.80358 59.2141 5.80358C58.8817 5.80358 58.5792 5.8888 58.3065 6.05926C58.0337 6.22545 57.8164 6.46196 57.6545 6.76878C57.4925 7.07133 57.4116 7.42503 57.4116 7.82986V13.8H55.0977Z" fill="#161439"/>
<path d="M47.9609 13.8V3.98181H50.2045V5.61818H50.3068C50.4858 5.05141 50.7926 4.61462 51.2273 4.30781C51.6662 3.99673 52.1669 3.84119 52.7294 3.84119C52.8572 3.84119 53 3.84758 53.1577 3.86036C53.3196 3.86889 53.4538 3.8838 53.5604 3.90511V6.03366C53.4624 5.99957 53.3068 5.96974 53.0938 5.94417C52.8849 5.91434 52.6825 5.89943 52.4865 5.89943C52.0646 5.89943 51.6854 5.99104 51.3487 6.17428C51.0163 6.35326 50.7543 6.60255 50.5625 6.92215C50.3707 7.24176 50.2749 7.61036 50.2749 8.02798V13.8H47.9609Z" fill="#161439"/>
<path d="M43.2688 13.8V3.98183H45.5827V13.8H43.2688ZM44.4322 2.58837C44.0657 2.58837 43.7504 2.46692 43.4861 2.22402C43.2219 1.97686 43.0898 1.6807 43.0898 1.33553C43.0898 0.986095 43.2219 0.68993 43.4861 0.447032C43.7504 0.199873 44.0657 0.0762939 44.4322 0.0762939C44.8029 0.0762939 45.1182 0.199873 45.3782 0.447032C45.6424 0.68993 45.7745 0.986095 45.7745 1.33553C45.7745 1.6807 45.6424 1.97686 45.3782 2.22402C45.1182 2.46692 44.8029 2.58837 44.4322 2.58837Z" fill="#161439"/>
<path d="M41.4563 3.98182V5.7716H35.6523V3.98182H41.4563ZM37.1033 13.8V3.05498C37.1033 2.39446 37.2397 1.84475 37.5124 1.40583C37.7894 0.966908 38.1602 0.638783 38.6246 0.421454C39.0891 0.204124 39.6048 0.095459 40.1715 0.095459C40.5721 0.095459 40.9279 0.127419 41.239 0.19134C41.5501 0.255261 41.7802 0.312789 41.9293 0.363926L41.4691 2.1537C41.3711 2.12387 41.2475 2.09404 41.0984 2.06421C40.9492 2.03012 40.783 2.01307 40.5998 2.01307C40.1694 2.01307 39.8647 2.11748 39.6857 2.32628C39.511 2.53083 39.4236 2.82486 39.4236 3.20839V13.8H37.1033Z" fill="#161439"/>
<path d="M27.8295 8.04719V13.8H25.5156V3.98184H27.7273V5.65017H27.8423C28.0682 5.10045 28.4283 4.66366 28.9226 4.3398C29.4212 4.01594 30.0369 3.854 30.7699 3.854C31.4474 3.854 32.0376 3.99889 32.5405 4.28866C33.0476 4.57844 33.4396 4.99818 33.7166 5.5479C33.9979 6.09761 34.1364 6.76451 34.1321 7.54861V13.8H31.8182V7.90656C31.8182 7.25031 31.6477 6.73682 31.3068 6.36608C30.9702 5.99534 30.5036 5.80997 29.907 5.80997C29.5021 5.80997 29.142 5.89946 28.8267 6.07844C28.5156 6.25315 28.2706 6.5067 28.0916 6.83909C27.9169 7.17147 27.8295 7.57417 27.8295 8.04719Z" fill="#161439"/>
<path d="M18.8452 13.9918C17.8864 13.9918 17.0554 13.7808 16.3523 13.359C15.6491 12.9371 15.1037 12.3469 14.7159 11.5884C14.3324 10.8299 14.1406 9.94349 14.1406 8.92929C14.1406 7.91508 14.3324 7.02659 14.7159 6.2638C15.1037 5.50102 15.6491 4.90869 16.3523 4.48682C17.0554 4.06494 17.8864 3.854 18.8452 3.854C19.804 3.854 20.6349 4.06494 21.3381 4.48682C22.0412 4.90869 22.5845 5.50102 22.968 6.2638C23.3558 7.02659 23.5497 7.91508 23.5497 8.92929C23.5497 9.94349 23.3558 10.8299 22.968 11.5884C22.5845 12.3469 22.0412 12.9371 21.3381 13.359C20.6349 13.7808 19.804 13.9918 18.8452 13.9918ZM18.858 12.1381C19.3778 12.1381 19.8125 11.9953 20.1619 11.7098C20.5114 11.4201 20.7713 11.0323 20.9418 10.5465C21.1165 10.0607 21.2038 9.51949 21.2038 8.9229C21.2038 8.32204 21.1165 7.77872 20.9418 7.29292C20.7713 6.80287 20.5114 6.41295 20.1619 6.12318C19.8125 5.83341 19.3778 5.68852 18.858 5.68852C18.3253 5.68852 17.8821 5.83341 17.5284 6.12318C17.179 6.41295 16.9169 6.80287 16.7422 7.29292C16.5717 7.77872 16.4865 8.32204 16.4865 8.9229C16.4865 9.51949 16.5717 10.0607 16.7422 10.5465C16.9169 11.0323 17.179 11.4201 17.5284 11.7098C17.8821 11.9953 18.3253 12.1381 18.858 12.1381Z" fill="#161439"/>
<path d="M12.4947 5.12591H10.104C10.0359 4.73386 9.91016 4.38656 9.72692 4.08401C9.54368 3.77719 9.3157 3.51725 9.04297 3.30418C8.77024 3.09111 8.45916 2.93131 8.10973 2.82477C7.76456 2.71398 7.39169 2.65858 6.99112 2.65858C6.27947 2.65858 5.64879 2.83756 5.09908 3.19551C4.54936 3.54921 4.11896 4.06909 3.80788 4.75517C3.4968 5.43699 3.34126 6.27009 3.34126 7.25446C3.34126 8.25588 3.4968 9.09963 3.80788 9.78571C4.12322 10.4675 4.55362 10.9832 5.09908 11.3326C5.64879 11.6778 6.27734 11.8503 6.98473 11.8503C7.37678 11.8503 7.74325 11.7992 8.08416 11.6969C8.42933 11.5904 8.73828 11.4349 9.01101 11.2303C9.288 11.0258 9.52024 10.7743 9.70774 10.4761C9.8995 10.1778 10.0316 9.83685 10.104 9.45333L12.4947 9.46611C12.4052 10.0883 12.2113 10.6721 11.913 11.2175C11.619 11.763 11.2333 12.2445 10.756 12.6621C10.2788 13.0755 9.72053 13.3993 9.08132 13.6337C8.44212 13.8638 7.7326 13.9789 6.95277 13.9789C5.8022 13.9789 4.77521 13.7126 3.8718 13.1799C2.9684 12.6472 2.25675 11.878 1.73686 10.8724C1.21697 9.86668 0.957031 8.66071 0.957031 7.25446C0.957031 5.84395 1.21911 4.63798 1.74325 3.63656C2.2674 2.63088 2.98118 1.86171 3.88459 1.32903C4.788 0.796365 5.81072 0.530029 6.95277 0.530029C7.68146 0.530029 8.35902 0.632302 8.98544 0.836847C9.61186 1.04139 10.1701 1.34182 10.6602 1.73813C11.1502 2.13017 11.5529 2.61171 11.8683 3.18273C12.1879 3.74949 12.3967 4.39722 12.4947 5.12591Z" fill="#161439"/>
</svg>
