<svg width="93" height="14" viewBox="0 0 93 14" fill="none" xmlns="http://www.w3.org/2000/svg">
<path d="M87.9286 13.9918C86.9443 13.9918 86.0941 13.7872 85.3782 13.3782C84.6665 12.9648 84.119 12.381 83.7354 11.6267C83.3519 10.8682 83.1602 9.97545 83.1602 8.94846C83.1602 7.93852 83.3519 7.05216 83.7354 6.28937C84.1232 5.52233 84.6644 4.92574 85.359 4.4996C86.0536 4.0692 86.8697 3.854 87.8072 3.854C88.4123 3.854 88.9833 3.95202 89.5202 4.14804C90.0614 4.3398 90.5387 4.63809 90.9521 5.04292C91.3697 5.44775 91.6978 5.96338 91.9364 6.5898C92.1751 7.21196 92.2944 7.95343 92.2944 8.81423V9.52375H84.2468V7.96409H90.0763C90.0721 7.52091 89.9762 7.12673 89.7887 6.78156C89.6012 6.43213 89.3391 6.15727 89.0025 5.95699C88.6701 5.7567 88.2823 5.65656 87.8391 5.65656C87.3661 5.65656 86.9506 5.77162 86.5927 6.00173C86.2347 6.22758 85.9556 6.52588 85.7553 6.89662C85.5593 7.26309 85.4592 7.66579 85.4549 8.10471V9.46622C85.4549 10.0372 85.5593 10.5273 85.7681 10.9364C85.9769 11.3412 86.2688 11.6523 86.6438 11.8696C87.0188 12.0827 87.4577 12.1892 87.9606 12.1892C88.2972 12.1892 88.6019 12.1424 88.8746 12.0486C89.1474 11.9506 89.3839 11.8078 89.5842 11.6203C89.7844 11.4328 89.9357 11.2006 90.038 10.9236L92.1985 11.1665C92.0621 11.7375 91.8022 12.2361 91.4187 12.6622C91.0394 13.0841 90.5536 13.4122 89.9613 13.6466C89.369 13.8767 88.6914 13.9918 87.9286 13.9918Z" fill="#161439"/>
<path d="M67.4258 13.8V3.98184H69.6374V5.65017H69.7525C69.957 5.08767 70.2958 4.64875 70.7688 4.33341C71.2418 4.0138 71.8065 3.854 72.4627 3.854C73.1275 3.854 73.6879 4.01594 74.1438 4.3398C74.604 4.6594 74.9279 5.09619 75.1154 5.65017H75.2177C75.435 5.10471 75.8015 4.67005 76.3171 4.34619C76.837 4.01807 77.4528 3.854 78.1644 3.854C79.0678 3.854 79.805 4.13952 80.3761 4.71054C80.9471 5.28156 81.2326 6.11466 81.2326 7.20983V13.8H78.9123V7.56778C78.9123 6.95841 78.7504 6.51309 78.4265 6.23184C78.1026 5.94633 77.7063 5.80358 77.2376 5.80358C76.6793 5.80358 76.2425 5.97829 75.9272 6.32772C75.6161 6.6729 75.4606 7.12247 75.4606 7.67645V13.8H73.1914V7.4719C73.1914 6.9648 73.038 6.55997 72.7312 6.25741C72.4286 5.95486 72.0323 5.80358 71.5423 5.80358C71.2099 5.80358 70.9073 5.8888 70.6346 6.05926C70.3619 6.22545 70.1445 6.46196 69.9826 6.76878C69.8207 7.07133 69.7397 7.42503 69.7397 7.82986V13.8H67.4258Z" fill="#161439"/>
<path d="M59.9183 13.9982C59.2962 13.9982 58.7358 13.8874 58.2372 13.6658C57.7429 13.4399 57.3508 13.1076 57.0611 12.6686C56.7756 12.2297 56.6328 11.6885 56.6328 11.0451C56.6328 10.4911 56.7351 10.033 56.9396 9.67076C57.1442 9.30855 57.4233 9.01878 57.777 8.80145C58.1307 8.58412 58.5291 8.42005 58.9723 8.30926C59.4197 8.1942 59.8821 8.11111 60.3594 8.05997C60.9347 8.00031 61.4013 7.94704 61.7592 7.90017C62.1172 7.84903 62.3771 7.77233 62.5391 7.67005C62.7053 7.56352 62.7883 7.39946 62.7883 7.17787V7.13952C62.7883 6.65798 62.6456 6.28511 62.3601 6.02091C62.0746 5.7567 61.6634 5.6246 61.1264 5.6246C60.5597 5.6246 60.1101 5.74818 59.7777 5.99534C59.4496 6.2425 59.228 6.5344 59.1129 6.87105L56.9524 6.56423C57.1229 5.96764 57.4041 5.46906 57.7962 5.06849C58.1882 4.66366 58.6676 4.36111 59.2344 4.16082C59.8011 3.95628 60.4276 3.854 61.1136 3.854C61.5866 3.854 62.0575 3.9094 62.5263 4.0202C62.995 4.13099 63.4233 4.31423 63.8111 4.56991C64.1989 4.82133 64.5099 5.16437 64.7443 5.59903C64.983 6.03369 65.1023 6.57701 65.1023 7.229V13.8H62.8778V12.4513H62.8011C62.6605 12.724 62.4624 12.9797 62.2067 13.2183C61.9553 13.4527 61.6378 13.6424 61.2543 13.7872C60.875 13.9279 60.4297 13.9982 59.9183 13.9982ZM60.5192 12.2979C60.9837 12.2979 61.3864 12.2063 61.7273 12.023C62.0682 11.8355 62.3303 11.5884 62.5135 11.2816C62.701 10.9747 62.7947 10.6402 62.7947 10.278V9.12105C62.7223 9.18071 62.5987 9.23611 62.424 9.28724C62.2535 9.33838 62.0618 9.38312 61.8487 9.42147C61.6357 9.45983 61.4247 9.49392 61.2159 9.52375C61.0071 9.55358 60.826 9.57915 60.6726 9.60045C60.3274 9.64733 60.0185 9.72403 59.7457 9.83057C59.473 9.9371 59.2578 10.0862 59.1001 10.278C58.9425 10.4655 58.8636 10.7084 58.8636 11.0067C58.8636 11.4328 59.0192 11.7546 59.3303 11.9719C59.6413 12.1892 60.0376 12.2979 60.5192 12.2979Z" fill="#161439"/>
<path d="M54.6094 0.709106V13.8H52.5L46.3317 4.88311H46.223V13.8H43.8516V0.709106H45.9737L52.1357 9.6324H52.2507V0.709106H54.6094Z" fill="#161439"/>
<path d="M37.3512 3.98191V5.77168H31.707V3.98191H37.3512ZM33.1005 1.62964H35.4144V10.847C35.4144 11.158 35.4613 11.3967 35.555 11.5629C35.6531 11.7248 35.7809 11.8356 35.9386 11.8953C36.0962 11.9549 36.271 11.9848 36.4627 11.9848C36.6076 11.9848 36.7397 11.9741 36.859 11.9528C36.9826 11.9315 37.0763 11.9123 37.1403 11.8953L37.5302 13.7042C37.4066 13.7468 37.2298 13.7937 36.9996 13.8448C36.7738 13.896 36.4968 13.9258 36.1687 13.9343C35.5891 13.9514 35.0671 13.864 34.6026 13.6723C34.1381 13.4762 33.7695 13.1737 33.4968 12.7646C33.2283 12.3555 33.0962 11.8441 33.1005 11.2305V1.62964Z" fill="#161439"/>
<path d="M30.3274 6.57702L28.218 6.80713C28.1584 6.59406 28.054 6.39378 27.9048 6.20628C27.7599 6.01878 27.5639 5.8675 27.3168 5.75244C27.0696 5.63738 26.767 5.57986 26.4091 5.57986C25.9276 5.57986 25.5227 5.68426 25.1946 5.89307C24.8707 6.10187 24.7109 6.37247 24.7152 6.70486C24.7109 6.99037 24.8153 7.22261 25.0284 7.40159C25.2457 7.58057 25.6037 7.72758 26.1023 7.84264L27.777 8.20059C28.706 8.40088 29.3963 8.71835 29.848 9.15301C30.304 9.58767 30.5341 10.1566 30.5384 10.8597C30.5341 11.4776 30.353 12.023 29.995 12.496C29.6413 12.9648 29.1491 13.3313 28.5185 13.5955C27.8878 13.8597 27.1634 13.9918 26.3452 13.9918C25.1435 13.9918 24.1761 13.7404 23.4432 13.2375C22.7102 12.7304 22.2734 12.0252 22.1328 11.1218L24.3892 10.9044C24.4915 11.3476 24.7088 11.6821 25.0412 11.908C25.3736 12.1338 25.8061 12.2468 26.3388 12.2468C26.8885 12.2468 27.3295 12.1338 27.6619 11.908C27.9986 11.6821 28.1669 11.403 28.1669 11.0706C28.1669 10.7894 28.0582 10.5571 27.8409 10.3739C27.6278 10.1907 27.2955 10.05 26.8438 9.95201L25.169 9.60045C24.2273 9.40443 23.5305 9.07417 23.0788 8.60969C22.6271 8.14094 22.4034 7.54861 22.4077 6.8327C22.4034 6.22758 22.5675 5.70344 22.8999 5.26025C23.2365 4.81281 23.7031 4.46764 24.2997 4.22474C24.9006 3.97758 25.593 3.854 26.3771 3.854C27.5277 3.854 28.4332 4.09903 29.0938 4.58909C29.7585 5.07915 30.1697 5.74179 30.3274 6.57702Z" fill="#161439"/>
<path d="M15.4297 13.8V3.98181H17.6733V5.61818H17.7756C17.9545 5.05141 18.2614 4.61462 18.696 4.30781C19.1349 3.99673 19.6357 3.84119 20.1982 3.84119C20.326 3.84119 20.4688 3.84758 20.6264 3.86036C20.7884 3.86889 20.9226 3.8838 21.0291 3.90511V6.03366C20.9311 5.99957 20.7756 5.96974 20.5625 5.94417C20.3537 5.91434 20.1513 5.89943 19.9553 5.89943C19.5334 5.89943 19.1541 5.99104 18.8175 6.17428C18.4851 6.35326 18.223 6.60255 18.0312 6.92215C17.8395 7.24176 17.7436 7.61036 17.7436 8.02798V13.8H15.4297Z" fill="#161439"/>
<path d="M10.7376 13.8V3.98183H13.0515V13.8H10.7376ZM11.9009 2.58837C11.5344 2.58837 11.2191 2.46692 10.9549 2.22402C10.6907 1.97686 10.5586 1.6807 10.5586 1.33553C10.5586 0.986095 10.6907 0.68993 10.9549 0.447032C11.2191 0.199873 11.5344 0.0762939 11.9009 0.0762939C12.2717 0.0762939 12.587 0.199873 12.8469 0.447032C13.1112 0.68993 13.2433 0.986095 13.2433 1.33553C13.2433 1.6807 13.1112 1.97686 12.8469 2.22402C12.587 2.46692 12.2717 2.58837 11.9009 2.58837Z" fill="#161439"/>
<path d="M0.292969 13.8V0.709106H8.67933V2.69703H2.66442V6.25101H8.10405V8.23894H2.66442V13.8H0.292969Z" fill="#161439"/>
</svg>
