<svg width="45" height="14" viewBox="0 0 45 14" fill="none" xmlns="http://www.w3.org/2000/svg">
<path d="M44.6225 0.709106V13.8H42.3086V0.709106H44.6225Z" fill="#161439"/>
<path d="M37.6165 13.8V3.98183H39.9304V13.8H37.6165ZM38.7798 2.58837C38.4133 2.58837 38.098 2.46692 37.8338 2.22402C37.5696 1.97686 37.4375 1.6807 37.4375 1.33553C37.4375 0.986095 37.5696 0.68993 37.8338 0.447032C38.098 0.199873 38.4133 0.0762939 38.7798 0.0762939C39.1506 0.0762939 39.4659 0.199873 39.7258 0.447032C39.9901 0.68993 40.1222 0.986095 40.1222 1.33553C40.1222 1.6807 39.9901 1.97686 39.7258 2.22402C39.4659 2.46692 39.1506 2.58837 38.7798 2.58837Z" fill="#161439"/>
<path d="M30.1019 13.9982C29.4798 13.9982 28.9194 13.8874 28.4208 13.6658C27.9265 13.4399 27.5344 13.1076 27.2447 12.6686C26.9592 12.2297 26.8164 11.6885 26.8164 11.0451C26.8164 10.4911 26.9187 10.033 27.1232 9.67076C27.3278 9.30855 27.6069 9.01878 27.9606 8.80145C28.3143 8.58412 28.7127 8.42005 29.1559 8.30926C29.6033 8.1942 30.0657 8.11111 30.543 8.05997C31.1183 8.00031 31.5849 7.94704 31.9428 7.90017C32.3008 7.84903 32.5607 7.77233 32.7227 7.67005C32.8889 7.56352 32.9719 7.39946 32.9719 7.17787V7.13952C32.9719 6.65798 32.8292 6.28511 32.5437 6.02091C32.2582 5.7567 31.8469 5.6246 31.31 5.6246C30.7433 5.6246 30.2937 5.74818 29.9613 5.99534C29.6332 6.2425 29.4116 6.5344 29.2965 6.87105L27.136 6.56423C27.3065 5.96764 27.5877 5.46906 27.9798 5.06849C28.3718 4.66366 28.8512 4.36111 29.418 4.16082C29.9847 3.95628 30.6112 3.854 31.2972 3.854C31.7702 3.854 32.2411 3.9094 32.7099 4.0202C33.1786 4.13099 33.6069 4.31423 33.9947 4.56991C34.3825 4.82133 34.6935 5.16437 34.9279 5.59903C35.1665 6.03369 35.2859 6.57701 35.2859 7.229V13.8H33.0614V12.4513H32.9847C32.8441 12.724 32.646 12.9797 32.3903 13.2183C32.1389 13.4527 31.8214 13.6424 31.4379 13.7872C31.0586 13.9279 30.6133 13.9982 30.1019 13.9982ZM30.7028 12.2979C31.1673 12.2979 31.57 12.2063 31.9109 12.023C32.2518 11.8355 32.5138 11.5884 32.6971 11.2816C32.8846 10.9747 32.9783 10.6402 32.9783 10.278V9.12105C32.9059 9.18071 32.7823 9.23611 32.6076 9.28724C32.4371 9.33838 32.2454 9.38312 32.0323 9.42147C31.8192 9.45983 31.6083 9.49392 31.3995 9.52375C31.1907 9.55358 31.0096 9.57915 30.8562 9.60045C30.511 9.64733 30.2021 9.72403 29.9293 9.83057C29.6566 9.9371 29.4414 10.0862 29.2837 10.278C29.1261 10.4655 29.0472 10.7084 29.0472 11.0067C29.0472 11.4328 29.2028 11.7546 29.5138 11.9719C29.8249 12.1892 30.2212 12.2979 30.7028 12.2979Z" fill="#161439"/>
<path d="M11.125 13.8V3.98184H13.3366V5.65017H13.4517C13.6562 5.08767 13.995 4.64875 14.468 4.33341C14.9411 4.0138 15.5057 3.854 16.1619 3.854C16.8267 3.854 17.3871 4.01594 17.843 4.3398C18.3033 4.6594 18.6271 5.09619 18.8146 5.65017H18.9169C19.1342 5.10471 19.5007 4.67005 20.0163 4.34619C20.5362 4.01807 21.152 3.854 21.8636 3.854C22.767 3.854 23.5043 4.13952 24.0753 4.71054C24.6463 5.28156 24.9318 6.11466 24.9318 7.20983V13.8H22.6115V7.56778C22.6115 6.95841 22.4496 6.51309 22.1257 6.23184C21.8018 5.94633 21.4055 5.80358 20.9368 5.80358C20.3785 5.80358 19.9418 5.97829 19.6264 6.32772C19.3153 6.6729 19.1598 7.12247 19.1598 7.67645V13.8H16.8906V7.4719C16.8906 6.9648 16.7372 6.55997 16.4304 6.25741C16.1278 5.95486 15.7315 5.80358 15.2415 5.80358C14.9091 5.80358 14.6065 5.8888 14.3338 6.05926C14.0611 6.22545 13.8438 6.46196 13.6818 6.76878C13.5199 7.07133 13.4389 7.42503 13.4389 7.82986V13.8H11.125Z" fill="#161439"/>
<path d="M0.292969 13.8V0.709106H8.80717V2.69703H2.66442V6.25101H8.36612V8.23894H2.66442V11.8121H8.85831V13.8H0.292969Z" fill="#161439"/>
</svg>
