<svg width="25" height="25" viewBox="0 0 25 25" fill="none" xmlns="http://www.w3.org/2000/svg">
<g clip-path="url(#clip0_6513_178)">
<g clip-path="url(#clip1_6513_178)">
<path fill-rule="evenodd" clip-rule="evenodd" d="M20.6092 12.9932C20.6092 12.3905 20.5551 11.811 20.4547 11.2546H12.4492V14.5425H17.0238C16.8267 15.6051 16.2278 16.5053 15.3276 17.108V19.2407H18.0747C19.6819 17.761 20.6092 15.5819 20.6092 12.9932Z" fill="#4285F4"/>
<path fill-rule="evenodd" clip-rule="evenodd" d="M12.4514 21.3C14.7464 21.3 16.6705 20.5389 18.0769 19.2407L15.3298 17.1079C14.5687 17.6179 13.5951 17.9193 12.4514 17.9193C10.2375 17.9193 8.36365 16.4241 7.69524 14.415H4.85547V16.6173C6.25411 19.3952 9.12866 21.3 12.4514 21.3Z" fill="#34A853"/>
<path fill-rule="evenodd" clip-rule="evenodd" d="M7.69309 14.4151C7.52309 13.9051 7.4265 13.3604 7.4265 12.8001C7.4265 12.2399 7.52309 11.6952 7.69309 11.1852V8.98291H4.85331C4.27763 10.1304 3.94922 11.4285 3.94922 12.8001C3.94922 14.1718 4.27763 15.4699 4.85331 16.6174L7.69309 14.4151Z" fill="#FBBC05"/>
<path fill-rule="evenodd" clip-rule="evenodd" d="M12.4514 7.68074C13.6994 7.68074 14.8198 8.1096 15.7007 8.95188L18.1387 6.51392C16.6667 5.14232 14.7426 4.30005 12.4514 4.30005C9.12865 4.30005 6.25411 6.20483 4.85547 8.98278L7.69524 11.185C8.36365 9.17597 10.2375 7.68074 12.4514 7.68074Z" fill="#EA4335"/>
</g>
</g>
<defs>
<clipPath id="clip0_6513_178">
<rect width="24" height="24" fill="white" transform="translate(0.449219 0.800049)"/>
</clipPath>
<clipPath id="clip1_6513_178">
<rect width="24" height="24" fill="white" transform="translate(0.449219 0.800049)"/>
</clipPath>
</defs>
</svg>
