<svg width="378" height="27" viewBox="0 0 378 27" fill="none" xmlns="http://www.w3.org/2000/svg">
<path d="M373.331 10.196V19.844C373.331 20.516 373.487 21.008 373.799 21.32C374.135 21.608 374.687 21.752 375.455 21.752H377.795V26H374.627C370.379 26 368.255 23.936 368.255 19.808V10.196H365.879V6.05596H368.255V1.12396H373.331V6.05596H377.795V10.196H373.331Z" fill="#161439"/>
<path d="M354.712 5.76794C357.088 5.76794 359.008 6.52394 360.472 8.03594C361.936 9.52395 362.668 11.6119 362.668 14.2999V25.9999H357.628V14.9839C357.628 13.3999 357.232 12.1879 356.44 11.3479C355.648 10.4839 354.568 10.0519 353.2 10.0519C351.808 10.0519 350.704 10.4839 349.888 11.3479C349.096 12.1879 348.7 13.3999 348.7 14.9839V25.9999H343.66V6.05595H348.7V8.53994C349.372 7.67594 350.224 7.00395 351.256 6.52395C352.312 6.01995 353.464 5.76794 354.712 5.76794Z" fill="#161439"/>
<path d="M338.688 6.05597V26H333.612V23.48C332.964 24.344 332.112 25.028 331.056 25.532C330.024 26.012 328.896 26.252 327.672 26.252C326.112 26.252 324.732 25.928 323.532 25.28C322.332 24.608 321.384 23.636 320.688 22.364C320.016 21.068 319.68 19.532 319.68 17.756V6.05597H324.72V17.036C324.72 18.62 325.116 19.844 325.908 20.708C326.7 21.548 327.78 21.968 329.148 21.968C330.54 21.968 331.632 21.548 332.424 20.708C333.216 19.844 333.612 18.62 333.612 17.036V6.05597H338.688Z" fill="#161439"/>
<path d="M305.761 26.324C303.841 26.324 302.113 25.904 300.577 25.064C299.041 24.2 297.829 22.988 296.941 21.428C296.077 19.868 295.645 18.068 295.645 16.028C295.645 13.988 296.089 12.188 296.977 10.628C297.889 9.068 299.125 7.868 300.685 7.028C302.245 6.16399 303.985 5.73199 305.905 5.73199C307.825 5.73199 309.565 6.16399 311.125 7.028C312.685 7.868 313.909 9.068 314.797 10.628C315.709 12.188 316.165 13.988 316.165 16.028C316.165 18.068 315.697 19.868 314.761 21.428C313.849 22.988 312.601 24.2 311.017 25.064C309.457 25.904 307.705 26.324 305.761 26.324ZM305.761 21.932C306.673 21.932 307.525 21.716 308.317 21.284C309.133 20.828 309.781 20.156 310.261 19.268C310.741 18.38 310.981 17.3 310.981 16.028C310.981 14.132 310.477 12.68 309.469 11.672C308.485 10.64 307.273 10.124 305.833 10.124C304.393 10.124 303.181 10.64 302.197 11.672C301.237 12.68 300.757 14.132 300.757 16.028C300.757 17.924 301.225 19.388 302.161 20.42C303.121 21.428 304.321 21.932 305.761 21.932Z" fill="#161439"/>
<path d="M273.953 16.028C273.953 13.964 274.373 12.164 275.213 10.628C276.053 9.068 277.217 7.868 278.705 7.028C280.193 6.16399 281.897 5.73199 283.817 5.73199C286.289 5.73199 288.329 6.35599 289.937 7.60399C291.569 8.82799 292.661 10.556 293.213 12.788H287.777C287.489 11.924 286.997 11.252 286.301 10.772C285.629 10.268 284.789 10.016 283.781 10.016C282.341 10.016 281.201 10.544 280.361 11.6C279.521 12.632 279.101 14.108 279.101 16.028C279.101 17.924 279.521 19.4 280.361 20.456C281.201 21.488 282.341 22.004 283.781 22.004C285.821 22.004 287.153 21.092 287.777 19.268H293.213C292.661 21.428 291.569 23.144 289.937 24.416C288.305 25.688 286.265 26.324 283.817 26.324C281.897 26.324 280.193 25.904 278.705 25.064C277.217 24.2 276.053 23 275.213 21.464C274.373 19.904 273.953 18.092 273.953 16.028Z" fill="#161439"/>
<path d="M252.297 16.028C252.297 13.964 252.717 12.164 253.557 10.628C254.397 9.068 255.561 7.868 257.049 7.028C258.537 6.16399 260.241 5.73199 262.161 5.73199C264.633 5.73199 266.673 6.35599 268.281 7.60399C269.913 8.82799 271.005 10.556 271.557 12.788H266.121C265.833 11.924 265.341 11.252 264.645 10.772C263.973 10.268 263.133 10.016 262.125 10.016C260.685 10.016 259.545 10.544 258.705 11.6C257.865 12.632 257.445 14.108 257.445 16.028C257.445 17.924 257.865 19.4 258.705 20.456C259.545 21.488 260.685 22.004 262.125 22.004C264.165 22.004 265.497 21.092 266.121 19.268H271.557C271.005 21.428 269.913 23.144 268.281 24.416C266.649 25.688 264.609 26.324 262.161 26.324C260.241 26.324 258.537 25.904 257.049 25.064C255.561 24.2 254.397 23 253.557 21.464C252.717 19.904 252.297 18.092 252.297 16.028Z" fill="#161439"/>
<path d="M243.229 21.212H233.221L231.565 26H226.273L235.309 0.835999H241.177L250.213 26H244.885L243.229 21.212ZM241.861 17.18L238.225 6.668L234.589 17.18H241.861Z" fill="#161439"/>
<path d="M209.728 9.15194C210.376 8.09594 211.216 7.26794 212.248 6.66794C213.304 6.06794 214.504 5.76794 215.848 5.76794V11.0599H214.516C212.932 11.0599 211.732 11.4319 210.916 12.1759C210.124 12.9199 209.728 14.2159 209.728 16.0639V25.9999H204.688V6.05595H209.728V9.15194Z" fill="#161439"/>
<path d="M199.715 6.05597V26H194.639V23.48C193.991 24.344 193.139 25.028 192.083 25.532C191.051 26.012 189.923 26.252 188.699 26.252C187.139 26.252 185.759 25.928 184.559 25.28C183.359 24.608 182.411 23.636 181.715 22.364C181.043 21.068 180.707 19.532 180.707 17.756V6.05597H185.747V17.036C185.747 18.62 186.143 19.844 186.935 20.708C187.727 21.548 188.807 21.968 190.175 21.968C191.567 21.968 192.659 21.548 193.451 20.708C194.243 19.844 194.639 18.62 194.639 17.036V6.05597H199.715Z" fill="#161439"/>
<path d="M166.788 26.324C164.868 26.324 163.14 25.904 161.604 25.064C160.068 24.2 158.856 22.988 157.968 21.428C157.104 19.868 156.672 18.068 156.672 16.028C156.672 13.988 157.116 12.188 158.004 10.628C158.916 9.068 160.152 7.868 161.712 7.028C163.272 6.16399 165.012 5.73199 166.932 5.73199C168.852 5.73199 170.592 6.16399 172.152 7.028C173.712 7.868 174.936 9.068 175.824 10.628C176.736 12.188 177.192 13.988 177.192 16.028C177.192 18.068 176.724 19.868 175.788 21.428C174.876 22.988 173.628 24.2 172.044 25.064C170.484 25.904 168.732 26.324 166.788 26.324ZM166.788 21.932C167.7 21.932 168.552 21.716 169.344 21.284C170.16 20.828 170.808 20.156 171.288 19.268C171.768 18.38 172.008 17.3 172.008 16.028C172.008 14.132 171.504 12.68 170.496 11.672C169.512 10.64 168.3 10.124 166.86 10.124C165.42 10.124 164.208 10.64 163.224 11.672C162.264 12.68 161.784 14.132 161.784 16.028C161.784 17.924 162.252 19.388 163.188 20.42C164.148 21.428 165.348 21.932 166.788 21.932Z" fill="#161439"/>
<path d="M155.025 0.871948L146.529 17.2519V25.9999H141.489V17.2519L132.957 0.871948H138.645L144.045 12.3559L149.409 0.871948H155.025Z" fill="#161439"/>
<path d="M122.789 15.596C122.789 16.316 122.741 16.964 122.645 17.54H108.065C108.185 18.98 108.689 20.108 109.577 20.924C110.465 21.74 111.557 22.148 112.853 22.148C114.725 22.148 116.057 21.344 116.849 19.736H122.285C121.709 21.656 120.605 23.24 118.973 24.488C117.341 25.712 115.337 26.324 112.961 26.324C111.041 26.324 109.313 25.904 107.777 25.064C106.265 24.2 105.077 22.988 104.213 21.428C103.373 19.868 102.953 18.068 102.953 16.028C102.953 13.964 103.373 12.152 104.213 10.592C105.053 9.03199 106.229 7.832 107.741 6.992C109.253 6.152 110.993 5.73199 112.961 5.73199C114.857 5.73199 116.549 6.13999 118.037 6.95599C119.549 7.77199 120.713 8.93599 121.529 10.448C122.369 11.936 122.789 13.652 122.789 15.596ZM117.569 14.156C117.545 12.86 117.077 11.828 116.165 11.06C115.253 10.268 114.137 9.87199 112.817 9.87199C111.569 9.87199 110.513 10.256 109.649 11.024C108.809 11.768 108.293 12.812 108.101 14.156H117.569Z" fill="#161439"/>
<path d="M96.159 10.196V19.844C96.159 20.516 96.315 21.008 96.627 21.32C96.963 21.608 97.515 21.752 98.283 21.752H100.623V26H97.455C93.207 26 91.083 23.936 91.083 19.808V10.196H88.707V6.05596H91.083V1.12396H96.159V6.05596H100.623V10.196H96.159Z" fill="#161439"/>
<path d="M64.5977 15.956C64.5977 13.94 64.9937 12.152 65.7857 10.592C66.6017 9.03199 67.6937 7.832 69.0617 6.992C70.4537 6.152 72.0016 5.73199 73.7057 5.73199C75.1937 5.73199 76.4897 6.03199 77.5937 6.63199C78.7217 7.23199 79.6217 7.988 80.2937 8.89999V6.05599H85.3697V26H80.2937V23.084C79.6457 24.02 78.7457 24.8 77.5937 25.424C76.4657 26.024 75.1577 26.324 73.6697 26.324C71.9897 26.324 70.4537 25.892 69.0617 25.028C67.6937 24.164 66.6017 22.952 65.7857 21.392C64.9937 19.808 64.5977 17.996 64.5977 15.956ZM80.2937 16.028C80.2937 14.804 80.0537 13.76 79.5737 12.896C79.0937 12.008 78.4457 11.336 77.6297 10.88C76.8137 10.4 75.9377 10.16 75.0017 10.16C74.0657 10.16 73.2017 10.388 72.4097 10.844C71.6177 11.3 70.9697 11.972 70.4657 12.86C69.9857 13.724 69.7457 14.756 69.7457 15.956C69.7457 17.156 69.9857 18.212 70.4657 19.124C70.9697 20.012 71.6177 20.696 72.4097 21.176C73.2257 21.656 74.0897 21.896 75.0017 21.896C75.9377 21.896 76.8137 21.668 77.6297 21.212C78.4457 20.732 79.0937 20.06 79.5737 19.196C80.0537 18.308 80.2937 17.252 80.2937 16.028Z" fill="#161439"/>
<path d="M62.2149 15.596C62.2149 16.316 62.1669 16.964 62.0709 17.54H47.4909C47.6109 18.98 48.1149 20.108 49.0029 20.924C49.8909 21.74 50.9829 22.148 52.2789 22.148C54.1509 22.148 55.4829 21.344 56.2749 19.736H61.7109C61.1349 21.656 60.0309 23.24 58.3989 24.488C56.7669 25.712 54.7629 26.324 52.3869 26.324C50.4669 26.324 48.7389 25.904 47.2029 25.064C45.6909 24.2 44.5029 22.988 43.6389 21.428C42.7989 19.868 42.3789 18.068 42.3789 16.028C42.3789 13.964 42.7989 12.152 43.6389 10.592C44.4789 9.03199 45.6549 7.832 47.1669 6.992C48.6789 6.152 50.4189 5.73199 52.3869 5.73199C54.2829 5.73199 55.9749 6.13999 57.4629 6.95599C58.9749 7.77199 60.1389 8.93599 60.9549 10.448C61.7949 11.936 62.2149 13.652 62.2149 15.596ZM56.9949 14.156C56.9709 12.86 56.5029 11.828 55.5909 11.06C54.6789 10.268 53.5629 9.87199 52.2429 9.87199C50.9949 9.87199 49.9389 10.256 49.0749 11.024C48.2349 11.768 47.7189 12.812 47.5269 14.156H56.9949Z" fill="#161439"/>
<path d="M34.1572 9.15194C34.8052 8.09594 35.6452 7.26794 36.6772 6.66794C37.7332 6.06794 38.9332 5.76794 40.2772 5.76794V11.0599H38.9452C37.3612 11.0599 36.1612 11.4319 35.3452 12.1759C34.5532 12.9199 34.1572 14.2159 34.1572 16.0639V25.9999H29.1172V6.05595H34.1572V9.15194Z" fill="#161439"/>
<path d="M0.261719 13.4C0.261719 10.928 0.813719 8.71997 1.91772 6.77597C3.04572 4.80797 4.56972 3.28397 6.48972 2.20397C8.43372 1.09997 10.6057 0.547974 13.0057 0.547974C15.8137 0.547974 18.2737 1.26797 20.3857 2.70797C22.4977 4.14797 23.9737 6.13997 24.8137 8.68397H19.0177C18.4417 7.48397 17.6257 6.58397 16.5697 5.98397C15.5377 5.38397 14.3377 5.08397 12.9697 5.08397C11.5057 5.08397 10.1977 5.43197 9.04572 6.12797C7.91772 6.79997 7.02972 7.75997 6.38172 9.00797C5.75772 10.256 5.44572 11.72 5.44572 13.4C5.44572 15.056 5.75772 16.52 6.38172 17.792C7.02972 19.04 7.91772 20.012 9.04572 20.708C10.1977 21.38 11.5057 21.716 12.9697 21.716C14.3377 21.716 15.5377 21.416 16.5697 20.816C17.6257 20.192 18.4417 19.28 19.0177 18.08H24.8137C23.9737 20.648 22.4977 22.652 20.3857 24.092C18.2977 25.508 15.8377 26.216 13.0057 26.216C10.6057 26.216 8.43372 25.676 6.48972 24.596C4.56972 23.492 3.04572 21.968 1.91772 20.024C0.813719 18.08 0.261719 15.872 0.261719 13.4Z" fill="#161439"/>
</svg>
