<svg width="586" height="41" viewBox="0 0 586 41" fill="none" xmlns="http://www.w3.org/2000/svg">
<path d="M158.686 29.1636L158.572 37.5273H157.254L157.141 29.1636H158.686ZM157.913 40.8909C157.633 40.8909 157.393 40.7905 157.192 40.5898C156.991 40.389 156.891 40.1485 156.891 39.8682C156.891 39.5879 156.991 39.3473 157.192 39.1466C157.393 38.9458 157.633 38.8455 157.913 38.8455C158.194 38.8455 158.434 38.9458 158.635 39.1466C158.836 39.3473 158.936 39.5879 158.936 39.8682C158.936 40.0538 158.889 40.2242 158.794 40.3795C158.703 40.5348 158.58 40.6598 158.425 40.7545C158.273 40.8455 158.103 40.8909 157.913 40.8909Z" fill="#6D6C80"/>
<path d="M154.736 34.0272L153.532 34.3681C153.456 34.1674 153.344 33.9723 153.196 33.7829C153.052 33.5897 152.855 33.4306 152.605 33.3056C152.355 33.1806 152.035 33.1181 151.645 33.1181C151.111 33.1181 150.666 33.2412 150.31 33.4875C149.958 33.7299 149.782 34.0386 149.782 34.4136C149.782 34.7469 149.903 35.0102 150.145 35.2034C150.388 35.3965 150.766 35.5575 151.282 35.6863L152.577 36.0045C153.357 36.1939 153.939 36.4837 154.321 36.8738C154.704 37.2602 154.895 37.7583 154.895 38.3681C154.895 38.8681 154.751 39.3151 154.463 39.709C154.179 40.103 153.782 40.4136 153.27 40.6409C152.759 40.8681 152.164 40.9818 151.486 40.9818C150.596 40.9818 149.859 40.7886 149.276 40.4022C148.693 40.0159 148.323 39.4515 148.168 38.709L149.441 38.3909C149.562 38.8606 149.791 39.2128 150.128 39.4477C150.469 39.6825 150.914 39.8 151.463 39.8C152.088 39.8 152.585 39.6674 152.952 39.4022C153.323 39.1333 153.509 38.8113 153.509 38.4363C153.509 38.1333 153.403 37.8795 153.191 37.675C152.979 37.4666 152.653 37.3113 152.213 37.209L150.759 36.8681C149.96 36.6787 149.373 36.3852 148.998 35.9875C148.626 35.5859 148.441 35.084 148.441 34.4818C148.441 33.9893 148.579 33.5537 148.855 33.175C149.136 32.7962 149.516 32.4988 149.998 32.2829C150.482 32.067 151.032 31.959 151.645 31.959C152.509 31.959 153.187 32.1484 153.679 32.5272C154.176 32.906 154.528 33.406 154.736 34.0272Z" fill="#6D6C80"/>
<path d="M144.757 40.8V32.0727H146.098V40.8H144.757ZM145.439 30.6182C145.178 30.6182 144.952 30.5292 144.763 30.3511C144.577 30.1731 144.484 29.9591 144.484 29.7091C144.484 29.4591 144.577 29.2451 144.763 29.067C144.952 28.889 145.178 28.8 145.439 28.8C145.7 28.8 145.924 28.889 146.109 29.067C146.299 29.2451 146.393 29.4591 146.393 29.7091C146.393 29.9591 146.299 30.1731 146.109 30.3511C145.924 30.5292 145.7 30.6182 145.439 30.6182Z" fill="#6D6C80"/>
<path d="M136.646 35.55V40.8H135.305V29.1636H136.646V33.4364H136.759C136.964 32.9856 137.271 32.6277 137.68 32.3625C138.093 32.0936 138.642 31.9591 139.327 31.9591C139.922 31.9591 140.443 32.0784 140.89 32.317C141.337 32.5519 141.683 32.9136 141.93 33.4023C142.18 33.8871 142.305 34.5045 142.305 35.2545V40.8H140.964V35.3455C140.964 34.6523 140.784 34.1163 140.424 33.7375C140.068 33.3549 139.574 33.1636 138.941 33.1636C138.502 33.1636 138.108 33.2564 137.759 33.442C137.415 33.6276 137.142 33.8985 136.941 34.2545C136.744 34.6106 136.646 35.0424 136.646 35.55Z" fill="#6D6C80"/>
<path d="M133.101 32.0727V33.2091H128.578V32.0727H133.101ZM129.896 29.9818H131.237V38.3C131.237 38.6788 131.292 38.9629 131.402 39.1523C131.516 39.3379 131.66 39.4629 131.834 39.5273C132.012 39.5879 132.199 39.6182 132.396 39.6182C132.544 39.6182 132.665 39.6106 132.76 39.5955C132.855 39.5765 132.93 39.5614 132.987 39.55L133.26 40.7545C133.169 40.7886 133.042 40.8227 132.879 40.8568C132.716 40.8947 132.51 40.9136 132.26 40.9136C131.881 40.9136 131.51 40.8322 131.146 40.6693C130.786 40.5064 130.487 40.2583 130.249 39.925C130.014 39.5917 129.896 39.1712 129.896 38.6636V29.9818Z" fill="#6D6C80"/>
<path d="M118.802 40.9818C118.014 40.9818 117.323 40.7943 116.728 40.4193C116.137 40.0443 115.675 39.5197 115.342 38.8454C115.012 38.1712 114.848 37.3833 114.848 36.4818C114.848 35.5727 115.012 34.7791 115.342 34.1011C115.675 33.4231 116.137 32.8965 116.728 32.5215C117.323 32.1465 118.014 31.959 118.802 31.959C119.59 31.959 120.279 32.1465 120.87 32.5215C121.465 32.8965 121.927 33.4231 122.257 34.1011C122.59 34.7791 122.757 35.5727 122.757 36.4818C122.757 37.3833 122.59 38.1712 122.257 38.8454C121.927 39.5197 121.465 40.0443 120.87 40.4193C120.279 40.7943 119.59 40.9818 118.802 40.9818ZM118.802 39.7772C119.401 39.7772 119.893 39.6238 120.279 39.317C120.666 39.0102 120.952 38.6068 121.137 38.1068C121.323 37.6068 121.416 37.0651 121.416 36.4818C121.416 35.8984 121.323 35.3549 121.137 34.8511C120.952 34.3473 120.666 33.9401 120.279 33.6295C119.893 33.3189 119.401 33.1636 118.802 33.1636C118.204 33.1636 117.711 33.3189 117.325 33.6295C116.939 33.9401 116.653 34.3473 116.467 34.8511C116.281 35.3549 116.189 35.8984 116.189 36.4818C116.189 37.0651 116.281 37.6068 116.467 38.1068C116.653 38.6068 116.939 39.0102 117.325 39.317C117.711 39.6238 118.204 39.7772 118.802 39.7772Z" fill="#6D6C80"/>
<path d="M108.615 40.9818C107.887 40.9818 107.245 40.7981 106.689 40.4307C106.132 40.0595 105.696 39.5367 105.382 38.8625C105.067 38.1845 104.91 37.3833 104.91 36.4591C104.91 35.5424 105.067 34.747 105.382 34.0727C105.696 33.3985 106.134 32.8777 106.694 32.5102C107.255 32.1428 107.903 31.9591 108.637 31.9591C109.206 31.9591 109.654 32.0538 109.984 32.2432C110.317 32.4288 110.571 32.6409 110.745 32.8795C110.923 33.1144 111.062 33.3076 111.16 33.4591H111.274V29.1636H112.615V40.8H111.319V39.4591H111.16C111.062 39.6182 110.922 39.8189 110.74 40.0614C110.558 40.3 110.298 40.514 109.961 40.7034C109.624 40.889 109.175 40.9818 108.615 40.9818ZM108.797 39.7773C109.334 39.7773 109.789 39.6371 110.16 39.3568C110.531 39.0727 110.814 38.6807 111.007 38.1807C111.2 37.6769 111.297 37.0955 111.297 36.4364C111.297 35.7848 111.202 35.2148 111.012 34.7261C110.823 34.2337 110.543 33.8511 110.172 33.5784C109.8 33.3019 109.342 33.1636 108.797 33.1636C108.228 33.1636 107.755 33.3095 107.376 33.6011C107.001 33.889 106.719 34.2811 106.529 34.7773C106.344 35.2697 106.251 35.8227 106.251 36.4364C106.251 37.0576 106.346 37.622 106.535 38.1295C106.728 38.6333 107.012 39.0348 107.387 39.3341C107.766 39.6295 108.236 39.7773 108.797 39.7773Z" fill="#6D6C80"/>
<path d="M98.6424 34.0272L97.4379 34.3681C97.3621 34.1674 97.2504 33.9723 97.1026 33.7829C96.9587 33.5897 96.7617 33.4306 96.5117 33.3056C96.2617 33.1806 95.9416 33.1181 95.5515 33.1181C95.0174 33.1181 94.5723 33.2412 94.2163 33.4875C93.864 33.7299 93.6879 34.0386 93.6879 34.4136C93.6879 34.7469 93.8091 35.0102 94.0515 35.2034C94.2939 35.3965 94.6727 35.5575 95.1879 35.6863L96.4833 36.0045C97.2636 36.1939 97.845 36.4837 98.2276 36.8738C98.6102 37.2602 98.8015 37.7583 98.8015 38.3681C98.8015 38.8681 98.6576 39.3151 98.3697 39.709C98.0856 40.103 97.6879 40.4136 97.1765 40.6409C96.6651 40.8681 96.0704 40.9818 95.3924 40.9818C94.5022 40.9818 93.7655 40.7886 93.1822 40.4022C92.5988 40.0159 92.2295 39.4515 92.0742 38.709L93.3469 38.3909C93.4682 38.8606 93.6973 39.2128 94.0344 39.4477C94.3754 39.6825 94.8204 39.8 95.3697 39.8C95.9947 39.8 96.4909 39.6674 96.8583 39.4022C97.2295 39.1333 97.4151 38.8113 97.4151 38.4363C97.4151 38.1333 97.3091 37.8795 97.0969 37.675C96.8848 37.4666 96.5591 37.3113 96.1197 37.209L94.6651 36.8681C93.8659 36.6787 93.2788 36.3852 92.9038 35.9875C92.5326 35.5859 92.3469 35.084 92.3469 34.4818C92.3469 33.9893 92.4852 33.5537 92.7617 33.175C93.042 32.7962 93.4227 32.4988 93.9038 32.2829C94.3886 32.067 94.9379 31.959 95.5515 31.959C96.4151 31.959 97.0932 32.1484 97.5856 32.5272C98.0818 32.906 98.4341 33.406 98.6424 34.0272Z" fill="#6D6C80"/>
<path d="M90.0742 29.1636V33.1636H88.8242V29.1636H90.0742Z" fill="#6D6C80"/>
<path d="M86.8977 32.0727V33.2091H82.375V32.0727H86.8977ZM83.6932 29.9818H85.0341V38.3C85.0341 38.6788 85.089 38.9629 85.1989 39.1523C85.3125 39.3379 85.4564 39.4629 85.6307 39.5273C85.8087 39.5879 85.9962 39.6182 86.1932 39.6182C86.3409 39.6182 86.4621 39.6106 86.5568 39.5955C86.6515 39.5765 86.7273 39.5614 86.7841 39.55L87.0568 40.7545C86.9659 40.7886 86.839 40.8227 86.6761 40.8568C86.5133 40.8947 86.3068 40.9136 86.0568 40.9136C85.678 40.9136 85.3068 40.8322 84.9432 40.6693C84.5833 40.5064 84.2841 40.2583 84.0455 39.925C83.8106 39.5917 83.6932 39.1712 83.6932 38.6636V29.9818Z" fill="#6D6C80"/>
<path d="M77.4471 40.9818C76.6062 40.9818 75.8808 40.7962 75.271 40.425C74.6649 40.05 74.1971 39.5272 73.8675 38.8568C73.5418 38.1825 73.3789 37.3984 73.3789 36.5045C73.3789 35.6106 73.5418 34.8227 73.8675 34.1409C74.1971 33.4553 74.6554 32.9212 75.2425 32.5386C75.8334 32.1522 76.5228 31.959 77.3107 31.959C77.7653 31.959 78.2141 32.0348 78.6573 32.1863C79.1005 32.3378 79.5039 32.584 79.8675 32.925C80.2312 33.2621 80.521 33.709 80.7369 34.2659C80.9528 34.8227 81.0607 35.5083 81.0607 36.3227V36.8909H74.3335V35.7318H79.6971C79.6971 35.2393 79.5986 34.8 79.4016 34.4136C79.2085 34.0272 78.9319 33.7223 78.5721 33.4988C78.216 33.2753 77.7956 33.1636 77.3107 33.1636C76.7766 33.1636 76.3145 33.2962 75.9244 33.5613C75.538 33.8227 75.2406 34.1636 75.0323 34.584C74.824 35.0045 74.7198 35.4553 74.7198 35.9363V36.709C74.7198 37.3681 74.8334 37.9268 75.0607 38.3852C75.2918 38.8397 75.6119 39.1863 76.021 39.425C76.43 39.6598 76.9054 39.7772 77.4471 39.7772C77.7994 39.7772 78.1175 39.728 78.4016 39.6295C78.6895 39.5272 78.9376 39.3757 79.146 39.175C79.3543 38.9704 79.5153 38.7166 79.6289 38.4136L80.9244 38.7772C80.788 39.2166 80.5588 39.603 80.2369 39.9363C79.9149 40.2659 79.5172 40.5234 79.0437 40.709C78.5702 40.8909 78.038 40.9818 77.4471 40.9818Z" fill="#6D6C80"/>
<path d="M64.9688 40.8V29.1636H66.3778V39.55H71.7869V40.8H64.9688Z" fill="#6D6C80"/>
<path d="M56.8587 40.8909C56.5784 40.8909 56.3378 40.7905 56.1371 40.5898C55.9363 40.389 55.8359 40.1485 55.8359 39.8682C55.8359 39.5879 55.9363 39.3474 56.1371 39.1466C56.3378 38.9458 56.5784 38.8455 56.8587 38.8455C57.139 38.8455 57.3795 38.9458 57.5803 39.1466C57.781 39.3474 57.8814 39.5879 57.8814 39.8682C57.8814 40.0538 57.834 40.2242 57.7393 40.3795C57.6484 40.5349 57.5253 40.6599 57.37 40.7545C57.2185 40.8455 57.0481 40.8909 56.8587 40.8909Z" fill="#6D6C80"/>
<path d="M49.2397 40.9818C48.5124 40.9818 47.8704 40.7981 47.3136 40.4307C46.7567 40.0595 46.3211 39.5367 46.0067 38.8625C45.6924 38.1845 45.5352 37.3833 45.5352 36.4591C45.5352 35.5424 45.6924 34.747 46.0067 34.0727C46.3211 33.3985 46.7586 32.8777 47.3192 32.5102C47.8799 32.1428 48.5276 31.9591 49.2624 31.9591C49.8306 31.9591 50.2795 32.0538 50.609 32.2432C50.9424 32.4288 51.1961 32.6409 51.3704 32.8795C51.5484 33.1144 51.6867 33.3076 51.7852 33.4591H51.8988V29.1636H53.2397V40.8H51.9442V39.4591H51.7852C51.6867 39.6182 51.5465 39.8189 51.3647 40.0614C51.1829 40.3 50.9234 40.514 50.5863 40.7034C50.2492 40.889 49.8003 40.9818 49.2397 40.9818ZM49.4215 39.7773C49.9594 39.7773 50.4139 39.6371 50.7852 39.3568C51.1564 39.0727 51.4386 38.6807 51.6317 38.1807C51.8249 37.6769 51.9215 37.0955 51.9215 36.4364C51.9215 35.7848 51.8268 35.2148 51.6374 34.7261C51.448 34.2337 51.1677 33.8511 50.7965 33.5784C50.4253 33.3019 49.967 33.1636 49.4215 33.1636C48.8533 33.1636 48.3799 33.3095 48.0011 33.6011C47.6261 33.889 47.3439 34.2811 47.1545 34.7773C46.9689 35.2697 46.8761 35.8227 46.8761 36.4364C46.8761 37.0576 46.9708 37.622 47.1602 38.1295C47.3533 38.6333 47.6374 39.0348 48.0124 39.3341C48.3912 39.6295 48.8609 39.7773 49.4215 39.7773Z" fill="#6D6C80"/>
<path d="M40.2908 40.9818C39.4499 40.9818 38.7246 40.7962 38.1147 40.425C37.5086 40.05 37.0408 39.5272 36.7113 38.8568C36.3855 38.1825 36.2227 37.3984 36.2227 36.5045C36.2227 35.6106 36.3855 34.8227 36.7113 34.1409C37.0408 33.4553 37.4992 32.9212 38.0863 32.5386C38.6772 32.1522 39.3666 31.959 40.1545 31.959C40.609 31.959 41.0579 32.0348 41.5011 32.1863C41.9443 32.3378 42.3477 32.584 42.7113 32.925C43.0749 33.2621 43.3647 33.709 43.5806 34.2659C43.7965 34.8227 43.9045 35.5083 43.9045 36.3227V36.8909H37.1772V35.7318H42.5408C42.5408 35.2393 42.4424 34.8 42.2454 34.4136C42.0522 34.0272 41.7757 33.7223 41.4158 33.4988C41.0598 33.2753 40.6393 33.1636 40.1545 33.1636C39.6204 33.1636 39.1583 33.2962 38.7681 33.5613C38.3817 33.8227 38.0844 34.1636 37.8761 34.584C37.6677 35.0045 37.5636 35.4553 37.5636 35.9363V36.709C37.5636 37.3681 37.6772 37.9268 37.9045 38.3852C38.1355 38.8397 38.4556 39.1863 38.8647 39.425C39.2738 39.6598 39.7492 39.7772 40.2908 39.7772C40.6431 39.7772 40.9613 39.728 41.2454 39.6295C41.5333 39.5272 41.7814 39.3757 41.9897 39.175C42.198 38.9704 42.359 38.7166 42.4727 38.4136L43.7681 38.7772C43.6317 39.2166 43.4026 39.603 43.0806 39.9363C42.7586 40.2659 42.3609 40.5234 41.8874 40.709C41.4139 40.8909 40.8817 40.9818 40.2908 40.9818Z" fill="#6D6C80"/>
<path d="M34.7102 32.0727V33.2091H30.1875V32.0727H34.7102ZM31.5057 29.9818H32.8466V38.3C32.8466 38.6788 32.9015 38.9629 33.0114 39.1523C33.125 39.3379 33.2689 39.4629 33.4432 39.5273C33.6212 39.5879 33.8087 39.6182 34.0057 39.6182C34.1534 39.6182 34.2746 39.6106 34.3693 39.5955C34.464 39.5765 34.5398 39.5614 34.5966 39.55L34.8693 40.7545C34.7784 40.7886 34.6515 40.8227 34.4886 40.8568C34.3258 40.8947 34.1193 40.9136 33.8693 40.9136C33.4905 40.9136 33.1193 40.8322 32.7557 40.6693C32.3958 40.5064 32.0966 40.2583 31.858 39.925C31.6231 39.5917 31.5057 39.1712 31.5057 38.6636V29.9818Z" fill="#6D6C80"/>
<path d="M24.4141 40.8V32.0727H25.7095V33.3909H25.8004C25.9595 32.9591 26.2474 32.6087 26.6641 32.3397C27.0807 32.0708 27.5504 31.9363 28.0732 31.9363C28.1716 31.9363 28.2947 31.9382 28.4425 31.942C28.5902 31.9458 28.7019 31.9515 28.7777 31.9591V33.3227C28.7322 33.3113 28.6281 33.2943 28.4652 33.2716C28.3061 33.2451 28.1375 33.2318 27.9595 33.2318C27.5353 33.2318 27.1565 33.3208 26.8232 33.4988C26.4936 33.6731 26.2322 33.9155 26.0391 34.2261C25.8497 34.5329 25.755 34.8833 25.755 35.2772V40.8H24.4141Z" fill="#6D6C80"/>
<path d="M17.9656 41.0045C17.4125 41.0045 16.9106 40.9003 16.4599 40.692C16.0091 40.4799 15.6512 40.175 15.386 39.7772C15.1209 39.3757 14.9883 38.8909 14.9883 38.3227C14.9883 37.8227 15.0868 37.4174 15.2837 37.1068C15.4807 36.7924 15.744 36.5462 16.0735 36.3681C16.4031 36.1901 16.7667 36.0575 17.1644 35.9704C17.5659 35.8795 17.9693 35.8075 18.3746 35.7545C18.9049 35.6863 19.3349 35.6352 19.6644 35.6011C19.9978 35.5632 20.2402 35.5007 20.3917 35.4136C20.547 35.3265 20.6246 35.175 20.6246 34.959V34.9136C20.6246 34.353 20.4712 33.9174 20.1644 33.6068C19.8614 33.2962 19.4012 33.1409 18.7837 33.1409C18.1436 33.1409 17.6417 33.281 17.2781 33.5613C16.9144 33.8416 16.6587 34.1409 16.511 34.459L15.2383 34.0045C15.4656 33.4742 15.7686 33.0613 16.1474 32.7659C16.5299 32.4666 16.9466 32.2583 17.3974 32.1409C17.8519 32.0196 18.2989 31.959 18.7383 31.959C19.0186 31.959 19.3406 31.9931 19.7042 32.0613C20.0716 32.1257 20.4258 32.2602 20.7667 32.4647C21.1114 32.6693 21.3974 32.978 21.6246 33.3909C21.8519 33.8037 21.9656 34.3568 21.9656 35.05V40.8H20.6246V39.6181H20.5565C20.4656 39.8075 20.314 40.0102 20.1019 40.2261C19.8898 40.442 19.6076 40.6257 19.2553 40.7772C18.9031 40.9287 18.4731 41.0045 17.9656 41.0045ZM18.1701 39.8C18.7004 39.8 19.1474 39.6958 19.511 39.4875C19.8784 39.2791 20.1549 39.0102 20.3406 38.6806C20.5299 38.3511 20.6246 38.0045 20.6246 37.6409V36.4136C20.5678 36.4818 20.4428 36.5443 20.2496 36.6011C20.0603 36.6541 19.8406 36.7015 19.5906 36.7431C19.3443 36.781 19.1038 36.8151 18.869 36.8454C18.6379 36.8719 18.4504 36.8946 18.3065 36.9136C17.958 36.959 17.6322 37.0329 17.3292 37.1352C17.0299 37.2337 16.7875 37.3833 16.6019 37.584C16.4201 37.781 16.3292 38.05 16.3292 38.3909C16.3292 38.8568 16.5015 39.209 16.8462 39.4477C17.1947 39.6825 17.636 39.8 18.1701 39.8Z" fill="#6D6C80"/>
<path d="M13.3821 32.0727V33.2091H8.85938V32.0727H13.3821ZM10.1776 29.9818H11.5185V38.3C11.5185 38.6788 11.5734 38.9629 11.6832 39.1523C11.7969 39.3379 11.9408 39.4629 12.1151 39.5273C12.2931 39.5879 12.4806 39.6182 12.6776 39.6182C12.8253 39.6182 12.9465 39.6106 13.0412 39.5955C13.1359 39.5765 13.2116 39.5614 13.2685 39.55L13.5412 40.7545C13.4503 40.7886 13.3234 40.8227 13.1605 40.8568C12.9976 40.8947 12.7912 40.9136 12.5412 40.9136C12.1624 40.9136 11.7912 40.8322 11.4276 40.6693C11.0677 40.5064 10.7685 40.2583 10.5298 39.925C10.295 39.5917 10.1776 39.1712 10.1776 38.6636V29.9818Z" fill="#6D6C80"/>
<path d="M7.40803 34.0272L6.20348 34.3681C6.12772 34.1674 6.01598 33.9723 5.86825 33.7829C5.72431 33.5897 5.52734 33.4306 5.27734 33.3056C5.02734 33.1806 4.70727 33.1181 4.31712 33.1181C3.78303 33.1181 3.33795 33.2412 2.98189 33.4875C2.62962 33.7299 2.45348 34.0386 2.45348 34.4136C2.45348 34.7469 2.57469 35.0102 2.81712 35.2034C3.05954 35.3965 3.43833 35.5575 3.95348 35.6863L5.24893 36.0045C6.02924 36.1939 6.61068 36.4837 6.99325 36.8738C7.37583 37.2602 7.56712 37.7583 7.56712 38.3681C7.56712 38.8681 7.42318 39.3151 7.1353 39.709C6.85121 40.103 6.45348 40.4136 5.94212 40.6409C5.43075 40.8681 4.83606 40.9818 4.15803 40.9818C3.26787 40.9818 2.53113 40.7886 1.9478 40.4022C1.36446 40.0159 0.995147 39.4515 0.839844 38.709L2.11257 38.3909C2.23378 38.8606 2.46295 39.2128 2.80007 39.4477C3.14098 39.6825 3.58606 39.8 4.1353 39.8C4.7603 39.8 5.25651 39.6674 5.62393 39.4022C5.99515 39.1333 6.18075 38.8113 6.18075 38.4363C6.18075 38.1333 6.07469 37.8795 5.86257 37.675C5.65045 37.4666 5.32469 37.3113 4.8853 37.209L3.43075 36.8681C2.63151 36.6787 2.04439 36.3852 1.66939 35.9875C1.29818 35.5859 1.11257 35.084 1.11257 34.4818C1.11257 33.9893 1.25083 33.5537 1.52734 33.175C1.80765 32.7962 2.18833 32.4988 2.66939 32.2829C3.15424 32.067 3.70348 31.959 4.31712 31.959C5.18075 31.959 5.85878 32.1484 6.35121 32.5272C6.84742 32.906 7.19969 33.406 7.40803 34.0272Z" fill="#6D6C80"/>
<path d="M585.288 4.07272V5.20908H580.766V4.07272H585.288ZM582.084 1.98181H583.425V10.3C583.425 10.6788 583.48 10.9629 583.589 11.1523C583.703 11.3379 583.847 11.4629 584.021 11.5273C584.199 11.5879 584.387 11.6182 584.584 11.6182C584.732 11.6182 584.853 11.6106 584.947 11.5954C585.042 11.5765 585.118 11.5614 585.175 11.55L585.447 12.7545C585.357 12.7886 585.23 12.8227 585.067 12.8568C584.904 12.8947 584.697 12.9136 584.447 12.9136C584.069 12.9136 583.697 12.8322 583.334 12.6693C582.974 12.5064 582.675 12.2583 582.436 11.925C582.201 11.5917 582.084 11.1712 582.084 10.6636V1.98181Z" fill="#6D6C80"/>
<path d="M575.838 12.9818C574.997 12.9818 574.271 12.7962 573.662 12.425C573.055 12.05 572.588 11.5272 572.258 10.8568C571.932 10.1825 571.77 9.39844 571.77 8.5045C571.77 7.61056 571.932 6.82268 572.258 6.14086C572.588 5.45526 573.046 4.92117 573.633 4.53859C574.224 4.15223 574.913 3.95905 575.701 3.95905C576.156 3.95905 576.605 4.0348 577.048 4.18632C577.491 4.33783 577.895 4.58405 578.258 4.92495C578.622 5.26208 578.912 5.70905 579.128 6.26586C579.343 6.82268 579.451 7.50829 579.451 8.32268V8.89086H572.724V7.73177H578.088C578.088 7.23935 577.989 6.79995 577.792 6.41359C577.599 6.02723 577.323 5.7223 576.963 5.49882C576.607 5.27533 576.186 5.16359 575.701 5.16359C575.167 5.16359 574.705 5.29617 574.315 5.56132C573.929 5.82268 573.631 6.16359 573.423 6.58404C573.215 7.0045 573.11 7.45526 573.11 7.93632V8.70905C573.11 9.36814 573.224 9.92685 573.451 10.3852C573.682 10.8397 574.002 11.1863 574.412 11.425C574.821 11.6598 575.296 11.7772 575.838 11.7772C576.19 11.7772 576.508 11.728 576.792 11.6295C577.08 11.5272 577.328 11.3757 577.537 11.175C577.745 10.9704 577.906 10.7166 578.02 10.4136L579.315 10.7772C579.179 11.2166 578.949 11.603 578.628 11.9363C578.306 12.2659 577.908 12.5234 577.434 12.709C576.961 12.8909 576.429 12.9818 575.838 12.9818Z" fill="#6D6C80"/>
<path d="M565.951 16.2545C565.304 16.2545 564.747 16.1712 564.281 16.0045C563.815 15.8416 563.427 15.6257 563.116 15.3568C562.809 15.0916 562.565 14.8075 562.383 14.5045L563.451 13.7545C563.573 13.9136 563.726 14.0954 563.912 14.3C564.097 14.5083 564.351 14.6882 564.673 14.8397C564.999 14.995 565.425 15.0727 565.951 15.0727C566.656 15.0727 567.237 14.9022 567.696 14.5613C568.154 14.2204 568.383 13.6863 568.383 12.959V11.1863H568.27C568.171 11.3454 568.031 11.5424 567.849 11.7772C567.671 12.0083 567.413 12.2147 567.076 12.3965C566.743 12.5746 566.292 12.6636 565.724 12.6636C565.02 12.6636 564.387 12.4969 563.826 12.1636C563.27 11.8303 562.828 11.3454 562.503 10.709C562.181 10.0727 562.02 9.29995 562.02 8.39086C562.02 7.49692 562.177 6.71852 562.491 6.05564C562.806 5.38897 563.243 4.87382 563.804 4.51018C564.364 4.14276 565.012 3.95905 565.747 3.95905C566.315 3.95905 566.766 4.05374 567.099 4.24314C567.436 4.42874 567.694 4.64086 567.872 4.8795C568.054 5.11435 568.194 5.30753 568.292 5.45904H568.429V4.07268H569.724V13.05C569.724 13.8 569.554 14.4098 569.213 14.8795C568.876 15.353 568.421 15.6996 567.849 15.9193C567.281 16.1428 566.648 16.2545 565.951 16.2545ZM565.906 11.459C566.444 11.459 566.898 11.3359 567.27 11.0897C567.641 10.8435 567.923 10.4893 568.116 10.0272C568.309 9.5651 568.406 9.01208 568.406 8.36814C568.406 7.73935 568.311 7.18442 568.122 6.70336C567.932 6.2223 567.652 5.84541 567.281 5.57268C566.91 5.29995 566.451 5.16359 565.906 5.16359C565.338 5.16359 564.864 5.30753 564.485 5.59541C564.11 5.88329 563.828 6.26965 563.639 6.7545C563.453 7.23935 563.36 7.77723 563.36 8.36814C563.36 8.9742 563.455 9.51018 563.645 9.97609C563.838 10.4382 564.122 10.8018 564.497 11.067C564.876 11.3284 565.345 11.459 565.906 11.459Z" fill="#6D6C80"/>
<path d="M551.927 12.9818C551.139 12.9818 550.448 12.7943 549.853 12.4193C549.262 12.0443 548.8 11.5197 548.467 10.8454C548.137 10.1712 547.973 9.38329 547.973 8.48177C547.973 7.57268 548.137 6.77912 548.467 6.10109C548.8 5.42306 549.262 4.89655 549.853 4.52155C550.448 4.14655 551.139 3.95905 551.927 3.95905C552.715 3.95905 553.404 4.14655 553.995 4.52155C554.59 4.89655 555.052 5.42306 555.382 6.10109C555.715 6.77912 555.882 7.57268 555.882 8.48177C555.882 9.38329 555.715 10.1712 555.382 10.8454C555.052 11.5197 554.59 12.0443 553.995 12.4193C553.404 12.7943 552.715 12.9818 551.927 12.9818ZM551.927 11.7772C552.526 11.7772 553.018 11.6238 553.404 11.317C553.791 11.0102 554.077 10.6068 554.262 10.1068C554.448 9.60677 554.541 9.06511 554.541 8.48177C554.541 7.89844 554.448 7.35488 554.262 6.85109C554.077 6.3473 553.791 5.94011 553.404 5.6295C553.018 5.31889 552.526 5.16359 551.927 5.16359C551.329 5.16359 550.836 5.31889 550.45 5.6295C550.064 5.94011 549.778 6.3473 549.592 6.85109C549.406 7.35488 549.314 7.89844 549.314 8.48177C549.314 9.06511 549.406 9.60677 549.592 10.1068C549.778 10.6068 550.064 11.0102 550.45 11.317C550.836 11.6238 551.329 11.7772 551.927 11.7772Z" fill="#6D6C80"/>
<path d="M546.46 4.07272V5.20908H541.938V4.07272H546.46ZM543.256 1.98181H544.597V10.3C544.597 10.6788 544.652 10.9629 544.761 11.1523C544.875 11.3379 545.019 11.4629 545.193 11.5273C545.371 11.5879 545.559 11.6182 545.756 11.6182C545.903 11.6182 546.025 11.6106 546.119 11.5954C546.214 11.5765 546.29 11.5614 546.347 11.55L546.619 12.7545C546.528 12.7886 546.402 12.8227 546.239 12.8568C546.076 12.8947 545.869 12.9136 545.619 12.9136C545.241 12.9136 544.869 12.8322 544.506 12.6693C544.146 12.5064 543.847 12.2583 543.608 11.925C543.373 11.5917 543.256 11.1712 543.256 10.6636V1.98181Z" fill="#6D6C80"/>
<path d="M534.367 9.23178V4.07269H535.708V12.8H534.367V11.3227H534.276C534.072 11.7659 533.754 12.1428 533.322 12.4534C532.89 12.7602 532.344 12.9136 531.685 12.9136C531.14 12.9136 530.655 12.7943 530.231 12.5556C529.807 12.3132 529.473 11.9496 529.231 11.4647C528.988 10.9761 528.867 10.3606 528.867 9.61815V4.07269H530.208V9.52724C530.208 10.1636 530.386 10.6712 530.742 11.05C531.102 11.4288 531.56 11.6181 532.117 11.6181C532.451 11.6181 532.79 11.5329 533.134 11.3625C533.483 11.192 533.774 10.9306 534.009 10.5784C534.248 10.2261 534.367 9.77724 534.367 9.23178Z" fill="#6D6C80"/>
<path d="M522.865 12.9818C522.077 12.9818 521.386 12.7943 520.791 12.4193C520.2 12.0443 519.738 11.5197 519.404 10.8454C519.075 10.1712 518.91 9.38329 518.91 8.48177C518.91 7.57268 519.075 6.77912 519.404 6.10109C519.738 5.42306 520.2 4.89655 520.791 4.52155C521.386 4.14655 522.077 3.95905 522.865 3.95905C523.653 3.95905 524.342 4.14655 524.933 4.52155C525.528 4.89655 525.99 5.42306 526.319 6.10109C526.653 6.77912 526.819 7.57268 526.819 8.48177C526.819 9.38329 526.653 10.1712 526.319 10.8454C525.99 11.5197 525.528 12.0443 524.933 12.4193C524.342 12.7943 523.653 12.9818 522.865 12.9818ZM522.865 11.7772C523.463 11.7772 523.956 11.6238 524.342 11.317C524.728 11.0102 525.014 10.6068 525.2 10.1068C525.386 9.60677 525.478 9.06511 525.478 8.48177C525.478 7.89844 525.386 7.35488 525.2 6.85109C525.014 6.3473 524.728 5.94011 524.342 5.6295C523.956 5.31889 523.463 5.16359 522.865 5.16359C522.266 5.16359 521.774 5.31889 521.387 5.6295C521.001 5.94011 520.715 6.3473 520.529 6.85109C520.344 7.35488 520.251 7.89844 520.251 8.48177C520.251 9.06511 520.344 9.60677 520.529 10.1068C520.715 10.6068 521.001 11.0102 521.387 11.317C521.774 11.6238 522.266 11.7772 522.865 11.7772Z" fill="#6D6C80"/>
<path d="M511.588 16.0727C511.361 16.0727 511.158 16.0538 510.98 16.0159C510.802 15.9818 510.679 15.9477 510.611 15.9136L510.952 14.7318C511.278 14.8151 511.566 14.8454 511.816 14.8227C512.066 14.8 512.287 14.6882 512.48 14.4875C512.677 14.2905 512.857 13.9704 513.02 13.5272L513.27 12.8454L510.043 4.07269H511.498L513.907 11.0272H513.998L516.407 4.07269H517.861L514.157 14.0727C513.99 14.5235 513.784 14.8966 513.537 15.192C513.291 15.4913 513.005 15.7128 512.679 15.8568C512.357 16.0007 511.994 16.0727 511.588 16.0727Z" fill="#6D6C80"/>
<path d="M492.32 12.8V4.07268H493.616V5.43632H493.729C493.911 4.97041 494.205 4.60867 494.61 4.35109C495.015 4.08973 495.502 3.95905 496.07 3.95905C496.646 3.95905 497.125 4.08973 497.508 4.35109C497.894 4.60867 498.195 4.97041 498.411 5.43632H498.502C498.726 4.98556 499.061 4.62761 499.508 4.36245C499.955 4.09352 500.491 3.95905 501.116 3.95905C501.896 3.95905 502.534 4.20336 503.031 4.692C503.527 5.17685 503.775 5.93253 503.775 6.95904V12.8H502.434V6.95904C502.434 6.31511 502.258 5.85488 501.906 5.57836C501.553 5.30185 501.138 5.16359 500.661 5.16359C500.048 5.16359 499.572 5.3492 499.235 5.72041C498.898 6.08783 498.729 6.55374 498.729 7.11814V12.8H497.366V6.82268C497.366 6.32647 497.205 5.92685 496.883 5.62382C496.561 5.317 496.146 5.16359 495.638 5.16359C495.29 5.16359 494.964 5.25639 494.661 5.442C494.362 5.62761 494.12 5.88518 493.934 6.21473C493.752 6.54048 493.661 6.91738 493.661 7.34541V12.8H492.32Z" fill="#6D6C80"/>
<path d="M486.318 12.9818C485.53 12.9818 484.839 12.7943 484.244 12.4193C483.653 12.0443 483.191 11.5197 482.858 10.8454C482.528 10.1712 482.363 9.38329 482.363 8.48177C482.363 7.57268 482.528 6.77912 482.858 6.10109C483.191 5.42306 483.653 4.89655 484.244 4.52155C484.839 4.14655 485.53 3.95905 486.318 3.95905C487.106 3.95905 487.795 4.14655 488.386 4.52155C488.981 4.89655 489.443 5.42306 489.772 6.10109C490.106 6.77912 490.272 7.57268 490.272 8.48177C490.272 9.38329 490.106 10.1712 489.772 10.8454C489.443 11.5197 488.981 12.0443 488.386 12.4193C487.795 12.7943 487.106 12.9818 486.318 12.9818ZM486.318 11.7772C486.916 11.7772 487.409 11.6238 487.795 11.317C488.181 11.0102 488.467 10.6068 488.653 10.1068C488.839 9.60677 488.931 9.06511 488.931 8.48177C488.931 7.89844 488.839 7.35488 488.653 6.85109C488.467 6.3473 488.181 5.94011 487.795 5.6295C487.409 5.31889 486.916 5.16359 486.318 5.16359C485.719 5.16359 485.227 5.31889 484.841 5.6295C484.454 5.94011 484.168 6.3473 483.983 6.85109C483.797 7.35488 483.704 7.89844 483.704 8.48177C483.704 9.06511 483.797 9.60677 483.983 10.1068C484.168 10.6068 484.454 11.0102 484.841 11.317C485.227 11.6238 485.719 11.7772 486.318 11.7772Z" fill="#6D6C80"/>
<path d="M477.086 12.8V4.0727H478.381V5.39089H478.472C478.631 4.95907 478.919 4.60869 479.336 4.33975C479.753 4.07081 480.222 3.93634 480.745 3.93634C480.844 3.93634 480.967 3.93823 481.114 3.94202C481.262 3.94581 481.374 3.95149 481.45 3.95907V5.3227C481.404 5.31134 481.3 5.29429 481.137 5.27157C480.978 5.24505 480.809 5.2318 480.631 5.2318C480.207 5.2318 479.828 5.32081 479.495 5.49884C479.165 5.67308 478.904 5.91551 478.711 6.22611C478.522 6.53293 478.427 6.88331 478.427 7.27725V12.8H477.086Z" fill="#6D6C80"/>
<path d="M475.205 4.07271V5.20907H470.5V4.07271H475.205ZM471.909 12.8V2.86817C471.909 2.36816 472.027 1.9515 472.261 1.61816C472.496 1.28483 472.801 1.03483 473.176 0.868164C473.551 0.701497 473.947 0.618164 474.364 0.618164C474.693 0.618164 474.962 0.644679 475.17 0.69771C475.379 0.75074 475.534 0.799982 475.636 0.845437L475.25 2.00453C475.182 1.9818 475.087 1.95339 474.966 1.9193C474.848 1.88521 474.693 1.86816 474.5 1.86816C474.057 1.86816 473.737 1.97991 473.54 2.20339C473.347 2.42688 473.25 2.75453 473.25 3.18635V12.8H471.909Z" fill="#6D6C80"/>
<path d="M464.642 6.02723L463.438 6.36814C463.362 6.16738 463.25 5.9723 463.103 5.78291C462.959 5.58973 462.762 5.43064 462.512 5.30564C462.262 5.18064 461.942 5.11814 461.551 5.11814C461.017 5.11814 460.572 5.24124 460.216 5.48745C459.864 5.72988 459.688 6.03859 459.688 6.41359C459.688 6.74692 459.809 7.01018 460.051 7.20336C460.294 7.39655 460.673 7.55753 461.188 7.68632L462.483 8.0045C463.264 8.19389 463.845 8.48367 464.228 8.87382C464.61 9.26018 464.801 9.75829 464.801 10.3681C464.801 10.8681 464.658 11.3151 464.37 11.709C464.086 12.103 463.688 12.4136 463.176 12.6409C462.665 12.8681 462.07 12.9818 461.392 12.9818C460.502 12.9818 459.765 12.7886 459.182 12.4022C458.599 12.0159 458.23 11.4515 458.074 10.709L459.347 10.3909C459.468 10.8606 459.697 11.2128 460.034 11.4477C460.375 11.6825 460.82 11.8 461.37 11.8C461.995 11.8 462.491 11.6674 462.858 11.4022C463.23 11.1333 463.415 10.8113 463.415 10.4363C463.415 10.1333 463.309 9.8795 463.097 9.67495C462.885 9.46662 462.559 9.31132 462.12 9.20904L460.665 8.86814C459.866 8.67874 459.279 8.38518 458.904 7.98745C458.533 7.58594 458.347 7.08405 458.347 6.48177C458.347 5.98935 458.485 5.55374 458.762 5.17495C459.042 4.79617 459.423 4.49882 459.904 4.28291C460.389 4.067 460.938 3.95905 461.551 3.95905C462.415 3.95905 463.093 4.14844 463.586 4.52723C464.082 4.90601 464.434 5.40601 464.642 6.02723Z" fill="#6D6C80"/>
<path d="M456.005 1.16364V12.8H454.664V1.16364H456.005Z" fill="#6D6C80"/>
<path d="M450.866 12.8V4.07271H452.207V12.8H450.866ZM451.548 2.61817C451.287 2.61817 451.062 2.52915 450.872 2.35112C450.687 2.17309 450.594 1.95908 450.594 1.70908C450.594 1.45908 450.687 1.24506 450.872 1.06703C451.062 0.889003 451.287 0.799988 451.548 0.799988C451.81 0.799988 452.033 0.889003 452.219 1.06703C452.408 1.24506 452.503 1.45908 452.503 1.70908C452.503 1.95908 452.408 2.17309 452.219 2.35112C452.033 2.52915 451.81 2.61817 451.548 2.61817Z" fill="#6D6C80"/>
<path d="M444.419 13.0045C443.866 13.0045 443.364 12.9003 442.913 12.692C442.462 12.4799 442.104 12.175 441.839 11.7772C441.574 11.3757 441.441 10.8909 441.441 10.3227C441.441 9.82268 441.54 9.41738 441.737 9.10677C441.934 8.79238 442.197 8.54617 442.527 8.36814C442.856 8.19011 443.22 8.05753 443.618 7.97041C444.019 7.8795 444.422 7.80753 444.828 7.7545C445.358 7.68632 445.788 7.63518 446.118 7.60109C446.451 7.56321 446.693 7.50071 446.845 7.41359C447 7.32647 447.078 7.17495 447.078 6.95904V6.91359C447.078 6.35298 446.924 5.91738 446.618 5.60677C446.315 5.29617 445.854 5.14086 445.237 5.14086C444.597 5.14086 444.095 5.28102 443.731 5.56132C443.368 5.84162 443.112 6.14086 442.964 6.45904L441.691 6.0045C441.919 5.4742 442.222 5.06132 442.6 4.76586C442.983 4.46662 443.4 4.25829 443.85 4.14086C444.305 4.01965 444.752 3.95905 445.191 3.95905C445.472 3.95905 445.794 3.99314 446.157 4.06132C446.525 4.12571 446.879 4.26018 447.22 4.46473C447.565 4.66927 447.851 4.97798 448.078 5.39086C448.305 5.80374 448.419 6.35677 448.419 7.04995V12.8H447.078V11.6181H447.01C446.919 11.8075 446.767 12.0102 446.555 12.2261C446.343 12.442 446.061 12.6257 445.708 12.7772C445.356 12.9287 444.926 13.0045 444.419 13.0045ZM444.623 11.8C445.154 11.8 445.601 11.6958 445.964 11.4875C446.332 11.2791 446.608 11.0102 446.794 10.6806C446.983 10.3511 447.078 10.0045 447.078 9.64086V8.41359C447.021 8.48177 446.896 8.54427 446.703 8.60109C446.513 8.65412 446.294 8.70147 446.044 8.74314C445.797 8.78102 445.557 8.81511 445.322 8.84541C445.091 8.87192 444.904 8.89465 444.76 8.91359C444.411 8.95904 444.085 9.03291 443.782 9.13518C443.483 9.23367 443.241 9.38329 443.055 9.58404C442.873 9.78101 442.782 10.05 442.782 10.3909C442.782 10.8568 442.955 11.209 443.299 11.4477C443.648 11.6825 444.089 11.8 444.623 11.8Z" fill="#6D6C80"/>
<path d="M439.835 4.07272V5.20908H435.312V4.07272H439.835ZM436.631 1.98181H437.972V10.3C437.972 10.6788 438.027 10.9629 438.136 11.1523C438.25 11.3379 438.394 11.4629 438.568 11.5273C438.746 11.5879 438.934 11.6182 439.131 11.6182C439.278 11.6182 439.4 11.6106 439.494 11.5954C439.589 11.5765 439.665 11.5614 439.722 11.55L439.994 12.7545C439.903 12.7886 439.777 12.8227 439.614 12.8568C439.451 12.8947 439.244 12.9136 438.994 12.9136C438.616 12.9136 438.244 12.8322 437.881 12.6693C437.521 12.5064 437.222 12.2583 436.983 11.925C436.748 11.5917 436.631 11.1712 436.631 10.6636V1.98181Z" fill="#6D6C80"/>
<path d="M430.385 12.9818C429.544 12.9818 428.818 12.7962 428.208 12.425C427.602 12.05 427.135 11.5272 426.805 10.8568C426.479 10.1825 426.316 9.39844 426.316 8.5045C426.316 7.61056 426.479 6.82268 426.805 6.14086C427.135 5.45526 427.593 4.92117 428.18 4.53859C428.771 4.15223 429.46 3.95905 430.248 3.95905C430.703 3.95905 431.152 4.0348 431.595 4.18632C432.038 4.33783 432.441 4.58405 432.805 4.92495C433.169 5.26208 433.458 5.70905 433.674 6.26586C433.89 6.82268 433.998 7.50829 433.998 8.32268V8.89086H427.271V7.73177H432.635C432.635 7.23935 432.536 6.79995 432.339 6.41359C432.146 6.02723 431.869 5.7223 431.51 5.49882C431.154 5.27533 430.733 5.16359 430.248 5.16359C429.714 5.16359 429.252 5.29617 428.862 5.56132C428.476 5.82268 428.178 6.16359 427.97 6.58404C427.761 7.0045 427.657 7.45526 427.657 7.93632V8.70905C427.657 9.36814 427.771 9.92685 427.998 10.3852C428.229 10.8397 428.549 11.1863 428.958 11.425C429.368 11.6598 429.843 11.7772 430.385 11.7772C430.737 11.7772 431.055 11.728 431.339 11.6295C431.627 11.5272 431.875 11.3757 432.083 11.175C432.292 10.9704 432.453 10.7166 432.566 10.4136L433.862 10.7772C433.726 11.2166 433.496 11.603 433.174 11.9363C432.852 12.2659 432.455 12.5234 431.981 12.709C431.508 12.8909 430.975 12.9818 430.385 12.9818Z" fill="#6D6C80"/>
<path d="M420.083 12.9818C419.356 12.9818 418.714 12.7981 418.157 12.4307C417.6 12.0595 417.165 11.5367 416.85 10.8625C416.536 10.1845 416.379 9.38333 416.379 8.45909C416.379 7.54242 416.536 6.74697 416.85 6.07273C417.165 5.39848 417.602 4.87765 418.163 4.51023C418.724 4.1428 419.371 3.95909 420.106 3.95909C420.674 3.95909 421.123 4.05379 421.453 4.24318C421.786 4.42879 422.04 4.64091 422.214 4.87954C422.392 5.11439 422.53 5.30757 422.629 5.45909H422.743V1.16364H424.083V12.8H422.788V11.4591H422.629C422.53 11.6182 422.39 11.8189 422.208 12.0614C422.027 12.3 421.767 12.514 421.43 12.7034C421.093 12.889 420.644 12.9818 420.083 12.9818ZM420.265 11.7773C420.803 11.7773 421.258 11.6371 421.629 11.3568C422 11.0727 422.282 10.6807 422.475 10.1807C422.669 9.67689 422.765 9.09545 422.765 8.43636C422.765 7.78485 422.671 7.21477 422.481 6.72614C422.292 6.23371 422.012 5.85114 421.64 5.57841C421.269 5.30189 420.811 5.16364 420.265 5.16364C419.697 5.16364 419.224 5.30947 418.845 5.60114C418.47 5.88901 418.188 6.28106 417.998 6.77727C417.813 7.2697 417.72 7.82273 417.72 8.43636C417.72 9.05758 417.815 9.62197 418.004 10.1295C418.197 10.6333 418.481 11.0348 418.856 11.3341C419.235 11.6295 419.705 11.7773 420.265 11.7773Z" fill="#6D6C80"/>
<path d="M401.265 12.8L398.605 4.07269H400.015L401.901 10.7545H401.992L403.855 4.07269H405.287L407.128 10.7318H407.219L409.105 4.07269H410.515L407.855 12.8H406.537L404.628 6.09542H404.492L402.583 12.8H401.265Z" fill="#6D6C80"/>
<path d="M393.635 12.9818C392.794 12.9818 392.068 12.7962 391.458 12.425C390.852 12.05 390.385 11.5272 390.055 10.8568C389.729 10.1825 389.566 9.39844 389.566 8.5045C389.566 7.61056 389.729 6.82268 390.055 6.14086C390.385 5.45526 390.843 4.92117 391.43 4.53859C392.021 4.15223 392.71 3.95905 393.498 3.95905C393.953 3.95905 394.402 4.0348 394.845 4.18632C395.288 4.33783 395.691 4.58405 396.055 4.92495C396.419 5.26208 396.708 5.70905 396.924 6.26586C397.14 6.82268 397.248 7.50829 397.248 8.32268V8.89086H390.521V7.73177H395.885C395.885 7.23935 395.786 6.79995 395.589 6.41359C395.396 6.02723 395.119 5.7223 394.76 5.49882C394.404 5.27533 393.983 5.16359 393.498 5.16359C392.964 5.16359 392.502 5.29617 392.112 5.56132C391.726 5.82268 391.428 6.16359 391.22 6.58404C391.011 7.0045 390.907 7.45526 390.907 7.93632V8.70905C390.907 9.36814 391.021 9.92685 391.248 10.3852C391.479 10.8397 391.799 11.1863 392.208 11.425C392.618 11.6598 393.093 11.7772 393.635 11.7772C393.987 11.7772 394.305 11.728 394.589 11.6295C394.877 11.5272 395.125 11.3757 395.333 11.175C395.542 10.9704 395.703 10.7166 395.816 10.4136L397.112 10.7772C396.976 11.2166 396.746 11.603 396.424 11.9363C396.102 12.2659 395.705 12.5234 395.231 12.709C394.758 12.8909 394.225 12.9818 393.635 12.9818Z" fill="#6D6C80"/>
<path d="M388.455 4.07271V5.20907H383.75V4.07271H388.455ZM385.159 12.8V2.86817C385.159 2.36816 385.277 1.9515 385.511 1.61816C385.746 1.28483 386.051 1.03483 386.426 0.868164C386.801 0.701497 387.197 0.618164 387.614 0.618164C387.943 0.618164 388.212 0.644679 388.42 0.69771C388.629 0.75074 388.784 0.799982 388.886 0.845437L388.5 2.00453C388.432 1.9818 388.337 1.95339 388.216 1.9193C388.098 1.88521 387.943 1.86816 387.75 1.86816C387.307 1.86816 386.987 1.97991 386.79 2.20339C386.597 2.42688 386.5 2.75453 386.5 3.18635V12.8H385.159Z" fill="#6D6C80"/>
<path d="M373.622 13.0045C373.069 13.0045 372.567 12.9003 372.116 12.692C371.665 12.4799 371.307 12.175 371.042 11.7772C370.777 11.3757 370.645 10.8909 370.645 10.3227C370.645 9.82268 370.743 9.41738 370.94 9.10677C371.137 8.79238 371.4 8.54617 371.73 8.36814C372.059 8.19011 372.423 8.05753 372.821 7.97041C373.222 7.8795 373.626 7.80753 374.031 7.7545C374.561 7.68632 374.991 7.63518 375.321 7.60109C375.654 7.56321 375.896 7.50071 376.048 7.41359C376.203 7.32647 376.281 7.17495 376.281 6.95904V6.91359C376.281 6.35298 376.127 5.91738 375.821 5.60677C375.518 5.29617 375.057 5.14086 374.44 5.14086C373.8 5.14086 373.298 5.28102 372.934 5.56132C372.571 5.84162 372.315 6.14086 372.167 6.45904L370.895 6.0045C371.122 5.4742 371.425 5.06132 371.804 4.76586C372.186 4.46662 372.603 4.25829 373.054 4.14086C373.508 4.01965 373.955 3.95905 374.395 3.95905C374.675 3.95905 374.997 3.99314 375.36 4.06132C375.728 4.12571 376.082 4.26018 376.423 4.46473C376.768 4.66927 377.054 4.97798 377.281 5.39086C377.508 5.80374 377.622 6.35677 377.622 7.04995V12.8H376.281V11.6181H376.213C376.122 11.8075 375.97 12.0102 375.758 12.2261C375.546 12.442 375.264 12.6257 374.912 12.7772C374.559 12.9287 374.129 13.0045 373.622 13.0045ZM373.826 11.8C374.357 11.8 374.804 11.6958 375.167 11.4875C375.535 11.2791 375.811 11.0102 375.997 10.6806C376.186 10.3511 376.281 10.0045 376.281 9.64086V8.41359C376.224 8.48177 376.099 8.54427 375.906 8.60109C375.717 8.65412 375.497 8.70147 375.247 8.74314C375.001 8.78102 374.76 8.81511 374.525 8.84541C374.294 8.87192 374.107 8.89465 373.963 8.91359C373.614 8.95904 373.288 9.03291 372.985 9.13518C372.686 9.23367 372.444 9.38329 372.258 9.58404C372.076 9.78101 371.985 10.05 371.985 10.3909C371.985 10.8568 372.158 11.209 372.503 11.4477C372.851 11.6825 373.292 11.8 373.826 11.8Z" fill="#6D6C80"/>
<path d="M359.912 12.9818C359.184 12.9818 358.542 12.7981 357.985 12.4307C357.429 12.0595 356.993 11.5367 356.679 10.8625C356.364 10.1845 356.207 9.38333 356.207 8.45909C356.207 7.54242 356.364 6.74697 356.679 6.07273C356.993 5.39848 357.431 4.87765 357.991 4.51023C358.552 4.1428 359.199 3.95909 359.934 3.95909C360.502 3.95909 360.951 4.05379 361.281 4.24318C361.614 4.42879 361.868 4.64091 362.042 4.87954C362.22 5.11439 362.359 5.30757 362.457 5.45909H362.571V1.16364H363.912V12.8H362.616V11.4591H362.457C362.359 11.6182 362.218 11.8189 362.037 12.0614C361.855 12.3 361.595 12.514 361.258 12.7034C360.921 12.889 360.472 12.9818 359.912 12.9818ZM360.093 11.7773C360.631 11.7773 361.086 11.6371 361.457 11.3568C361.828 11.0727 362.11 10.6807 362.304 10.1807C362.497 9.67689 362.593 9.09545 362.593 8.43636C362.593 7.78485 362.499 7.21477 362.309 6.72614C362.12 6.23371 361.84 5.85114 361.468 5.57841C361.097 5.30189 360.639 5.16364 360.093 5.16364C359.525 5.16364 359.052 5.30947 358.673 5.60114C358.298 5.88901 358.016 6.28106 357.826 6.77727C357.641 7.2697 357.548 7.82273 357.548 8.43636C357.548 9.05758 357.643 9.62197 357.832 10.1295C358.025 10.6333 358.309 11.0348 358.684 11.3341C359.063 11.6295 359.533 11.7773 360.093 11.7773Z" fill="#6D6C80"/>
<path d="M350.963 12.9818C350.122 12.9818 349.396 12.7962 348.787 12.425C348.181 12.05 347.713 11.5272 347.383 10.8568C347.057 10.1825 346.895 9.39844 346.895 8.5045C346.895 7.61056 347.057 6.82268 347.383 6.14086C347.713 5.45526 348.171 4.92117 348.758 4.53859C349.349 4.15223 350.038 3.95905 350.826 3.95905C351.281 3.95905 351.73 4.0348 352.173 4.18632C352.616 4.33783 353.02 4.58405 353.383 4.92495C353.747 5.26208 354.037 5.70905 354.253 6.26586C354.468 6.82268 354.576 7.50829 354.576 8.32268V8.89086H347.849V7.73177H353.213C353.213 7.23935 353.114 6.79995 352.917 6.41359C352.724 6.02723 352.448 5.7223 352.088 5.49882C351.732 5.27533 351.311 5.16359 350.826 5.16359C350.292 5.16359 349.83 5.29617 349.44 5.56132C349.054 5.82268 348.756 6.16359 348.548 6.58404C348.34 7.0045 348.235 7.45526 348.235 7.93632V8.70905C348.235 9.36814 348.349 9.92685 348.576 10.3852C348.807 10.8397 349.127 11.1863 349.537 11.425C349.946 11.6598 350.421 11.7772 350.963 11.7772C351.315 11.7772 351.633 11.728 351.917 11.6295C352.205 11.5272 352.453 11.3757 352.662 11.175C352.87 10.9704 353.031 10.7166 353.145 10.4136L354.44 10.7772C354.304 11.2166 354.074 11.603 353.753 11.9363C353.431 12.2659 353.033 12.5234 352.559 12.709C352.086 12.8909 351.554 12.9818 350.963 12.9818Z" fill="#6D6C80"/>
<path d="M341.65 12.9818C340.809 12.9818 340.084 12.7962 339.474 12.425C338.868 12.05 338.4 11.5272 338.071 10.8568C337.745 10.1825 337.582 9.39844 337.582 8.5045C337.582 7.61056 337.745 6.82268 338.071 6.14086C338.4 5.45526 338.859 4.92117 339.446 4.53859C340.037 4.15223 340.726 3.95905 341.514 3.95905C341.968 3.95905 342.417 4.0348 342.86 4.18632C343.304 4.33783 343.707 4.58405 344.071 4.92495C344.434 5.26208 344.724 5.70905 344.94 6.26586C345.156 6.82268 345.264 7.50829 345.264 8.32268V8.89086H338.537V7.73177H343.9C343.9 7.23935 343.802 6.79995 343.605 6.41359C343.412 6.02723 343.135 5.7223 342.775 5.49882C342.419 5.27533 341.999 5.16359 341.514 5.16359C340.98 5.16359 340.518 5.29617 340.128 5.56132C339.741 5.82268 339.444 6.16359 339.235 6.58404C339.027 7.0045 338.923 7.45526 338.923 7.93632V8.70905C338.923 9.36814 339.037 9.92685 339.264 10.3852C339.495 10.8397 339.815 11.1863 340.224 11.425C340.633 11.6598 341.109 11.7772 341.65 11.7772C342.002 11.7772 342.321 11.728 342.605 11.6295C342.893 11.5272 343.141 11.3757 343.349 11.175C343.557 10.9704 343.718 10.7166 343.832 10.4136L345.128 10.7772C344.991 11.2166 344.762 11.603 344.44 11.9363C344.118 12.2659 343.72 12.5234 343.247 12.709C342.773 12.8909 342.241 12.9818 341.65 12.9818Z" fill="#6D6C80"/>
<path d="M329.974 7.54995V12.8H328.633V4.07268H329.928V5.43632H330.042C330.246 4.99314 330.557 4.63708 330.974 4.36814C331.39 4.09541 331.928 3.95905 332.587 3.95905C333.178 3.95905 333.695 4.08026 334.138 4.32268C334.582 4.56132 334.926 4.92495 335.173 5.41359C335.419 5.89844 335.542 6.51208 335.542 7.2545V12.8H334.201V7.34541C334.201 6.6598 334.023 6.12571 333.667 5.74314C333.311 5.35677 332.822 5.16359 332.201 5.16359C331.773 5.16359 331.39 5.25639 331.053 5.442C330.72 5.62761 330.457 5.89844 330.263 6.2545C330.07 6.61056 329.974 7.04238 329.974 7.54995Z" fill="#6D6C80"/>
<path d="M322.116 4.07272V5.20908H317.594V4.07272H322.116ZM318.912 1.98181H320.253V10.3C320.253 10.6788 320.308 10.9629 320.418 11.1523C320.531 11.3379 320.675 11.4629 320.849 11.5273C321.027 11.5879 321.215 11.6182 321.412 11.6182C321.56 11.6182 321.681 11.6106 321.776 11.5954C321.87 11.5765 321.946 11.5614 322.003 11.55L322.276 12.7545C322.185 12.7886 322.058 12.8227 321.895 12.8568C321.732 12.8947 321.526 12.9136 321.276 12.9136C320.897 12.9136 320.526 12.8322 320.162 12.6693C319.802 12.5064 319.503 12.2583 319.264 11.925C319.029 11.5917 318.912 11.1712 318.912 10.6636V1.98181Z" fill="#6D6C80"/>
<path d="M316.142 6.02723L314.938 6.36814C314.862 6.16738 314.75 5.9723 314.603 5.78291C314.459 5.58973 314.262 5.43064 314.012 5.30564C313.762 5.18064 313.442 5.11814 313.051 5.11814C312.517 5.11814 312.072 5.24124 311.716 5.48745C311.364 5.72988 311.188 6.03859 311.188 6.41359C311.188 6.74692 311.309 7.01018 311.551 7.20336C311.794 7.39655 312.173 7.55753 312.688 7.68632L313.983 8.0045C314.764 8.19389 315.345 8.48367 315.728 8.87382C316.11 9.26018 316.301 9.75829 316.301 10.3681C316.301 10.8681 316.158 11.3151 315.87 11.709C315.586 12.103 315.188 12.4136 314.676 12.6409C314.165 12.8681 313.57 12.9818 312.892 12.9818C312.002 12.9818 311.265 12.7886 310.682 12.4022C310.099 12.0159 309.73 11.4515 309.574 10.709L310.847 10.3909C310.968 10.8606 311.197 11.2128 311.534 11.4477C311.875 11.6825 312.32 11.8 312.87 11.8C313.495 11.8 313.991 11.6674 314.358 11.4022C314.73 11.1333 314.915 10.8113 314.915 10.4363C314.915 10.1333 314.809 9.8795 314.597 9.67495C314.385 9.46662 314.059 9.31132 313.62 9.20904L312.165 8.86814C311.366 8.67874 310.779 8.38518 310.404 7.98745C310.033 7.58594 309.847 7.08405 309.847 6.48177C309.847 5.98935 309.985 5.55374 310.262 5.17495C310.542 4.79617 310.923 4.49882 311.404 4.28291C311.889 4.067 312.438 3.95905 313.051 3.95905C313.915 3.95905 314.593 4.14844 315.086 4.52723C315.582 4.90601 315.934 5.40601 316.142 6.02723Z" fill="#6D6C80"/>
<path d="M306.164 9.23178V4.07269H307.505V12.8H306.164V11.3227H306.073C305.869 11.7659 305.55 12.1428 305.119 12.4534C304.687 12.7602 304.141 12.9136 303.482 12.9136C302.937 12.9136 302.452 12.7943 302.028 12.5556C301.603 12.3132 301.27 11.9496 301.028 11.4647C300.785 10.9761 300.664 10.3606 300.664 9.61815V4.07269H302.005V9.52724C302.005 10.1636 302.183 10.6712 302.539 11.05C302.899 11.4288 303.357 11.6181 303.914 11.6181C304.247 11.6181 304.586 11.5329 304.931 11.3625C305.28 11.192 305.571 10.9306 305.806 10.5784C306.045 10.2261 306.164 9.77724 306.164 9.23178Z" fill="#6D6C80"/>
<path d="M296.865 4.07271H298.206V13.4364C298.206 13.9742 298.114 14.4401 297.928 14.8341C297.746 15.228 297.47 15.5329 297.098 15.7489C296.731 15.9648 296.267 16.0727 295.706 16.0727C295.661 16.0727 295.615 16.0727 295.57 16.0727C295.525 16.0727 295.479 16.0727 295.434 16.0727V14.8227C295.479 14.8227 295.521 14.8227 295.559 14.8227C295.596 14.8227 295.638 14.8227 295.684 14.8227C296.093 14.8227 296.392 14.7015 296.581 14.4591C296.771 14.2204 296.865 13.8795 296.865 13.4364V4.07271ZM297.525 2.61817C297.263 2.61817 297.038 2.52915 296.848 2.35112C296.663 2.17309 296.57 1.95908 296.57 1.70908C296.57 1.45908 296.663 1.24506 296.848 1.06703C297.038 0.889003 297.263 0.799988 297.525 0.799988C297.786 0.799988 298.009 0.889003 298.195 1.06703C298.384 1.24506 298.479 1.45908 298.479 1.70908C298.479 1.95908 298.384 2.17309 298.195 2.35112C298.009 2.52915 297.786 2.61817 297.525 2.61817Z" fill="#6D6C80"/>
<path d="M286.713 12.9818C285.872 12.9818 285.146 12.7962 284.537 12.425C283.931 12.05 283.463 11.5272 283.133 10.8568C282.807 10.1825 282.645 9.39844 282.645 8.5045C282.645 7.61056 282.807 6.82268 283.133 6.14086C283.463 5.45526 283.921 4.92117 284.508 4.53859C285.099 4.15223 285.788 3.95905 286.576 3.95905C287.031 3.95905 287.48 4.0348 287.923 4.18632C288.366 4.33783 288.77 4.58405 289.133 4.92495C289.497 5.26208 289.787 5.70905 290.003 6.26586C290.218 6.82268 290.326 7.50829 290.326 8.32268V8.89086H283.599V7.73177H288.963C288.963 7.23935 288.864 6.79995 288.667 6.41359C288.474 6.02723 288.198 5.7223 287.838 5.49882C287.482 5.27533 287.061 5.16359 286.576 5.16359C286.042 5.16359 285.58 5.29617 285.19 5.56132C284.804 5.82268 284.506 6.16359 284.298 6.58404C284.09 7.0045 283.985 7.45526 283.985 7.93632V8.70905C283.985 9.36814 284.099 9.92685 284.326 10.3852C284.557 10.8397 284.877 11.1863 285.287 11.425C285.696 11.6598 286.171 11.7772 286.713 11.7772C287.065 11.7772 287.383 11.728 287.667 11.6295C287.955 11.5272 288.203 11.3757 288.412 11.175C288.62 10.9704 288.781 10.7166 288.895 10.4136L290.19 10.7772C290.054 11.2166 289.824 11.603 289.503 11.9363C289.181 12.2659 288.783 12.5234 288.309 12.709C287.836 12.8909 287.304 12.9818 286.713 12.9818Z" fill="#6D6C80"/>
<path d="M270.975 12.8L267.793 1.16364H269.225L271.657 10.6409H271.77L274.247 1.16364H275.838L278.316 10.6409H278.429L280.861 1.16364H282.293L279.111 12.8H277.657L275.088 3.52727H274.997L272.429 12.8H270.975Z" fill="#6D6C80"/>
<path d="M257.821 9.52724V9.45906C257.829 8.73558 257.905 8.15982 258.049 7.73179C258.193 7.30376 258.397 6.95717 258.662 6.69202C258.927 6.42687 259.246 6.18255 259.617 5.95906C259.84 5.8227 260.041 5.66171 260.219 5.47611C260.397 5.28671 260.537 5.06891 260.64 4.8227C260.746 4.57649 260.799 4.30376 260.799 4.00452C260.799 3.6333 260.712 3.31133 260.537 3.03861C260.363 2.76588 260.13 2.55565 259.838 2.40793C259.547 2.2602 259.223 2.18633 258.867 2.18633C258.556 2.18633 258.257 2.25073 257.969 2.37952C257.681 2.5083 257.441 2.71096 257.248 2.98747C257.054 3.26399 256.943 3.62573 256.912 4.0727H255.48C255.511 3.42876 255.677 2.87762 255.98 2.41929C256.287 1.96096 256.691 1.61058 257.191 1.36815C257.694 1.12573 258.253 1.00452 258.867 1.00452C259.534 1.00452 260.113 1.13709 260.605 1.40224C261.102 1.6674 261.484 2.03103 261.753 2.49315C262.026 2.95527 262.162 3.48179 262.162 4.0727C262.162 4.48937 262.098 4.86626 261.969 5.20338C261.844 5.5405 261.662 5.84164 261.424 6.10679C261.189 6.37194 260.905 6.60679 260.571 6.81134C260.238 7.01967 259.971 7.23937 259.77 7.47043C259.569 7.6977 259.424 7.96853 259.333 8.28293C259.242 8.59732 259.193 8.98936 259.185 9.45906V9.52724H257.821ZM258.549 12.8909C258.268 12.8909 258.028 12.7905 257.827 12.5897C257.626 12.389 257.526 12.1485 257.526 11.8682C257.526 11.5879 257.626 11.3473 257.827 11.1466C258.028 10.9458 258.268 10.8454 258.549 10.8454C258.829 10.8454 259.069 10.9458 259.27 11.1466C259.471 11.3473 259.571 11.5879 259.571 11.8682C259.571 12.0538 259.524 12.2242 259.429 12.3795C259.338 12.5348 259.215 12.6598 259.06 12.7545C258.908 12.8454 258.738 12.8909 258.549 12.8909Z" fill="#6D6C80"/>
<path d="M248.026 16.0727C247.799 16.0727 247.596 16.0538 247.418 16.0159C247.24 15.9818 247.117 15.9477 247.049 15.9136L247.39 14.7318C247.715 14.8151 248.003 14.8454 248.253 14.8227C248.503 14.8 248.725 14.6882 248.918 14.4875C249.115 14.2905 249.295 13.9704 249.458 13.5272L249.708 12.8454L246.48 4.07269H247.935L250.344 11.0272H250.435L252.844 4.07269H254.299L250.594 14.0727C250.427 14.5235 250.221 14.8966 249.975 15.192C249.729 15.4913 249.443 15.7128 249.117 15.8568C248.795 16.0007 248.431 16.0727 248.026 16.0727Z" fill="#6D6C80"/>
<path d="M245.148 4.07272V5.20908H240.625V4.07272H245.148ZM241.943 1.98181H243.284V10.3C243.284 10.6788 243.339 10.9629 243.449 11.1523C243.563 11.3379 243.706 11.4629 243.881 11.5273C244.059 11.5879 244.246 11.6182 244.443 11.6182C244.591 11.6182 244.712 11.6106 244.807 11.5954C244.902 11.5765 244.977 11.5614 245.034 11.55L245.307 12.7545C245.216 12.7886 245.089 12.8227 244.926 12.8568C244.763 12.8947 244.557 12.9136 244.307 12.9136C243.928 12.9136 243.557 12.8322 243.193 12.6693C242.833 12.5064 242.534 12.2583 242.295 11.925C242.061 11.5917 241.943 11.1712 241.943 10.6636V1.98181Z" fill="#6D6C80"/>
<path d="M234.852 12.8V4.0727H236.147V5.39089H236.238C236.397 4.95907 236.685 4.60869 237.102 4.33975C237.518 4.07081 237.988 3.93634 238.511 3.93634C238.609 3.93634 238.732 3.93823 238.88 3.94202C239.028 3.94581 239.139 3.95149 239.215 3.95907V5.3227C239.17 5.31134 239.066 5.29429 238.903 5.27157C238.744 5.24505 238.575 5.2318 238.397 5.2318C237.973 5.2318 237.594 5.32081 237.261 5.49884C236.931 5.67308 236.67 5.91551 236.477 6.22611C236.287 6.53293 236.192 6.88331 236.192 7.27725V12.8H234.852Z" fill="#6D6C80"/>
<path d="M228.403 13.0045C227.85 13.0045 227.348 12.9003 226.897 12.692C226.447 12.4799 226.089 12.175 225.824 11.7772C225.558 11.3757 225.426 10.8909 225.426 10.3227C225.426 9.82268 225.524 9.41738 225.721 9.10677C225.918 8.79238 226.181 8.54617 226.511 8.36814C226.841 8.19011 227.204 8.05753 227.602 7.97041C228.003 7.8795 228.407 7.80753 228.812 7.7545C229.342 7.68632 229.772 7.63518 230.102 7.60109C230.435 7.56321 230.678 7.50071 230.829 7.41359C230.984 7.32647 231.062 7.17495 231.062 6.95904V6.91359C231.062 6.35298 230.909 5.91738 230.602 5.60677C230.299 5.29617 229.839 5.14086 229.221 5.14086C228.581 5.14086 228.079 5.28102 227.716 5.56132C227.352 5.84162 227.096 6.14086 226.949 6.45904L225.676 6.0045C225.903 5.4742 226.206 5.06132 226.585 4.76586C226.967 4.46662 227.384 4.25829 227.835 4.14086C228.289 4.01965 228.736 3.95905 229.176 3.95905C229.456 3.95905 229.778 3.99314 230.142 4.06132C230.509 4.12571 230.863 4.26018 231.204 4.46473C231.549 4.66927 231.835 4.97798 232.062 5.39086C232.289 5.80374 232.403 6.35677 232.403 7.04995V12.8H231.062V11.6181H230.994C230.903 11.8075 230.752 12.0102 230.539 12.2261C230.327 12.442 230.045 12.6257 229.693 12.7772C229.341 12.9287 228.911 13.0045 228.403 13.0045ZM228.608 11.8C229.138 11.8 229.585 11.6958 229.949 11.4875C230.316 11.2791 230.592 11.0102 230.778 10.6806C230.967 10.3511 231.062 10.0045 231.062 9.64086V8.41359C231.005 8.48177 230.88 8.54427 230.687 8.60109C230.498 8.65412 230.278 8.70147 230.028 8.74314C229.782 8.78102 229.541 8.81511 229.306 8.84541C229.075 8.87192 228.888 8.89465 228.744 8.91359C228.395 8.95904 228.07 9.03291 227.767 9.13518C227.467 9.23367 227.225 9.38329 227.039 9.58404C226.858 9.78101 226.767 10.05 226.767 10.3909C226.767 10.8568 226.939 11.209 227.284 11.4477C227.632 11.6825 228.074 11.8 228.608 11.8Z" fill="#6D6C80"/>
<path d="M216.086 16.0727V4.07268H217.381V5.45904H217.54C217.639 5.30753 217.775 5.11435 217.95 4.8795C218.128 4.64086 218.381 4.42874 218.711 4.24314C219.044 4.05374 219.495 3.95905 220.063 3.95905C220.798 3.95905 221.446 4.14276 222.006 4.51018C222.567 4.87761 223.004 5.39844 223.319 6.07268C223.633 6.74692 223.79 7.54238 223.79 8.45905C223.79 9.38329 223.633 10.1844 223.319 10.8625C223.004 11.5367 222.569 12.0594 222.012 12.4306C221.455 12.7981 220.813 12.9818 220.086 12.9818C219.525 12.9818 219.076 12.889 218.739 12.7034C218.402 12.514 218.143 12.3 217.961 12.0613C217.779 11.8189 217.639 11.6181 217.54 11.459H217.427V16.0727H216.086ZM217.404 8.43632C217.404 9.09541 217.501 9.67685 217.694 10.1806C217.887 10.6806 218.169 11.0727 218.54 11.3568C218.912 11.6371 219.366 11.7772 219.904 11.7772C220.465 11.7772 220.933 11.6295 221.308 11.334C221.686 11.0348 221.97 10.6333 222.16 10.1295C222.353 9.62192 222.45 9.05753 222.45 8.43632C222.45 7.82268 222.355 7.26965 222.165 6.77723C221.98 6.28101 221.698 5.88897 221.319 5.60109C220.944 5.30942 220.472 5.16359 219.904 5.16359C219.359 5.16359 218.9 5.30185 218.529 5.57836C218.158 5.85109 217.878 6.23367 217.688 6.72609C217.499 7.21473 217.404 7.7848 217.404 8.43632Z" fill="#6D6C80"/>
<path d="M205.931 12.9818C205.091 12.9818 204.365 12.7962 203.755 12.425C203.149 12.05 202.681 11.5272 202.352 10.8568C202.026 10.1825 201.863 9.39844 201.863 8.5045C201.863 7.61056 202.026 6.82268 202.352 6.14086C202.681 5.45526 203.14 4.92117 203.727 4.53859C204.318 4.15223 205.007 3.95905 205.795 3.95905C206.25 3.95905 206.699 4.0348 207.142 4.18632C207.585 4.33783 207.988 4.58405 208.352 4.92495C208.716 5.26208 209.005 5.70905 209.221 6.26586C209.437 6.82268 209.545 7.50829 209.545 8.32268V8.89086H202.818V7.73177H208.181C208.181 7.23935 208.083 6.79995 207.886 6.41359C207.693 6.02723 207.416 5.7223 207.056 5.49882C206.7 5.27533 206.28 5.16359 205.795 5.16359C205.261 5.16359 204.799 5.29617 204.409 5.56132C204.022 5.82268 203.725 6.16359 203.517 6.58404C203.308 7.0045 203.204 7.45526 203.204 7.93632V8.70905C203.204 9.36814 203.318 9.92685 203.545 10.3852C203.776 10.8397 204.096 11.1863 204.505 11.425C204.914 11.6598 205.39 11.7772 205.931 11.7772C206.284 11.7772 206.602 11.728 206.886 11.6295C207.174 11.5272 207.422 11.3757 207.63 11.175C207.839 10.9704 208 10.7166 208.113 10.4136L209.409 10.7772C209.272 11.2166 209.043 11.603 208.721 11.9363C208.399 12.2659 208.002 12.5234 207.528 12.709C207.055 12.8909 206.522 12.9818 205.931 12.9818Z" fill="#6D6C80"/>
<path d="M194.161 7.55V12.8H192.82V1.16364H194.161V5.43636H194.275C194.479 4.98561 194.786 4.62765 195.195 4.3625C195.608 4.09356 196.157 3.95909 196.843 3.95909C197.438 3.95909 197.959 4.07841 198.406 4.31704C198.853 4.55189 199.199 4.91364 199.445 5.40227C199.695 5.88712 199.82 6.50454 199.82 7.25455V12.8H198.479V7.34545C198.479 6.65227 198.299 6.11629 197.94 5.7375C197.584 5.35492 197.089 5.16364 196.457 5.16364C196.017 5.16364 195.623 5.25644 195.275 5.44204C194.93 5.62765 194.657 5.89848 194.457 6.25454C194.26 6.6106 194.161 7.04242 194.161 7.55Z" fill="#6D6C80"/>
<path d="M190.616 4.07272V5.20908H186.094V4.07272H190.616ZM187.412 1.98181H188.753V10.3C188.753 10.6788 188.808 10.9629 188.918 11.1523C189.031 11.3379 189.175 11.4629 189.349 11.5273C189.527 11.5879 189.715 11.6182 189.912 11.6182C190.06 11.6182 190.181 11.6106 190.276 11.5954C190.37 11.5765 190.446 11.5614 190.503 11.55L190.776 12.7545C190.685 12.7886 190.558 12.8227 190.395 12.8568C190.232 12.8947 190.026 12.9136 189.776 12.9136C189.397 12.9136 189.026 12.8322 188.662 12.6693C188.302 12.5064 188.003 12.2583 187.764 11.925C187.529 11.5917 187.412 11.1712 187.412 10.6636V1.98181Z" fill="#6D6C80"/>
<path d="M174.302 7.54995V12.8H172.961V4.07268H174.256V5.43632H174.37C174.575 4.99314 174.885 4.63708 175.302 4.36814C175.719 4.09541 176.256 3.95905 176.915 3.95905C177.506 3.95905 178.023 4.08026 178.467 4.32268C178.91 4.56132 179.254 4.92495 179.501 5.41359C179.747 5.89844 179.87 6.51208 179.87 7.2545V12.8H178.529V7.34541C178.529 6.6598 178.351 6.12571 177.995 5.74314C177.639 5.35677 177.15 5.16359 176.529 5.16359C176.101 5.16359 175.718 5.25639 175.381 5.442C175.048 5.62761 174.785 5.89844 174.592 6.2545C174.398 6.61056 174.302 7.04238 174.302 7.54995Z" fill="#6D6C80"/>
<path d="M169.163 12.8V4.07271H170.504V12.8H169.163ZM169.845 2.61817C169.584 2.61817 169.358 2.52915 169.169 2.35112C168.983 2.17309 168.891 1.95908 168.891 1.70908C168.891 1.45908 168.983 1.24506 169.169 1.06703C169.358 0.889003 169.584 0.799988 169.845 0.799988C170.107 0.799988 170.33 0.889003 170.516 1.06703C170.705 1.24506 170.8 1.45908 170.8 1.70908C170.8 1.95908 170.705 2.17309 170.516 2.35112C170.33 2.52915 170.107 2.61817 169.845 2.61817Z" fill="#6D6C80"/>
<path d="M163.162 12.9818C162.374 12.9818 161.682 12.7943 161.088 12.4193C160.497 12.0443 160.035 11.5197 159.701 10.8454C159.372 10.1712 159.207 9.38329 159.207 8.48177C159.207 7.57268 159.372 6.77912 159.701 6.10109C160.035 5.42306 160.497 4.89655 161.088 4.52155C161.682 4.14655 162.374 3.95905 163.162 3.95905C163.949 3.95905 164.639 4.14655 165.23 4.52155C165.824 4.89655 166.287 5.42306 166.616 6.10109C166.949 6.77912 167.116 7.57268 167.116 8.48177C167.116 9.38329 166.949 10.1712 166.616 10.8454C166.287 11.5197 165.824 12.0443 165.23 12.4193C164.639 12.7943 163.949 12.9818 163.162 12.9818ZM163.162 11.7772C163.76 11.7772 164.252 11.6238 164.639 11.317C165.025 11.0102 165.311 10.6068 165.497 10.1068C165.682 9.60677 165.775 9.06511 165.775 8.48177C165.775 7.89844 165.682 7.35488 165.497 6.85109C165.311 6.3473 165.025 5.94011 164.639 5.6295C164.252 5.31889 163.76 5.16359 163.162 5.16359C162.563 5.16359 162.071 5.31889 161.684 5.6295C161.298 5.94011 161.012 6.3473 160.826 6.85109C160.641 7.35488 160.548 7.89844 160.548 8.48177C160.548 9.06511 160.641 9.60677 160.826 10.1068C161.012 10.6068 161.298 11.0102 161.684 11.317C162.071 11.6238 162.563 11.7772 163.162 11.7772Z" fill="#6D6C80"/>
<path d="M155.819 4.07271H157.159V13.4364C157.159 13.9742 157.067 14.4401 156.881 14.8341C156.699 15.228 156.423 15.5329 156.051 15.7489C155.684 15.9648 155.22 16.0727 154.659 16.0727C154.614 16.0727 154.569 16.0727 154.523 16.0727C154.478 16.0727 154.432 16.0727 154.387 16.0727V14.8227C154.432 14.8227 154.474 14.8227 154.512 14.8227C154.55 14.8227 154.591 14.8227 154.637 14.8227C155.046 14.8227 155.345 14.7015 155.534 14.4591C155.724 14.2204 155.819 13.8795 155.819 13.4364V4.07271ZM156.478 2.61817C156.216 2.61817 155.991 2.52915 155.801 2.35112C155.616 2.17309 155.523 1.95908 155.523 1.70908C155.523 1.45908 155.616 1.24506 155.801 1.06703C155.991 0.889003 156.216 0.799988 156.478 0.799988C156.739 0.799988 156.962 0.889003 157.148 1.06703C157.337 1.24506 157.432 1.45908 157.432 1.70908C157.432 1.95908 157.337 2.17309 157.148 2.35112C156.962 2.52915 156.739 2.61817 156.478 2.61817Z" fill="#6D6C80"/>
<path d="M145.318 12.9818C144.53 12.9818 143.839 12.7943 143.244 12.4193C142.653 12.0443 142.191 11.5197 141.858 10.8454C141.528 10.1712 141.363 9.38329 141.363 8.48177C141.363 7.57268 141.528 6.77912 141.858 6.10109C142.191 5.42306 142.653 4.89655 143.244 4.52155C143.839 4.14655 144.53 3.95905 145.318 3.95905C146.106 3.95905 146.795 4.14655 147.386 4.52155C147.981 4.89655 148.443 5.42306 148.772 6.10109C149.106 6.77912 149.272 7.57268 149.272 8.48177C149.272 9.38329 149.106 10.1712 148.772 10.8454C148.443 11.5197 147.981 12.0443 147.386 12.4193C146.795 12.7943 146.106 12.9818 145.318 12.9818ZM145.318 11.7772C145.916 11.7772 146.409 11.6238 146.795 11.317C147.181 11.0102 147.467 10.6068 147.653 10.1068C147.839 9.60677 147.931 9.06511 147.931 8.48177C147.931 7.89844 147.839 7.35488 147.653 6.85109C147.467 6.3473 147.181 5.94011 146.795 5.6295C146.409 5.31889 145.916 5.16359 145.318 5.16359C144.719 5.16359 144.227 5.31889 143.841 5.6295C143.454 5.94011 143.168 6.3473 142.983 6.85109C142.797 7.35488 142.704 7.89844 142.704 8.48177C142.704 9.06511 142.797 9.60677 142.983 10.1068C143.168 10.6068 143.454 11.0102 143.841 11.317C144.227 11.6238 144.719 11.7772 145.318 11.7772Z" fill="#6D6C80"/>
<path d="M139.851 4.07272V5.20908H135.328V4.07272H139.851ZM136.646 1.98181H137.987V10.3C137.987 10.6788 138.042 10.9629 138.152 11.1523C138.266 11.3379 138.41 11.4629 138.584 11.5273C138.762 11.5879 138.949 11.6182 139.146 11.6182C139.294 11.6182 139.415 11.6106 139.51 11.5954C139.605 11.5765 139.68 11.5614 139.737 11.55L140.01 12.7545C139.919 12.7886 139.792 12.8227 139.629 12.8568C139.466 12.8947 139.26 12.9136 139.01 12.9136C138.631 12.9136 138.26 12.8322 137.896 12.6693C137.536 12.5064 137.237 12.2583 136.999 11.925C136.764 11.5917 136.646 11.1712 136.646 10.6636V1.98181Z" fill="#6D6C80"/>
<path d="M123.51 16.0727C123.283 16.0727 123.08 16.0538 122.902 16.0159C122.724 15.9818 122.601 15.9477 122.533 15.9136L122.874 14.7318C123.2 14.8151 123.488 14.8454 123.738 14.8227C123.988 14.8 124.209 14.6882 124.402 14.4875C124.599 14.2905 124.779 13.9704 124.942 13.5272L125.192 12.8454L121.965 4.07269H123.419L125.828 11.0272H125.919L128.328 4.07269H129.783L126.078 14.0727C125.912 14.5235 125.705 14.8966 125.459 15.192C125.213 15.4913 124.927 15.7128 124.601 15.8568C124.279 16.0007 123.916 16.0727 123.51 16.0727Z" fill="#6D6C80"/>
<path d="M116.005 12.9818C115.278 12.9818 114.636 12.7981 114.079 12.4307C113.522 12.0595 113.087 11.5367 112.772 10.8625C112.458 10.1845 112.301 9.38333 112.301 8.45909C112.301 7.54242 112.458 6.74697 112.772 6.07273C113.087 5.39848 113.524 4.87765 114.085 4.51023C114.645 4.1428 115.293 3.95909 116.028 3.95909C116.596 3.95909 117.045 4.05379 117.375 4.24318C117.708 4.42879 117.962 4.64091 118.136 4.87954C118.314 5.11439 118.452 5.30757 118.551 5.45909H118.664V1.16364H120.005V12.8H118.71V11.4591H118.551C118.452 11.6182 118.312 11.8189 118.13 12.0614C117.949 12.3 117.689 12.514 117.352 12.7034C117.015 12.889 116.566 12.9818 116.005 12.9818ZM116.187 11.7773C116.725 11.7773 117.18 11.6371 117.551 11.3568C117.922 11.0727 118.204 10.6807 118.397 10.1807C118.591 9.67689 118.687 9.09545 118.687 8.43636C118.687 7.78485 118.592 7.21477 118.403 6.72614C118.214 6.23371 117.933 5.85114 117.562 5.57841C117.191 5.30189 116.733 5.16364 116.187 5.16364C115.619 5.16364 115.145 5.30947 114.767 5.60114C114.392 5.88901 114.109 6.28106 113.92 6.77727C113.734 7.2697 113.642 7.82273 113.642 8.43636C113.642 9.05758 113.736 9.62197 113.926 10.1295C114.119 10.6333 114.403 11.0348 114.778 11.3341C115.157 11.6295 115.627 11.7773 116.187 11.7773Z" fill="#6D6C80"/>
<path d="M106.262 13.0045C105.709 13.0045 105.208 12.9003 104.757 12.692C104.306 12.4799 103.948 12.175 103.683 11.7772C103.418 11.3757 103.285 10.8909 103.285 10.3227C103.285 9.82268 103.384 9.41738 103.581 9.10677C103.778 8.79238 104.041 8.54617 104.37 8.36814C104.7 8.19011 105.064 8.05753 105.461 7.97041C105.863 7.8795 106.266 7.80753 106.672 7.7545C107.202 7.68632 107.632 7.63518 107.961 7.60109C108.295 7.56321 108.537 7.50071 108.689 7.41359C108.844 7.32647 108.922 7.17495 108.922 6.95904V6.91359C108.922 6.35298 108.768 5.91738 108.461 5.60677C108.158 5.29617 107.698 5.14086 107.081 5.14086C106.44 5.14086 105.939 5.28102 105.575 5.56132C105.211 5.84162 104.956 6.14086 104.808 6.45904L103.535 6.0045C103.762 5.4742 104.065 5.06132 104.444 4.76586C104.827 4.46662 105.243 4.25829 105.694 4.14086C106.149 4.01965 106.596 3.95905 107.035 3.95905C107.315 3.95905 107.637 3.99314 108.001 4.06132C108.368 4.12571 108.723 4.26018 109.064 4.46473C109.408 4.66927 109.694 4.97798 109.922 5.39086C110.149 5.80374 110.262 6.35677 110.262 7.04995V12.8H108.922V11.6181H108.853C108.762 11.8075 108.611 12.0102 108.399 12.2261C108.187 12.442 107.904 12.6257 107.552 12.7772C107.2 12.9287 106.77 13.0045 106.262 13.0045ZM106.467 11.8C106.997 11.8 107.444 11.6958 107.808 11.4875C108.175 11.2791 108.452 11.0102 108.637 10.6806C108.827 10.3511 108.922 10.0045 108.922 9.64086V8.41359C108.865 8.48177 108.74 8.54427 108.547 8.60109C108.357 8.65412 108.137 8.70147 107.887 8.74314C107.641 8.78102 107.401 8.81511 107.166 8.84541C106.935 8.87192 106.747 8.89465 106.603 8.91359C106.255 8.95904 105.929 9.03291 105.626 9.13518C105.327 9.23367 105.084 9.38329 104.899 9.58404C104.717 9.78101 104.626 10.05 104.626 10.3909C104.626 10.8568 104.798 11.209 105.143 11.4477C105.492 11.6825 105.933 11.8 106.467 11.8Z" fill="#6D6C80"/>
<path d="M98.0408 12.9818C97.1999 12.9818 96.4745 12.7962 95.8647 12.425C95.2586 12.05 94.7908 11.5272 94.4613 10.8568C94.1355 10.1825 93.9727 9.39844 93.9727 8.5045C93.9727 7.61056 94.1355 6.82268 94.4613 6.14086C94.7908 5.45526 95.2492 4.92117 95.8363 4.53859C96.4272 4.15223 97.1166 3.95905 97.9045 3.95905C98.359 3.95905 98.8079 4.0348 99.2511 4.18632C99.6942 4.33783 100.098 4.58405 100.461 4.92495C100.825 5.26208 101.115 5.70905 101.331 6.26586C101.547 6.82268 101.654 7.50829 101.654 8.32268V8.89086H94.9272V7.73177H100.291C100.291 7.23935 100.192 6.79995 99.9954 6.41359C99.8022 6.02723 99.5257 5.7223 99.1658 5.49882C98.8098 5.27533 98.3893 5.16359 97.9045 5.16359C97.3704 5.16359 96.9083 5.29617 96.5181 5.56132C96.1317 5.82268 95.8344 6.16359 95.6261 6.58404C95.4177 7.0045 95.3136 7.45526 95.3136 7.93632V8.70905C95.3136 9.36814 95.4272 9.92685 95.6545 10.3852C95.8855 10.8397 96.2056 11.1863 96.6147 11.425C97.0238 11.6598 97.4992 11.7772 98.0408 11.7772C98.3931 11.7772 98.7113 11.728 98.9954 11.6295C99.2833 11.5272 99.5314 11.3757 99.7397 11.175C99.948 10.9704 100.109 10.7166 100.223 10.4136L101.518 10.7772C101.382 11.2166 101.153 11.603 100.831 11.9363C100.509 12.2659 100.111 12.5234 99.6374 12.709C99.1639 12.8909 98.6317 12.9818 98.0408 12.9818Z" fill="#6D6C80"/>
<path d="M84.4219 12.8V1.16364H88.3537C89.2628 1.16364 90.009 1.31894 90.5923 1.62954C91.1757 1.93636 91.6075 2.35871 91.8878 2.89659C92.1681 3.43447 92.3082 4.04621 92.3082 4.73182C92.3082 5.41742 92.1681 6.02538 91.8878 6.55568C91.6075 7.08598 91.1776 7.50265 90.598 7.80568C90.0185 8.10492 89.2779 8.25455 88.3764 8.25455H85.1946V6.98182H88.331C88.9522 6.98182 89.4522 6.89091 89.831 6.70909C90.2135 6.52727 90.4901 6.2697 90.6605 5.93636C90.8348 5.59924 90.9219 5.19773 90.9219 4.73182C90.9219 4.26591 90.8348 3.85871 90.6605 3.51023C90.4863 3.16174 90.2079 2.8928 89.8253 2.70341C89.4427 2.51023 88.937 2.41364 88.3082 2.41364H85.831V12.8H84.4219ZM89.8992 7.57273L92.7628 12.8H91.1264L88.3082 7.57273H89.8992Z" fill="#6D6C80"/>
<path d="M77.0611 1.16364L76.9474 9.52727H75.6293L75.5156 1.16364H77.0611ZM76.2884 12.8909C76.008 12.8909 75.7675 12.7905 75.5668 12.5898C75.366 12.389 75.2656 12.1485 75.2656 11.8682C75.2656 11.5879 75.366 11.3473 75.5668 11.1466C75.7675 10.9458 76.008 10.8455 76.2884 10.8455C76.5687 10.8455 76.8092 10.9458 77.0099 11.1466C77.2107 11.3473 77.3111 11.5879 77.3111 11.8682C77.3111 12.0538 77.2637 12.2242 77.169 12.3795C77.0781 12.5348 76.955 12.6598 76.7997 12.7545C76.6482 12.8455 76.4777 12.8909 76.2884 12.8909Z" fill="#6D6C80"/>
<path d="M69.6346 12.9818C68.7937 12.9818 68.0683 12.7962 67.4585 12.425C66.8524 12.05 66.3846 11.5272 66.055 10.8568C65.7293 10.1825 65.5664 9.39844 65.5664 8.5045C65.5664 7.61056 65.7293 6.82268 66.055 6.14086C66.3846 5.45526 66.8429 4.92117 67.43 4.53859C68.0209 4.15223 68.7103 3.95905 69.4982 3.95905C69.9528 3.95905 70.4016 4.0348 70.8448 4.18632C71.288 4.33783 71.6914 4.58405 72.055 4.92495C72.4187 5.26208 72.7085 5.70905 72.9244 6.26586C73.1403 6.82268 73.2482 7.50829 73.2482 8.32268V8.89086H66.521V7.73177H71.8846C71.8846 7.23935 71.7861 6.79995 71.5891 6.41359C71.396 6.02723 71.1194 5.7223 70.7596 5.49882C70.4035 5.27533 69.9831 5.16359 69.4982 5.16359C68.9641 5.16359 68.502 5.29617 68.1119 5.56132C67.7255 5.82268 67.4281 6.16359 67.2198 6.58404C67.0115 7.0045 66.9073 7.45526 66.9073 7.93632V8.70905C66.9073 9.36814 67.0209 9.92685 67.2482 10.3852C67.4793 10.8397 67.7994 11.1863 68.2085 11.425C68.6175 11.6598 69.0929 11.7772 69.6346 11.7772C69.9869 11.7772 70.305 11.728 70.5891 11.6295C70.877 11.5272 71.1251 11.3757 71.3335 11.175C71.5418 10.9704 71.7028 10.7166 71.8164 10.4136L73.1119 10.7772C72.9755 11.2166 72.7463 11.603 72.4244 11.9363C72.1024 12.2659 71.7047 12.5234 71.2312 12.709C70.7577 12.8909 70.2255 12.9818 69.6346 12.9818Z" fill="#6D6C80"/>
<path d="M60.2891 12.8V4.0727H61.5845V5.39089H61.6754C61.8345 4.95907 62.1224 4.60869 62.5391 4.33975C62.9557 4.07081 63.4254 3.93634 63.9482 3.93634C64.0466 3.93634 64.1697 3.93823 64.3175 3.94202C64.4652 3.94581 64.5769 3.95149 64.6527 3.95907V5.3227C64.6072 5.31134 64.5031 5.29429 64.3402 5.27157C64.1811 5.24505 64.0125 5.2318 63.8345 5.2318C63.4103 5.2318 63.0315 5.32081 62.6982 5.49884C62.3686 5.67308 62.1072 5.91551 61.9141 6.22611C61.7247 6.53293 61.63 6.88331 61.63 7.27725V12.8H60.2891Z" fill="#6D6C80"/>
<path d="M54.6346 12.9818C53.7937 12.9818 53.0683 12.7962 52.4585 12.425C51.8524 12.05 51.3846 11.5272 51.055 10.8568C50.7293 10.1825 50.5664 9.39844 50.5664 8.5045C50.5664 7.61056 50.7293 6.82268 51.055 6.14086C51.3846 5.45526 51.8429 4.92117 52.43 4.53859C53.021 4.15223 53.7103 3.95905 54.4982 3.95905C54.9528 3.95905 55.4016 4.0348 55.8448 4.18632C56.288 4.33783 56.6914 4.58405 57.055 4.92495C57.4187 5.26208 57.7085 5.70905 57.9244 6.26586C58.1403 6.82268 58.2482 7.50829 58.2482 8.32268V8.89086H51.521V7.73177H56.8846C56.8846 7.23935 56.7861 6.79995 56.5891 6.41359C56.396 6.02723 56.1194 5.7223 55.7596 5.49882C55.4035 5.27533 54.9831 5.16359 54.4982 5.16359C53.9641 5.16359 53.502 5.29617 53.1119 5.56132C52.7255 5.82268 52.4282 6.16359 52.2198 6.58404C52.0115 7.0045 51.9073 7.45526 51.9073 7.93632V8.70905C51.9073 9.36814 52.021 9.92685 52.2482 10.3852C52.4793 10.8397 52.7994 11.1863 53.2085 11.425C53.6175 11.6598 54.0929 11.7772 54.6346 11.7772C54.9869 11.7772 55.305 11.728 55.5891 11.6295C55.877 11.5272 56.1251 11.3757 56.3335 11.175C56.5418 10.9704 56.7028 10.7166 56.8164 10.4136L58.1119 10.7772C57.9755 11.2166 57.7463 11.603 57.4244 11.9363C57.1024 12.2659 56.7047 12.5234 56.2312 12.709C55.7577 12.8909 55.2255 12.9818 54.6346 12.9818Z" fill="#6D6C80"/>
<path d="M42.8643 7.55V12.8H41.5234V1.16364H42.8643V5.43636H42.978C43.1825 4.98561 43.4893 4.62765 43.8984 4.3625C44.3113 4.09356 44.8606 3.95909 45.5462 3.95909C46.1409 3.95909 46.6617 4.07841 47.1087 4.31704C47.5556 4.55189 47.9022 4.91364 48.1484 5.40227C48.3984 5.88712 48.5234 6.50454 48.5234 7.25455V12.8H47.1825V7.34545C47.1825 6.65227 47.0026 6.11629 46.6428 5.7375C46.2867 5.35492 45.7924 5.16364 45.1598 5.16364C44.7204 5.16364 44.3265 5.25644 43.978 5.44204C43.6333 5.62765 43.3606 5.89848 43.1598 6.25454C42.9628 6.6106 42.8643 7.04242 42.8643 7.55Z" fill="#6D6C80"/>
<path d="M39.3196 4.07272V5.20908H34.7969V4.07272H39.3196ZM36.1151 1.98181H37.456V10.3C37.456 10.6788 37.5109 10.9629 37.6207 11.1523C37.7344 11.3379 37.8783 11.4629 38.0526 11.5273C38.2306 11.5879 38.4181 11.6182 38.6151 11.6182C38.7628 11.6182 38.884 11.6106 38.9787 11.5954C39.0734 11.5765 39.1491 11.5614 39.206 11.55L39.4787 12.7545C39.3878 12.7886 39.2609 12.8227 39.098 12.8568C38.9351 12.8947 38.7287 12.9136 38.4787 12.9136C38.0999 12.9136 37.7287 12.8322 37.3651 12.6693C37.0052 12.5064 36.706 12.2583 36.4673 11.925C36.2325 11.5917 36.1151 11.1712 36.1151 10.6636V1.98181Z" fill="#6D6C80"/>
<path d="M22.979 16.0727C22.7518 16.0727 22.5491 16.0538 22.3711 16.0159C22.1931 15.9818 22.07 15.9477 22.0018 15.9136L22.3427 14.7318C22.6684 14.8151 22.9563 14.8454 23.2063 14.8227C23.4563 14.8 23.6779 14.6882 23.8711 14.4875C24.0681 14.2905 24.248 13.9704 24.4109 13.5272L24.6609 12.8454L21.4336 4.07269H22.8881L25.2972 11.0272H25.3881L27.7972 4.07269H29.2518L25.5472 14.0727C25.3806 14.5235 25.1741 14.8966 24.9279 15.192C24.6817 15.4913 24.3957 15.7128 24.07 15.8568C23.748 16.0007 23.3844 16.0727 22.979 16.0727Z" fill="#6D6C80"/>
<path d="M16.7283 12.9818C15.8874 12.9818 15.162 12.7962 14.5522 12.425C13.9461 12.05 13.4783 11.5272 13.1488 10.8568C12.823 10.1825 12.6602 9.39844 12.6602 8.5045C12.6602 7.61056 12.823 6.82268 13.1488 6.14086C13.4783 5.45526 13.9367 4.92117 14.5238 4.53859C15.1147 4.15223 15.8041 3.95905 16.592 3.95905C17.0465 3.95905 17.4954 4.0348 17.9386 4.18632C18.3817 4.33783 18.7852 4.58405 19.1488 4.92495C19.5124 5.26208 19.8022 5.70905 20.0181 6.26586C20.234 6.82268 20.342 7.50829 20.342 8.32268V8.89086H13.6147V7.73177H18.9783C18.9783 7.23935 18.8799 6.79995 18.6829 6.41359C18.4897 6.02723 18.2132 5.7223 17.8533 5.49882C17.4973 5.27533 17.0768 5.16359 16.592 5.16359C16.0579 5.16359 15.5958 5.29617 15.2056 5.56132C14.8192 5.82268 14.5219 6.16359 14.3136 6.58404C14.1052 7.0045 14.0011 7.45526 14.0011 7.93632V8.70905C14.0011 9.36814 14.1147 9.92685 14.342 10.3852C14.573 10.8397 14.8931 11.1863 15.3022 11.425C15.7113 11.6598 16.1867 11.7772 16.7283 11.7772C17.0806 11.7772 17.3988 11.728 17.6829 11.6295C17.9708 11.5272 18.2189 11.3757 18.4272 11.175C18.6355 10.9704 18.7965 10.7166 18.9102 10.4136L20.2056 10.7772C20.0692 11.2166 19.8401 11.603 19.5181 11.9363C19.1961 12.2659 18.7984 12.5234 18.3249 12.709C17.8514 12.8909 17.3192 12.9818 16.7283 12.9818Z" fill="#6D6C80"/>
<path d="M1.40625 12.8V1.16364H2.81534V6.34545H9.01989V1.16364H10.429V12.8H9.01989V7.59545H2.81534V12.8H1.40625Z" fill="#6D6C80"/>
</svg>
