<svg width="43" height="17" viewBox="0 0 43 17" fill="none" xmlns="http://www.w3.org/2000/svg">
<path d="M0.980469 15.8818H42.4379V16.9727H0.980469V15.8818Z" fill="#5751E1"/>
<path d="M35.6417 7.45004V12.7H34.3008V3.97277H35.5962V5.3364H35.7099C35.9144 4.89322 36.225 4.53716 36.6417 4.26822C37.0584 3.99549 37.5962 3.85913 38.2553 3.85913C38.8462 3.85913 39.3633 3.98034 39.8065 4.22277C40.2496 4.4614 40.5943 4.82504 40.8406 5.31368C41.0868 5.79852 41.2099 6.41216 41.2099 7.15459V12.7H39.869V7.24549C39.869 6.55989 39.6909 6.0258 39.3349 5.64322C38.9788 5.25686 38.4902 5.06368 37.869 5.06368C37.4409 5.06368 37.0584 5.15648 36.7212 5.34208C36.3879 5.52769 36.1246 5.79852 35.9315 6.15458C35.7383 6.51065 35.6417 6.94246 35.6417 7.45004Z" fill="#5751E1"/>
<path d="M30.5032 12.7V3.97268H31.8441V12.7H30.5032ZM31.185 2.51813C30.9237 2.51813 30.6983 2.42912 30.5089 2.25109C30.3233 2.07306 30.2305 1.85904 30.2305 1.60904C30.2305 1.35904 30.3233 1.14503 30.5089 0.966996C30.6983 0.788966 30.9237 0.699951 31.185 0.699951C31.4464 0.699951 31.6699 0.788966 31.8555 0.966996C32.0449 1.14503 32.1396 1.35904 32.1396 1.60904C32.1396 1.85904 32.0449 2.07306 31.8555 2.25109C31.6699 2.42912 31.4464 2.51813 31.185 2.51813Z" fill="#5751E1"/>
<path d="M24.2756 16.1546C23.6278 16.1546 23.071 16.0713 22.6051 15.9046C22.1392 15.7417 21.7509 15.5258 21.4403 15.2569C21.1335 14.9917 20.8892 14.7076 20.7074 14.4046L21.7756 13.6546C21.8968 13.8137 22.0502 13.9955 22.2358 14.2C22.4214 14.4084 22.6752 14.5883 22.9972 14.7398C23.3229 14.8951 23.7491 14.9728 24.2756 14.9728C24.9801 14.9728 25.5616 14.8023 26.0199 14.4614C26.4782 14.1205 26.7074 13.5864 26.7074 12.8591V11.0864H26.5938C26.4953 11.2455 26.3551 11.4425 26.1733 11.6773C25.9953 11.9084 25.7377 12.1148 25.4006 12.2966C25.0672 12.4747 24.6165 12.5637 24.0483 12.5637C23.3438 12.5637 22.7112 12.397 22.1506 12.0637C21.5937 11.7303 21.1525 11.2455 20.8267 10.6091C20.5047 9.97277 20.3438 9.20004 20.3438 8.29095C20.3438 7.39701 20.5009 6.6186 20.8153 5.95572C21.1297 5.28906 21.5672 4.7739 22.1278 4.41027C22.6884 4.04284 23.3362 3.85913 24.071 3.85913C24.6392 3.85913 25.09 3.95383 25.4233 4.14322C25.7604 4.32883 26.018 4.54095 26.196 4.77958C26.3778 5.01443 26.518 5.20761 26.6165 5.35913H26.7528V3.97277H28.0483V12.95C28.0483 13.7 27.8778 14.3099 27.5369 14.7796C27.1998 15.2531 26.7453 15.5997 26.1733 15.8194C25.6051 16.0428 24.9725 16.1546 24.2756 16.1546ZM24.2301 11.3591C24.768 11.3591 25.2225 11.236 25.5938 10.9898C25.965 10.7436 26.2472 10.3894 26.4403 9.92731C26.6335 9.46519 26.7301 8.91216 26.7301 8.26822C26.7301 7.63943 26.6354 7.08451 26.446 6.60345C26.2566 6.12239 25.9763 5.74549 25.6051 5.47277C25.2339 5.20004 24.7756 5.06368 24.2301 5.06368C23.6619 5.06368 23.1884 5.20761 22.8097 5.49549C22.4347 5.78337 22.1525 6.16974 21.9631 6.65459C21.7775 7.13943 21.6847 7.67731 21.6847 8.26822C21.6847 8.87428 21.7794 9.41027 21.9688 9.87618C22.1619 10.3383 22.446 10.7019 22.821 10.9671C23.1998 11.2284 23.6695 11.3591 24.2301 11.3591Z" fill="#5751E1"/>
<path d="M14.7514 12.8819C13.9635 12.8819 13.2723 12.6944 12.6776 12.3194C12.0866 11.9444 11.6245 11.4197 11.2912 10.7455C10.9616 10.0713 10.7969 9.28337 10.7969 8.38186C10.7969 7.47277 10.9616 6.67921 11.2912 6.00118C11.6245 5.32315 12.0866 4.79663 12.6776 4.42163C13.2723 4.04663 13.9635 3.85913 14.7514 3.85913C15.5393 3.85913 16.2287 4.04663 16.8196 4.42163C17.4143 4.79663 17.8764 5.32315 18.206 6.00118C18.5393 6.67921 18.706 7.47277 18.706 8.38186C18.706 9.28337 18.5393 10.0713 18.206 10.7455C17.8764 11.4197 17.4143 11.9444 16.8196 12.3194C16.2287 12.6944 15.5393 12.8819 14.7514 12.8819ZM14.7514 11.6773C15.3499 11.6773 15.8423 11.5239 16.2287 11.2171C16.6151 10.9103 16.901 10.5069 17.0866 10.0069C17.2723 9.50686 17.3651 8.96519 17.3651 8.38186C17.3651 7.79852 17.2723 7.25496 17.0866 6.75118C16.901 6.24739 16.6151 5.84019 16.2287 5.52958C15.8423 5.21898 15.3499 5.06368 14.7514 5.06368C14.1529 5.06368 13.6605 5.21898 13.2741 5.52958C12.8878 5.84019 12.6018 6.24739 12.4162 6.75118C12.2306 7.25496 12.1378 7.79852 12.1378 8.38186C12.1378 8.96519 12.2306 9.50686 12.4162 10.0069C12.6018 10.5069 12.8878 10.9103 13.2741 11.2171C13.6605 11.5239 14.1529 11.6773 14.7514 11.6773Z" fill="#5751E1"/>
<path d="M2.39062 12.7V1.0636H3.79972V11.45H9.20881V12.7H2.39062Z" fill="#5751E1"/>
</svg>
