<svg width="61" height="18" viewBox="0 0 61 18" fill="none" xmlns="http://www.w3.org/2000/svg">
<path d="M53.9158 5.75603C54.2038 5.3507 54.5984 5.0147 55.0998 4.74803C55.6118 4.4707 56.1931 4.33203 56.8438 4.33203C57.6011 4.33203 58.2838 4.5187 58.8918 4.89203C59.5104 5.26536 59.9958 5.7987 60.3478 6.49203C60.7104 7.1747 60.8918 7.96936 60.8918 8.87603C60.8918 9.7827 60.7104 10.588 60.3478 11.292C59.9958 11.9854 59.5104 12.524 58.8918 12.908C58.2838 13.292 57.6011 13.484 56.8438 13.484C56.1931 13.484 55.6171 13.3507 55.1158 13.084C54.6251 12.8174 54.2251 12.4814 53.9158 12.076V17.564H51.6758V4.47603H53.9158V5.75603ZM58.6038 8.87603C58.6038 8.3427 58.4918 7.88403 58.2678 7.50003C58.0544 7.10536 57.7664 6.8067 57.4038 6.60403C57.0518 6.40137 56.6678 6.30003 56.2518 6.30003C55.8464 6.30003 55.4624 6.4067 55.0998 6.62003C54.7478 6.8227 54.4598 7.12136 54.2358 7.51603C54.0224 7.9107 53.9158 8.3747 53.9158 8.90803C53.9158 9.44136 54.0224 9.90536 54.2358 10.3C54.4598 10.6947 54.7478 10.9987 55.0998 11.212C55.4624 11.4147 55.8464 11.516 56.2518 11.516C56.6678 11.516 57.0518 11.4094 57.4038 11.196C57.7664 10.9827 58.0544 10.6787 58.2678 10.284C58.4918 9.88937 58.6038 9.42003 58.6038 8.87603Z" fill="black"/>
<path d="M42.7283 2.172V9.084C42.7283 9.84133 42.9256 10.4227 43.3203 10.828C43.7149 11.2227 44.2696 11.42 44.9843 11.42C45.7096 11.42 46.2696 11.2227 46.6643 10.828C47.059 10.4227 47.2563 9.84133 47.2563 9.084V2.172H49.5123V9.068C49.5123 10.0173 49.3043 10.8227 48.8883 11.484C48.4829 12.1347 47.9336 12.6253 47.2403 12.956C46.5576 13.2867 45.7949 13.452 44.9523 13.452C44.1203 13.452 43.3629 13.2867 42.6803 12.956C42.0083 12.6253 41.475 12.1347 41.0803 11.484C40.6856 10.8227 40.4883 10.0173 40.4883 9.068V2.172H42.7283Z" fill="black"/>
<path d="M31.0409 4.34802C32.0969 4.34802 32.9502 4.68402 33.6009 5.35602C34.2516 6.01736 34.5769 6.94536 34.5769 8.14002V13.34H32.3369V8.44402C32.3369 7.74002 32.1609 7.20136 31.8089 6.82802C31.4569 6.44402 30.9769 6.25202 30.3689 6.25202C29.7502 6.25202 29.2596 6.44402 28.8969 6.82802C28.5449 7.20136 28.3689 7.74002 28.3689 8.44402V13.34H26.1289V4.47602H28.3689V5.58002C28.6676 5.19602 29.0462 4.89736 29.5049 4.68402C29.9742 4.46002 30.4862 4.34802 31.0409 4.34802Z" fill="black"/>
<path d="M18.755 4.33203C19.4164 4.33203 19.9977 4.46536 20.499 4.73203C21.0004 4.98803 21.395 5.32403 21.683 5.74003V4.47603H23.939V13.404C23.939 14.2254 23.7737 14.956 23.443 15.596C23.1124 16.2467 22.6164 16.7587 21.955 17.132C21.2937 17.516 20.4937 17.708 19.555 17.708C18.2964 17.708 17.2617 17.4147 16.451 16.828C15.651 16.2414 15.1977 15.4414 15.091 14.428H17.315C17.4324 14.8334 17.683 15.1534 18.067 15.388C18.4617 15.6334 18.9364 15.756 19.491 15.756C20.1417 15.756 20.6697 15.5587 21.075 15.164C21.4804 14.78 21.683 14.1934 21.683 13.404V12.028C21.395 12.444 20.995 12.7907 20.483 13.068C19.9817 13.3454 19.4057 13.484 18.755 13.484C18.0084 13.484 17.3257 13.292 16.707 12.908C16.0884 12.524 15.5977 11.9854 15.235 11.292C14.883 10.588 14.707 9.7827 14.707 8.87603C14.707 7.98003 14.883 7.18536 15.235 6.49203C15.5977 5.7987 16.083 5.26536 16.691 4.89203C17.3097 4.5187 17.9977 4.33203 18.755 4.33203ZM21.683 8.90803C21.683 8.36403 21.5764 7.90003 21.363 7.51603C21.1497 7.12136 20.8617 6.8227 20.499 6.62003C20.1364 6.4067 19.747 6.30003 19.331 6.30003C18.915 6.30003 18.531 6.40137 18.179 6.60403C17.827 6.8067 17.539 7.10536 17.315 7.50003C17.1017 7.88403 16.995 8.3427 16.995 8.87603C16.995 9.40936 17.1017 9.8787 17.315 10.284C17.539 10.6787 17.827 10.9827 18.179 11.196C18.5417 11.4094 18.9257 11.516 19.331 11.516C19.747 11.516 20.1364 11.4147 20.499 11.212C20.8617 10.9987 21.1497 10.7 21.363 10.316C21.5764 9.92136 21.683 9.45203 21.683 8.90803Z" fill="black"/>
<path d="M11.9658 3.42002C11.5712 3.42002 11.2405 3.29735 10.9738 3.05202C10.7178 2.79602 10.5898 2.48135 10.5898 2.10802C10.5898 1.73469 10.7178 1.42535 10.9738 1.18002C11.2405 0.92402 11.5712 0.796021 11.9658 0.796021C12.3605 0.796021 12.6858 0.92402 12.9418 1.18002C13.2085 1.42535 13.3418 1.73469 13.3418 2.10802C13.3418 2.48135 13.2085 2.79602 12.9418 3.05202C12.6858 3.29735 12.3605 3.42002 11.9658 3.42002ZM13.0698 4.47602V13.34H10.8298V4.47602H13.0698Z" fill="black"/>
<path d="M4.93697 13.452C4.1583 13.452 3.4543 13.3186 2.82497 13.052C2.2063 12.7853 1.71564 12.4013 1.35297 11.9C0.990302 11.3986 0.803635 10.8066 0.792969 10.124H3.19297C3.22497 10.5826 3.38497 10.9453 3.67297 11.212C3.97164 11.4786 4.37697 11.612 4.88897 11.612C5.41164 11.612 5.8223 11.4893 6.12097 11.244C6.41964 10.988 6.56897 10.6573 6.56897 10.252C6.56897 9.9213 6.46764 9.6493 6.26497 9.43596C6.0623 9.22263 5.8063 9.0573 5.49697 8.93996C5.1983 8.81196 4.7823 8.6733 4.24897 8.52396C3.52364 8.31063 2.93164 8.10263 2.47297 7.89996C2.02497 7.68663 1.63564 7.37196 1.30497 6.95596C0.984969 6.5293 0.824969 5.96396 0.824969 5.25996C0.824969 4.59863 0.990302 4.02263 1.32097 3.53196C1.65164 3.0413 2.11564 2.66796 2.71297 2.41196C3.3103 2.1453 3.99297 2.01196 4.76097 2.01196C5.91297 2.01196 6.8463 2.29463 7.56097 2.85996C8.2863 3.41463 8.6863 4.1933 8.76097 5.19596H6.29697C6.27564 4.81196 6.1103 4.4973 5.80097 4.25196C5.5023 3.99596 5.1023 3.86796 4.60097 3.86796C4.16364 3.86796 3.81164 3.97996 3.54497 4.20396C3.28897 4.42796 3.16097 4.7533 3.16097 5.17996C3.16097 5.47863 3.25697 5.7293 3.44897 5.93196C3.65164 6.12396 3.89697 6.28396 4.18497 6.41196C4.48364 6.5293 4.89964 6.66796 5.43297 6.82796C6.1583 7.0413 6.7503 7.25463 7.20897 7.46796C7.66764 7.6813 8.0623 8.0013 8.39297 8.42796C8.72364 8.85463 8.88897 9.41463 8.88897 10.108C8.88897 10.7053 8.7343 11.26 8.42497 11.772C8.11564 12.284 7.6623 12.6946 7.06497 13.004C6.46764 13.3026 5.7583 13.452 4.93697 13.452Z" fill="black"/>
</svg>
