<svg width="57" height="69" viewBox="0 0 57 69" fill="none" xmlns="http://www.w3.org/2000/svg">
<rect width="55.5" height="68" transform="translate(0.589844 0.800049)" fill="#F7F7FA"/>
<path d="M31.5547 40.8V32.0728H32.8501V33.3909H32.9411C33.1001 32.9591 33.388 32.6088 33.8047 32.3398C34.2214 32.0709 34.6911 31.9364 35.2138 31.9364C35.3123 31.9364 35.4354 31.9383 35.5831 31.9421C35.7308 31.9459 35.8426 31.9516 35.9183 31.9591V33.3228C35.8729 33.3114 35.7687 33.2944 35.6058 33.2716C35.4467 33.2451 35.2782 33.2319 35.1001 33.2319C34.6759 33.2319 34.2971 33.3209 33.9638 33.4989C33.6342 33.6731 33.3729 33.9156 33.1797 34.2262C32.9903 34.533 32.8956 34.8834 32.8956 35.2773V40.8H31.5547Z" fill="#161439"/>
<path d="M25.5522 40.9818C24.7643 40.9818 24.073 40.7943 23.4783 40.4193C22.8874 40.0443 22.4253 39.5197 22.092 38.8455C21.7624 38.1712 21.5977 37.3833 21.5977 36.4818C21.5977 35.5727 21.7624 34.7792 22.092 34.1012C22.4253 33.4231 22.8874 32.8966 23.4783 32.5216C24.073 32.1466 24.7643 31.9591 25.5522 31.9591C26.3401 31.9591 27.0295 32.1466 27.6204 32.5216C28.2151 32.8966 28.6772 33.4231 29.0067 34.1012C29.3401 34.7792 29.5067 35.5727 29.5067 36.4818C29.5067 37.3833 29.3401 38.1712 29.0067 38.8455C28.6772 39.5197 28.2151 40.0443 27.6204 40.4193C27.0295 40.7943 26.3401 40.9818 25.5522 40.9818ZM25.5522 39.7773C26.1507 39.7773 26.6431 39.6239 27.0295 39.3171C27.4158 39.0102 27.7018 38.6068 27.8874 38.1068C28.073 37.6068 28.1658 37.0652 28.1658 36.4818C28.1658 35.8985 28.073 35.3549 27.8874 34.8512C27.7018 34.3474 27.4158 33.9402 27.0295 33.6296C26.6431 33.319 26.1507 33.1637 25.5522 33.1637C24.9537 33.1637 24.4613 33.319 24.0749 33.6296C23.6886 33.9402 23.4026 34.3474 23.217 34.8512C23.0314 35.3549 22.9386 35.8985 22.9386 36.4818C22.9386 37.0652 23.0314 37.6068 23.217 38.1068C23.4026 38.6068 23.6886 39.0102 24.0749 39.3171C24.4613 39.6239 24.9537 39.7773 25.5522 39.7773Z" fill="#161439"/>
</svg>
