<svg width="16" height="15" viewBox="0 0 16 15" fill="none" xmlns="http://www.w3.org/2000/svg">
<g clip-path="url(#clip0_6513_208)">
<path fill-rule="evenodd" clip-rule="evenodd" d="M7.99334 1.46209C8.35945 1.09597 8.95305 1.09597 9.31916 1.46209L14.9442 7.08709C15.3103 7.4532 15.3103 8.0468 14.9442 8.41291L9.31916 14.0379C8.95305 14.404 8.35945 14.404 7.99334 14.0379C7.62722 13.6718 7.62722 13.0782 7.99334 12.7121L12.0179 8.6875H1.15625C0.638483 8.6875 0.21875 8.26777 0.21875 7.75C0.21875 7.23223 0.638483 6.8125 1.15625 6.8125H12.0179L7.99334 2.78791C7.62722 2.4218 7.62722 1.8282 7.99334 1.46209Z" fill="black"/>
</g>
<defs>
<clipPath id="clip0_6513_208">
<rect width="15" height="14" fill="white" transform="translate(0.21875 0.75)"/>
</clipPath>
</defs>
</svg>
